STARTFONT 2.1
FONT -FontForge-Lobster-Book-R-Normal--12-120-72-72-P-70-ISO10646-1
SIZE 12 72 72
FONTBOUNDINGBOX 25 19 -6 -6
COMMENT "Generated by fontforge, http://fontforge.sourceforge.net"
COMMENT "Copyright 2010 The Lobster Project Authors (https://github.com/impallari/The-Lobster-Font), with Reserved Font Name "Lobster"."
STARTPROPERTIES 40
FOUNDRY "FontForge"
FAMILY_NAME "Lobster"
WEIGHT_NAME "Book"
SLANT "R"
SETWIDTH_NAME "Normal"
ADD_STYLE_NAME ""
PIXEL_SIZE 12
POINT_SIZE 120
RESOLUTION_X 72
RESOLUTION_Y 72
SPACING "P"
AVERAGE_WIDTH 70
CHARSET_REGISTRY "ISO10646"
CHARSET_ENCODING "1"
FONTNAME_REGISTRY ""
CHARSET_COLLECTIONS "ISO8859-2 ISO8859-5 ISO8859-9 ISO8859-4 ISO10646-1"
FONT_NAME "Lobster-Regular"
FACE_NAME "Lobster Regular"
COPYRIGHT "Copyright 2010 The Lobster Project Authors (https://github.com/impallari/The-Lobster-Font), with Reserved Font Name "Lobster"."
FONT_VERSION "2.100"
FONT_ASCENT 10
FONT_DESCENT 2
UNDERLINE_POSITION -1
UNDERLINE_THICKNESS 1
X_HEIGHT 5
CAP_HEIGHT 8
DEFAULT_CHAR 1
RAW_ASCENT 800
RAW_DESCENT 200
NORM_SPACE 3
RELATIVE_WEIGHT 40
RELATIVE_SETWIDTH 50
SUPERSCRIPT_X 0
SUPERSCRIPT_Y 4
SUPERSCRIPT_SIZE 7
SUBSCRIPT_X 0
SUBSCRIPT_Y 0
SUBSCRIPT_SIZE 7
AVG_LOWERCASE_WIDTH 56
AVG_UPPERCASE_WIDTH 75
ENDPROPERTIES
CHARS 1148
STARTCHAR NULL.dup1
ENCODING 0
SWIDTH 600 0
DWIDTH 7 0
BBX 1 1 0 0
BITMAP
00
ENDCHAR
STARTCHAR nonmarkingreturn
ENCODING 13
SWIDTH 600 0
DWIDTH 7 0
BBX 1 1 0 0
BITMAP
00
ENDCHAR
STARTCHAR space
ENCODING 32
SWIDTH 217 0
DWIDTH 3 0
BBX 1 1 0 0
BITMAP
00
ENDCHAR
STARTCHAR exclam
ENCODING 33
SWIDTH 257 0
DWIDTH 3 0
BBX 4 9 0 0
BITMAP
30
20
20
20
60
40
00
40
C0
ENDCHAR
STARTCHAR quotedbl
ENCODING 34
SWIDTH 353 0
DWIDTH 4 0
BBX 4 3 1 6
BITMAP
50
A0
A0
ENDCHAR
STARTCHAR numbersign
ENCODING 35
SWIDTH 659 0
DWIDTH 8 0
BBX 6 7 1 1
BITMAP
28
28
FC
48
FC
50
50
ENDCHAR
STARTCHAR dollar
ENCODING 36
SWIDTH 548 0
DWIDTH 7 0
BBX 6 11 0 -1
BITMAP
08
3C
2C
2C
30
18
5C
AC
EC
78
20
ENDCHAR
STARTCHAR percent
ENCODING 37
SWIDTH 796 0
DWIDTH 10 0
BBX 8 9 1 0
BITMAP
62
A4
A4
A8
B3
D5
25
25
46
ENDCHAR
STARTCHAR ampersand
ENCODING 38
SWIDTH 682 0
DWIDTH 8 0
BBX 8 9 0 0
BITMAP
1C
24
24
20
31
6E
CC
C4
78
ENDCHAR
STARTCHAR quotesingle
ENCODING 39
SWIDTH 196 0
DWIDTH 2 0
BBX 2 2 1 7
BITMAP
40
80
ENDCHAR
STARTCHAR parenleft
ENCODING 40
SWIDTH 437 0
DWIDTH 5 0
BBX 4 12 2 -3
BITMAP
10
20
40
40
C0
80
80
80
80
80
40
40
ENDCHAR
STARTCHAR parenright
ENCODING 41
SWIDTH 413 0
DWIDTH 5 0
BBX 5 12 -1 -3
BITMAP
30
10
10
18
18
18
18
10
30
20
40
80
ENDCHAR
STARTCHAR asterisk
ENCODING 42
SWIDTH 515 0
DWIDTH 6 0
BBX 4 5 1 4
BITMAP
20
B0
60
B0
60
ENDCHAR
STARTCHAR plus
ENCODING 43
SWIDTH 442 0
DWIDTH 5 0
BBX 5 4 0 2
BITMAP
20
20
F8
20
ENDCHAR
STARTCHAR comma
ENCODING 44
SWIDTH 216 0
DWIDTH 3 0
BBX 2 3 0 -1
BITMAP
C0
C0
C0
ENDCHAR
STARTCHAR hyphen
ENCODING 45
SWIDTH 290 0
DWIDTH 3 0
BBX 3 1 0 3
BITMAP
E0
ENDCHAR
STARTCHAR period
ENCODING 46
SWIDTH 263 0
DWIDTH 3 0
BBX 2 2 0 0
BITMAP
40
C0
ENDCHAR
STARTCHAR slash
ENCODING 47
SWIDTH 311 0
DWIDTH 4 0
BBX 4 12 0 -3
BITMAP
30
20
20
20
20
40
40
40
40
40
80
80
ENDCHAR
STARTCHAR zero
ENCODING 48
SWIDTH 546 0
DWIDTH 7 0
BBX 7 9 0 0
BITMAP
1C
24
66
46
C4
C4
CC
C8
70
ENDCHAR
STARTCHAR one
ENCODING 49
SWIDTH 317 0
DWIDTH 4 0
BBX 4 9 0 0
BITMAP
10
70
20
60
60
60
60
40
C0
ENDCHAR
STARTCHAR two
ENCODING 50
SWIDTH 492 0
DWIDTH 6 0
BBX 6 9 0 0
BITMAP
38
4C
6C
18
10
20
40
F8
B8
ENDCHAR
STARTCHAR three
ENCODING 51
SWIDTH 514 0
DWIDTH 6 0
BBX 6 9 0 0
BITMAP
38
6C
6C
38
18
4C
CC
88
70
ENDCHAR
STARTCHAR four
ENCODING 52
SWIDTH 476 0
DWIDTH 6 0
BBX 6 9 0 0
BITMAP
10
10
38
28
48
FC
18
10
30
ENDCHAR
STARTCHAR five
ENCODING 53
SWIDTH 517 0
DWIDTH 6 0
BBX 6 8 0 0
BITMAP
3C
40
78
0C
6C
CC
C8
70
ENDCHAR
STARTCHAR six
ENCODING 54
SWIDTH 500 0
DWIDTH 6 0
BBX 6 9 0 0
BITMAP
1C
24
64
40
F8
CC
CC
C8
70
ENDCHAR
STARTCHAR seven
ENCODING 55
SWIDTH 464 0
DWIDTH 6 0
BBX 5 9 1 0
BITMAP
E8
98
10
20
60
40
C0
C0
C0
ENDCHAR
STARTCHAR eight
ENCODING 56
SWIDTH 499 0
DWIDTH 6 0
BBX 6 9 0 0
BITMAP
38
64
64
38
38
DC
CC
CC
78
ENDCHAR
STARTCHAR nine
ENCODING 57
SWIDTH 489 0
DWIDTH 6 0
BBX 6 9 0 0
BITMAP
38
4C
CC
CC
CC
7C
08
D8
F0
ENDCHAR
STARTCHAR colon
ENCODING 58
SWIDTH 267 0
DWIDTH 3 0
BBX 3 5 0 1
BITMAP
60
60
00
40
C0
ENDCHAR
STARTCHAR semicolon
ENCODING 59
SWIDTH 276 0
DWIDTH 3 0
BBX 2 6 1 -1
BITMAP
C0
C0
00
80
80
80
ENDCHAR
STARTCHAR less
ENCODING 60
SWIDTH 358 0
DWIDTH 4 0
BBX 4 4 0 1
BITMAP
30
C0
60
30
ENDCHAR
STARTCHAR equal
ENCODING 61
SWIDTH 515 0
DWIDTH 6 0
BBX 6 4 0 1
BITMAP
7C
00
00
F8
ENDCHAR
STARTCHAR greater
ENCODING 62
SWIDTH 362 0
DWIDTH 4 0
BBX 4 4 0 1
BITMAP
40
30
60
80
ENDCHAR
STARTCHAR question
ENCODING 63
SWIDTH 441 0
DWIDTH 5 0
BBX 4 9 1 0
BITMAP
F0
90
B0
20
40
80
00
80
80
ENDCHAR
STARTCHAR at
ENCODING 64
SWIDTH 688 0
DWIDTH 8 0
BBX 8 9 0 -1
BITMAP
1C
22
5D
F5
A9
AA
BC
84
78
ENDCHAR
STARTCHAR A
ENCODING 65
SWIDTH 668 0
DWIDTH 8 0
BBX 8 10 0 -1
BITMAP
03
0F
0B
7F
F2
26
26
66
66
60
ENDCHAR
STARTCHAR B
ENCODING 66
SWIDTH 641 0
DWIDTH 8 0
BBX 7 9 0 0
BITMAP
3C
5A
96
BE
36
32
22
26
7C
ENDCHAR
STARTCHAR C
ENCODING 67
SWIDTH 497 0
DWIDTH 6 0
BBX 6 9 0 0
BITMAP
1C
34
64
60
C0
C0
C0
C4
78
ENDCHAR
STARTCHAR D
ENCODING 68
SWIDTH 663 0
DWIDTH 8 0
BBX 8 9 0 0
BITMAP
3C
4A
93
B3
33
32
26
66
7C
ENDCHAR
STARTCHAR E
ENCODING 69
SWIDTH 459 0
DWIDTH 6 0
BBX 6 9 0 0
BITMAP
1C
24
2C
20
70
60
C0
C4
78
ENDCHAR
STARTCHAR F
ENCODING 70
SWIDTH 459 0
DWIDTH 6 0
BBX 7 9 0 0
BITMAP
3E
50
B0
B0
BC
30
20
60
60
ENDCHAR
STARTCHAR G
ENCODING 71
SWIDTH 578 0
DWIDTH 7 0
BBX 7 11 0 -2
BITMAP
1C
62
66
C0
C6
C4
4C
7C
28
48
70
ENDCHAR
STARTCHAR H
ENCODING 72
SWIDTH 665 0
DWIDTH 8 0
BBX 8 9 0 0
BITMAP
3B
7B
D3
B3
BE
32
36
26
66
ENDCHAR
STARTCHAR I
ENCODING 73
SWIDTH 375 0
DWIDTH 5 0
BBX 5 9 0 0
BITMAP
38
50
90
B0
30
30
20
60
60
ENDCHAR
STARTCHAR J
ENCODING 74
SWIDTH 536 0
DWIDTH 6 0
BBX 7 11 0 -2
BITMAP
0E
16
34
2C
1C
0C
08
18
78
98
70
ENDCHAR
STARTCHAR K
ENCODING 75
SWIDTH 601 0
DWIDTH 7 0
BBX 8 9 0 0
BITMAP
3B
52
94
B8
BC
36
24
6C
6C
ENDCHAR
STARTCHAR L
ENCODING 76
SWIDTH 379 0
DWIDTH 5 0
BBX 8 12 0 -3
BITMAP
38
50
90
B0
30
30
20
60
60
18
0F
06
ENDCHAR
STARTCHAR M
ENCODING 77
SWIDTH 787 0
DWIDTH 9 0
BBX 9 9 1 0
BITMAP
3980
5300
B300
B700
5700
5700
5B00
9B00
9200
ENDCHAR
STARTCHAR N
ENCODING 78
SWIDTH 668 0
DWIDTH 8 0
BBX 9 9 0 0
BITMAP
3980
5900
9900
B900
6D00
2E00
2E00
6600
4600
ENDCHAR
STARTCHAR O
ENCODING 79
SWIDTH 665 0
DWIDTH 8 0
BBX 8 9 0 0
BITMAP
3E
4B
D3
B3
23
62
66
64
38
ENDCHAR
STARTCHAR P
ENCODING 80
SWIDTH 573 0
DWIDTH 7 0
BBX 7 9 0 0
BITMAP
3C
52
92
B2
34
38
20
60
60
ENDCHAR
STARTCHAR Q
ENCODING 81
SWIDTH 665 0
DWIDTH 8 0
BBX 8 10 0 -1
BITMAP
1E
6B
D3
B3
23
62
66
7E
3C
06
ENDCHAR
STARTCHAR R
ENCODING 82
SWIDTH 601 0
DWIDTH 7 0
BBX 7 9 0 0
BITMAP
3C
5A
92
B4
BC
36
24
6C
6C
ENDCHAR
STARTCHAR S
ENCODING 83
SWIDTH 570 0
DWIDTH 7 0
BBX 7 9 0 0
BITMAP
1C
36
34
30
18
6C
CC
CC
78
ENDCHAR
STARTCHAR T
ENCODING 84
SWIDTH 481 0
DWIDTH 6 0
BBX 9 9 0 0
BITMAP
3C80
5F00
9800
9800
1800
1000
3000
3000
3000
ENDCHAR
STARTCHAR U
ENCODING 85
SWIDTH 716 0
DWIDTH 9 0
BBX 9 9 0 0
BITMAP
3980
5980
9180
9100
3300
3300
2300
3600
1C00
ENDCHAR
STARTCHAR V
ENCODING 86
SWIDTH 615 0
DWIDTH 7 0
BBX 8 9 0 0
BITMAP
39
59
9A
9A
1A
1C
1C
18
18
ENDCHAR
STARTCHAR W
ENCODING 87
SWIDTH 962 0
DWIDTH 12 0
BBX 12 9 0 0
BITMAP
3990
5990
9990
9BA0
1BA0
1DA0
1DC0
19C0
1980
ENDCHAR
STARTCHAR X
ENCODING 88
SWIDTH 620 0
DWIDTH 7 0
BBX 8 9 0 0
BITMAP
3B
5A
9C
8C
0C
0C
1C
2C
26
ENDCHAR
STARTCHAR Y
ENCODING 89
SWIDTH 620 0
DWIDTH 7 0
BBX 8 9 0 0
BITMAP
39
59
9A
8E
0C
0C
0C
0C
18
ENDCHAR
STARTCHAR Z
ENCODING 90
SWIDTH 542 0
DWIDTH 7 0
BBX 7 9 0 0
BITMAP
7E
4C
18
18
30
30
60
64
FC
ENDCHAR
STARTCHAR bracketleft
ENCODING 91
SWIDTH 400 0
DWIDTH 5 0
BBX 5 12 0 -3
BITMAP
38
20
20
20
60
60
40
40
40
C0
80
E0
ENDCHAR
STARTCHAR backslash
ENCODING 92
SWIDTH 362 0
DWIDTH 4 0
BBX 4 12 0 -3
BITMAP
C0
40
40
40
40
20
20
20
20
20
10
10
ENDCHAR
STARTCHAR bracketright
ENCODING 93
SWIDTH 400 0
DWIDTH 5 0
BBX 5 12 -1 -3
BITMAP
18
08
08
18
10
10
10
10
30
20
20
E0
ENDCHAR
STARTCHAR asciicircum
ENCODING 94
SWIDTH 421 0
DWIDTH 5 0
BBX 3 2 1 7
BITMAP
60
A0
ENDCHAR
STARTCHAR underscore
ENCODING 95
SWIDTH 444 0
DWIDTH 5 0
BBX 5 1 0 0
BITMAP
F8
ENDCHAR
STARTCHAR grave
ENCODING 96
SWIDTH 201 0
DWIDTH 2 0
BBX 2 2 0 7
BITMAP
C0
40
ENDCHAR
STARTCHAR a
ENCODING 97
SWIDTH 526 0
DWIDTH 6 0
BBX 7 6 0 0
BITMAP
7C
48
C8
D8
DA
FC
ENDCHAR
STARTCHAR b
ENCODING 98
SWIDTH 444 0
DWIDTH 5 0
BBX 5 8 0 0
BITMAP
60
60
78
48
C8
D8
D0
E0
ENDCHAR
STARTCHAR c
ENCODING 99
SWIDTH 384 0
DWIDTH 5 0
BBX 5 6 0 0
BITMAP
70
50
C0
C0
C8
F0
ENDCHAR
STARTCHAR d
ENCODING 100
SWIDTH 525 0
DWIDTH 6 0
BBX 7 8 0 0
BITMAP
0C
0C
7C
48
C8
D8
DA
FC
ENDCHAR
STARTCHAR e
ENCODING 101
SWIDTH 384 0
DWIDTH 5 0
BBX 5 6 0 0
BITMAP
70
50
D0
E0
C8
F0
ENDCHAR
STARTCHAR f
ENCODING 102
SWIDTH 267 0
DWIDTH 3 0
BBX 8 12 -3 -3
BITMAP
06
0D
0C
0C
18
18
18
18
10
70
B0
60
ENDCHAR
STARTCHAR g
ENCODING 103
SWIDTH 507 0
DWIDTH 6 0
BBX 7 9 0 -3
BITMAP
7C
48
C8
D8
DA
FC
30
70
70
ENDCHAR
STARTCHAR h
ENCODING 104
SWIDTH 505 0
DWIDTH 6 0
BBX 7 8 0 0
BITMAP
60
60
78
58
D8
D8
DA
9C
ENDCHAR
STARTCHAR i
ENCODING 105
SWIDTH 267 0
DWIDTH 3 0
BBX 4 8 0 0
BITMAP
60
60
40
C0
C0
C0
D0
E0
ENDCHAR
STARTCHAR j
ENCODING 106
SWIDTH 240 0
DWIDTH 3 0
BBX 5 11 -2 -3
BITMAP
18
18
10
10
30
30
38
38
E0
E0
C0
ENDCHAR
STARTCHAR k
ENCODING 107
SWIDTH 518 0
DWIDTH 6 0
BBX 7 8 0 0
BITMAP
60
60
4C
50
F8
D8
DA
9C
ENDCHAR
STARTCHAR l
ENCODING 108
SWIDTH 267 0
DWIDTH 3 0
BBX 4 8 0 0
BITMAP
60
60
40
40
C0
C0
D0
E0
ENDCHAR
STARTCHAR m
ENCODING 109
SWIDTH 752 0
DWIDTH 9 0
BBX 10 6 0 0
BITMAP
7F00
DB00
DB00
DB00
DB40
9380
ENDCHAR
STARTCHAR n
ENCODING 110
SWIDTH 505 0
DWIDTH 6 0
BBX 7 6 0 0
BITMAP
78
D8
D8
D8
DA
9C
ENDCHAR
STARTCHAR o
ENCODING 111
SWIDTH 439 0
DWIDTH 5 0
BBX 7 6 0 0
BITMAP
70
4A
DC
D0
D0
E0
ENDCHAR
STARTCHAR p
ENCODING 112
SWIDTH 468 0
DWIDTH 6 0
BBX 6 10 -1 -3
BITMAP
30
3C
64
64
6C
6C
78
C0
C0
C0
ENDCHAR
STARTCHAR q
ENCODING 113
SWIDTH 486 0
DWIDTH 6 0
BBX 6 9 0 -3
BITMAP
7C
48
C8
D8
D8
F8
10
30
30
ENDCHAR
STARTCHAR r
ENCODING 114
SWIDTH 376 0
DWIDTH 5 0
BBX 5 6 0 0
BITMAP
78
D0
C0
C0
C0
80
ENDCHAR
STARTCHAR s
ENCODING 115
SWIDTH 382 0
DWIDTH 5 0
BBX 5 6 0 0
BITMAP
30
70
70
B0
B8
E0
ENDCHAR
STARTCHAR t
ENCODING 116
SWIDTH 267 0
DWIDTH 3 0
BBX 4 8 0 0
BITMAP
60
60
E0
40
C0
C0
D0
E0
ENDCHAR
STARTCHAR u
ENCODING 117
SWIDTH 505 0
DWIDTH 6 0
BBX 7 6 0 0
BITMAP
6C
D8
D8
D8
DA
FC
ENDCHAR
STARTCHAR v
ENCODING 118
SWIDTH 414 0
DWIDTH 5 0
BBX 5 6 0 0
BITMAP
78
C8
C8
D0
D0
E0
ENDCHAR
STARTCHAR w
ENCODING 119
SWIDTH 661 0
DWIDTH 8 0
BBX 8 6 0 0
BITMAP
6F
D9
D9
DA
DA
FC
ENDCHAR
STARTCHAR x
ENCODING 120
SWIDTH 522 0
DWIDTH 6 0
BBX 7 6 0 0
BITMAP
34
54
98
90
3A
DC
ENDCHAR
STARTCHAR y
ENCODING 121
SWIDTH 486 0
DWIDTH 6 0
BBX 6 9 0 -3
BITMAP
6C
D8
D8
D8
DC
F8
70
B0
60
ENDCHAR
STARTCHAR z
ENCODING 122
SWIDTH 428 0
DWIDTH 5 0
BBX 5 6 0 0
BITMAP
78
50
30
60
68
F0
ENDCHAR
STARTCHAR braceleft
ENCODING 123
SWIDTH 352 0
DWIDTH 4 0
BBX 4 12 1 -3
BITMAP
30
60
40
40
40
40
80
C0
80
80
80
C0
ENDCHAR
STARTCHAR bar
ENCODING 124
SWIDTH 532 0
DWIDTH 6 0
BBX 1 12 3 -3
BITMAP
80
80
80
80
80
80
80
80
80
80
80
80
ENDCHAR
STARTCHAR braceright
ENCODING 125
SWIDTH 352 0
DWIDTH 4 0
BBX 4 12 -1 -3
BITMAP
30
10
10
10
10
30
10
20
20
20
20
C0
ENDCHAR
STARTCHAR asciitilde
ENCODING 126
SWIDTH 431 0
DWIDTH 5 0
BBX 4 2 1 7
BITMAP
40
F0
ENDCHAR
STARTCHAR uni00A0
ENCODING 160
SWIDTH 217 0
DWIDTH 3 0
BBX 1 1 0 0
BITMAP
00
ENDCHAR
STARTCHAR exclamdown
ENCODING 161
SWIDTH 219 0
DWIDTH 3 0
BBX 4 9 -1 -3
BITMAP
30
30
00
20
20
60
40
40
C0
ENDCHAR
STARTCHAR cent
ENCODING 162
SWIDTH 384 0
DWIDTH 5 0
BBX 5 9 0 -1
BITMAP
10
38
58
E0
E0
E0
70
40
40
ENDCHAR
STARTCHAR sterling
ENCODING 163
SWIDTH 455 0
DWIDTH 5 0
BBX 6 9 0 0
BITMAP
1C
34
30
20
F8
60
60
64
FC
ENDCHAR
STARTCHAR currency
ENCODING 164
SWIDTH 500 0
DWIDTH 6 0
BBX 4 4 1 2
BITMAP
F0
90
90
F0
ENDCHAR
STARTCHAR yen
ENCODING 165
SWIDTH 558 0
DWIDTH 7 0
BBX 6 9 1 0
BITMAP
C4
68
68
70
70
F8
60
F8
60
ENDCHAR
STARTCHAR brokenbar
ENCODING 166
SWIDTH 532 0
DWIDTH 6 0
BBX 1 12 3 -3
BITMAP
80
80
80
80
80
00
80
80
80
80
80
80
ENDCHAR
STARTCHAR section
ENCODING 167
SWIDTH 542 0
DWIDTH 7 0
BBX 6 10 0 -1
BITMAP
1C
34
30
58
6C
34
14
D8
98
70
ENDCHAR
STARTCHAR dieresis
ENCODING 168
SWIDTH 392 0
DWIDTH 5 0
BBX 3 1 1 7
BITMAP
A0
ENDCHAR
STARTCHAR copyright
ENCODING 169
SWIDTH 587 0
DWIDTH 7 0
BBX 5 7 1 1
BITMAP
70
88
B8
D8
C8
B8
70
ENDCHAR
STARTCHAR ordfeminine
ENCODING 170
SWIDTH 345 0
DWIDTH 4 0
BBX 3 4 1 5
BITMAP
E0
A0
C0
E0
ENDCHAR
STARTCHAR guillemotleft
ENCODING 171
SWIDTH 589 0
DWIDTH 7 0
BBX 7 4 0 1
BITMAP
36
D8
58
24
ENDCHAR
STARTCHAR logicalnot
ENCODING 172
SWIDTH 444 0
DWIDTH 5 0
BBX 5 3 0 1
BITMAP
F8
10
10
ENDCHAR
STARTCHAR uni00AD
ENCODING 173
SWIDTH 290 0
DWIDTH 3 0
BBX 3 1 0 3
BITMAP
E0
ENDCHAR
STARTCHAR registered
ENCODING 174
SWIDTH 553 0
DWIDTH 7 0
BBX 6 7 0 1
BITMAP
38
44
BC
B4
AC
44
38
ENDCHAR
STARTCHAR macron
ENCODING 175
SWIDTH 446 0
DWIDTH 5 0
BBX 4 1 1 7
BITMAP
F0
ENDCHAR
STARTCHAR degree
ENCODING 176
SWIDTH 314 0
DWIDTH 4 0
BBX 3 4 0 4
BITMAP
60
60
A0
40
ENDCHAR
STARTCHAR plusminus
ENCODING 177
SWIDTH 479 0
DWIDTH 6 0
BBX 5 6 0 1
BITMAP
10
10
78
20
20
F8
ENDCHAR
STARTCHAR uni00B2
ENCODING 178
SWIDTH 328 0
DWIDTH 4 0
BBX 3 5 1 4
BITMAP
E0
A0
40
80
E0
ENDCHAR
STARTCHAR uni00B3
ENCODING 179
SWIDTH 336 0
DWIDTH 4 0
BBX 3 5 1 4
BITMAP
E0
A0
40
A0
C0
ENDCHAR
STARTCHAR acute
ENCODING 180
SWIDTH 316 0
DWIDTH 4 0
BBX 3 2 1 7
BITMAP
60
C0
ENDCHAR
STARTCHAR uni00B5
ENCODING 181
SWIDTH 505 0
DWIDTH 6 0
BBX 8 8 -1 -2
BITMAP
36
6C
6C
6C
6D
7E
C0
C0
ENDCHAR
STARTCHAR paragraph
ENCODING 182
SWIDTH 542 0
DWIDTH 7 0
BBX 5 10 1 -1
BITMAP
70
F8
E8
E8
E8
70
70
50
50
70
ENDCHAR
STARTCHAR periodcentered
ENCODING 183
SWIDTH 434 0
DWIDTH 5 0
BBX 3 2 1 2
BITMAP
E0
60
ENDCHAR
STARTCHAR cedilla
ENCODING 184
SWIDTH 227 0
DWIDTH 3 0
BBX 3 3 0 -3
BITMAP
40
60
C0
ENDCHAR
STARTCHAR uni00B9
ENCODING 185
SWIDTH 229 0
DWIDTH 3 0
BBX 2 6 1 3
BITMAP
40
80
80
80
80
80
ENDCHAR
STARTCHAR ordmasculine
ENCODING 186
SWIDTH 329 0
DWIDTH 4 0
BBX 4 4 0 5
BITMAP
60
70
A0
40
ENDCHAR
STARTCHAR guillemotright
ENCODING 187
SWIDTH 586 0
DWIDTH 7 0
BBX 7 4 0 1
BITMAP
48
36
6C
90
ENDCHAR
STARTCHAR onequarter
ENCODING 188
SWIDTH 749 0
DWIDTH 9 0
BBX 8 9 1 0
BITMAP
44
88
88
90
95
A6
2F
42
C2
ENDCHAR
STARTCHAR onehalf
ENCODING 189
SWIDTH 745 0
DWIDTH 9 0
BBX 8 9 1 0
BITMAP
44
88
88
90
97
A5
22
44
C7
ENDCHAR
STARTCHAR threequarters
ENCODING 190
SWIDTH 836 0
DWIDTH 10 0
BBX 9 9 1 0
BITMAP
E200
A400
4400
A800
CA80
1280
1780
2100
6100
ENDCHAR
STARTCHAR questiondown
ENCODING 191
SWIDTH 439 0
DWIDTH 5 0
BBX 4 9 0 -3
BITMAP
10
10
00
10
20
40
D0
D0
F0
ENDCHAR
STARTCHAR Agrave
ENCODING 192
SWIDTH 668 0
DWIDTH 8 0
BBX 8 13 0 -1
BITMAP
02
02
00
03
0F
0B
7F
F2
26
26
66
66
60
ENDCHAR
STARTCHAR Aacute
ENCODING 193
SWIDTH 668 0
DWIDTH 8 0
BBX 9 13 0 -1
BITMAP
0080
0100
0100
0300
0F00
0B00
7F00
F200
2600
2600
6600
6600
6000
ENDCHAR
STARTCHAR Acircumflex
ENCODING 194
SWIDTH 668 0
DWIDTH 8 0
BBX 9 13 0 -1
BITMAP
0080
0180
0680
0300
0F00
0B00
7F00
F200
2600
2600
6600
6600
6000
ENDCHAR
STARTCHAR Atilde
ENCODING 195
SWIDTH 668 0
DWIDTH 8 0
BBX 10 12 0 -1
BITMAP
07C0
0100
0300
0F00
0B00
7F00
F200
2600
2600
6600
6600
6000
ENDCHAR
STARTCHAR Adieresis
ENCODING 196
SWIDTH 668 0
DWIDTH 8 0
BBX 9 12 0 -1
BITMAP
0680
0000
0300
0F00
0B00
7F00
F200
2600
2600
6600
6600
6000
ENDCHAR
STARTCHAR Aring
ENCODING 197
SWIDTH 668 0
DWIDTH 8 0
BBX 8 13 0 -1
BITMAP
01
03
01
03
0F
0B
7F
F2
26
26
66
66
60
ENDCHAR
STARTCHAR AE
ENCODING 198
SWIDTH 764 0
DWIDTH 9 0
BBX 11 10 0 -1
BITMAP
0320
0FC0
0B00
7B00
F780
E600
2600
6600
6780
6000
ENDCHAR
STARTCHAR Ccedilla
ENCODING 199
SWIDTH 497 0
DWIDTH 6 0
BBX 6 12 0 -3
BITMAP
1C
34
64
60
C0
C0
C0
E4
78
20
10
30
ENDCHAR
STARTCHAR Egrave
ENCODING 200
SWIDTH 459 0
DWIDTH 6 0
BBX 6 12 0 0
BITMAP
10
08
00
1C
24
2C
20
70
60
C0
C4
78
ENDCHAR
STARTCHAR Eacute
ENCODING 201
SWIDTH 459 0
DWIDTH 6 0
BBX 6 12 0 0
BITMAP
04
08
00
1C
24
2C
20
70
60
C0
C4
78
ENDCHAR
STARTCHAR Ecircumflex
ENCODING 202
SWIDTH 459 0
DWIDTH 6 0
BBX 6 12 0 0
BITMAP
08
34
00
1C
24
2C
20
70
60
C0
C4
78
ENDCHAR
STARTCHAR Edieresis
ENCODING 203
SWIDTH 459 0
DWIDTH 6 0
BBX 6 11 0 0
BITMAP
14
00
1C
24
2C
20
70
60
C0
C4
78
ENDCHAR
STARTCHAR Igrave
ENCODING 204
SWIDTH 375 0
DWIDTH 5 0
BBX 5 12 0 0
BITMAP
10
10
00
38
50
90
B0
30
30
20
60
60
ENDCHAR
STARTCHAR Iacute
ENCODING 205
SWIDTH 375 0
DWIDTH 5 0
BBX 6 12 0 0
BITMAP
0C
08
10
38
50
90
B0
30
30
20
60
60
ENDCHAR
STARTCHAR Icircumflex
ENCODING 206
SWIDTH 375 0
DWIDTH 5 0
BBX 6 12 0 0
BITMAP
08
18
24
38
50
90
B0
30
30
20
60
60
ENDCHAR
STARTCHAR Idieresis
ENCODING 207
SWIDTH 375 0
DWIDTH 5 0
BBX 6 11 0 0
BITMAP
3C
00
38
50
90
B0
30
30
20
60
60
ENDCHAR
STARTCHAR Eth
ENCODING 208
SWIDTH 663 0
DWIDTH 8 0
BBX 8 9 0 0
BITMAP
3C
52
93
B3
3B
32
26
66
7C
ENDCHAR
STARTCHAR Ntilde
ENCODING 209
SWIDTH 686 0
DWIDTH 8 0
BBX 9 11 0 0
BITMAP
0F80
0000
3980
5900
9900
B900
6D00
2E00
2E00
6600
4600
ENDCHAR
STARTCHAR Ograve
ENCODING 210
SWIDTH 665 0
DWIDTH 8 0
BBX 8 12 0 0
BITMAP
08
08
00
3E
4B
D3
B3
23
62
66
64
38
ENDCHAR
STARTCHAR Oacute
ENCODING 211
SWIDTH 665 0
DWIDTH 8 0
BBX 8 12 0 0
BITMAP
02
04
04
3E
4B
D3
B3
23
62
66
64
38
ENDCHAR
STARTCHAR Ocircumflex
ENCODING 212
SWIDTH 665 0
DWIDTH 8 0
BBX 8 12 0 0
BITMAP
04
0C
12
3E
4B
D3
B3
23
62
66
64
38
ENDCHAR
STARTCHAR Otilde
ENCODING 213
SWIDTH 665 0
DWIDTH 8 0
BBX 8 11 0 0
BITMAP
0F
12
3E
4B
D3
B3
23
62
66
64
38
ENDCHAR
STARTCHAR Odieresis
ENCODING 214
SWIDTH 665 0
DWIDTH 8 0
BBX 8 11 0 0
BITMAP
1A
00
3E
4B
D3
B3
23
62
66
64
38
ENDCHAR
STARTCHAR multiply
ENCODING 215
SWIDTH 414 0
DWIDTH 5 0
BBX 4 4 0 2
BITMAP
D0
70
70
50
ENDCHAR
STARTCHAR Oslash
ENCODING 216
SWIDTH 658 0
DWIDTH 8 0
BBX 8 10 0 -1
BITMAP
04
3E
56
BB
AB
6A
6E
74
3C
10
ENDCHAR
STARTCHAR Ugrave
ENCODING 217
SWIDTH 716 0
DWIDTH 9 0
BBX 9 12 0 0
BITMAP
0400
0400
0000
3980
5980
9180
B100
3300
3300
2300
3600
3C00
ENDCHAR
STARTCHAR Uacute
ENCODING 218
SWIDTH 716 0
DWIDTH 9 0
BBX 9 12 0 0
BITMAP
0300
0200
0400
3980
5980
9180
B100
3300
3300
2300
3600
3C00
ENDCHAR
STARTCHAR Ucircumflex
ENCODING 219
SWIDTH 716 0
DWIDTH 9 0
BBX 9 12 0 0
BITMAP
0200
0700
0900
3980
5980
9180
B100
3300
3300
2300
3600
3C00
ENDCHAR
STARTCHAR Udieresis
ENCODING 220
SWIDTH 716 0
DWIDTH 9 0
BBX 9 11 0 0
BITMAP
0500
0000
3980
5980
9180
B100
3300
3300
2300
3600
3C00
ENDCHAR
STARTCHAR Yacute
ENCODING 221
SWIDTH 620 0
DWIDTH 7 0
BBX 8 12 0 0
BITMAP
01
02
02
39
59
9A
8E
0C
0C
0C
0C
18
ENDCHAR
STARTCHAR Thorn
ENCODING 222
SWIDTH 583 0
DWIDTH 7 0
BBX 7 9 0 0
BITMAP
18
3C
72
B2
B2
34
38
60
60
ENDCHAR
STARTCHAR germandbls
ENCODING 223
SWIDTH 480 0
DWIDTH 6 0
BBX 6 11 -1 -3
BITMAP
1C
34
34
28
6C
64
64
5C
40
C0
C0
ENDCHAR
STARTCHAR agrave
ENCODING 224
SWIDTH 526 0
DWIDTH 6 0
BBX 7 9 0 0
BITMAP
10
10
00
7C
48
C8
D8
DA
FC
ENDCHAR
STARTCHAR aacute
ENCODING 225
SWIDTH 526 0
DWIDTH 6 0
BBX 7 9 0 0
BITMAP
08
10
00
7C
48
C8
D8
DA
FC
ENDCHAR
STARTCHAR acircumflex
ENCODING 226
SWIDTH 526 0
DWIDTH 6 0
BBX 7 9 0 0
BITMAP
08
18
20
7C
48
C8
D8
DA
FC
ENDCHAR
STARTCHAR atilde
ENCODING 227
SWIDTH 526 0
DWIDTH 6 0
BBX 7 8 0 0
BITMAP
3C
40
7C
48
C8
D8
DA
FC
ENDCHAR
STARTCHAR adieresis
ENCODING 228
SWIDTH 526 0
DWIDTH 6 0
BBX 7 8 0 0
BITMAP
3C
00
7C
48
C8
D8
DA
FC
ENDCHAR
STARTCHAR aring
ENCODING 229
SWIDTH 526 0
DWIDTH 6 0
BBX 7 8 0 0
BITMAP
18
18
7C
48
C8
D8
DA
FC
ENDCHAR
STARTCHAR ae
ENCODING 230
SWIDTH 650 0
DWIDTH 8 0
BBX 8 6 0 0
BITMAP
7E
1D
7A
DC
D9
FE
ENDCHAR
STARTCHAR ccedilla
ENCODING 231
SWIDTH 384 0
DWIDTH 5 0
BBX 5 9 0 -3
BITMAP
70
50
C0
C0
C8
F0
20
10
60
ENDCHAR
STARTCHAR egrave
ENCODING 232
SWIDTH 384 0
DWIDTH 5 0
BBX 5 9 0 0
BITMAP
20
20
10
70
50
D0
E0
C8
F0
ENDCHAR
STARTCHAR eacute
ENCODING 233
SWIDTH 384 0
DWIDTH 5 0
BBX 5 9 0 0
BITMAP
08
10
00
70
50
D0
E0
C8
F0
ENDCHAR
STARTCHAR ecircumflex
ENCODING 234
SWIDTH 384 0
DWIDTH 5 0
BBX 5 9 0 0
BITMAP
10
28
40
70
50
D0
E0
C8
F0
ENDCHAR
STARTCHAR edieresis
ENCODING 235
SWIDTH 384 0
DWIDTH 5 0
BBX 5 8 0 0
BITMAP
68
00
70
50
D0
E0
C8
F0
ENDCHAR
STARTCHAR igrave
ENCODING 236
SWIDTH 267 0
DWIDTH 3 0
BBX 4 9 0 0
BITMAP
40
40
00
60
C0
C0
C0
D0
E0
ENDCHAR
STARTCHAR iacute
ENCODING 237
SWIDTH 267 0
DWIDTH 3 0
BBX 4 9 0 0
BITMAP
30
20
40
60
C0
C0
C0
D0
E0
ENDCHAR
STARTCHAR icircumflex
ENCODING 238
SWIDTH 267 0
DWIDTH 3 0
BBX 4 9 0 0
BITMAP
20
60
90
60
C0
C0
C0
D0
E0
ENDCHAR
STARTCHAR idieresis
ENCODING 239
SWIDTH 267 0
DWIDTH 3 0
BBX 4 8 0 0
BITMAP
F0
00
60
C0
C0
C0
D0
E0
ENDCHAR
STARTCHAR eth
ENCODING 240
SWIDTH 526 0
DWIDTH 6 0
BBX 7 9 0 0
BITMAP
18
3E
0C
7C
4C
C8
D8
DA
FC
ENDCHAR
STARTCHAR ntilde
ENCODING 241
SWIDTH 505 0
DWIDTH 6 0
BBX 7 8 0 0
BITMAP
7C
00
78
D8
D8
D8
DA
9C
ENDCHAR
STARTCHAR ograve
ENCODING 242
SWIDTH 433 0
DWIDTH 5 0
BBX 7 9 0 0
BITMAP
20
10
00
70
4A
DC
D0
D0
E0
ENDCHAR
STARTCHAR oacute
ENCODING 243
SWIDTH 439 0
DWIDTH 5 0
BBX 7 9 0 0
BITMAP
08
10
00
70
4A
DC
D0
D0
E0
ENDCHAR
STARTCHAR ocircumflex
ENCODING 244
SWIDTH 433 0
DWIDTH 5 0
BBX 7 9 0 0
BITMAP
10
28
40
70
4A
DC
D0
D0
E0
ENDCHAR
STARTCHAR otilde
ENCODING 245
SWIDTH 433 0
DWIDTH 5 0
BBX 7 8 0 0
BITMAP
78
80
70
4A
DC
D0
D0
E0
ENDCHAR
STARTCHAR odieresis
ENCODING 246
SWIDTH 433 0
DWIDTH 5 0
BBX 7 8 0 0
BITMAP
78
00
70
4A
DC
D0
D0
E0
ENDCHAR
STARTCHAR divide
ENCODING 247
SWIDTH 415 0
DWIDTH 5 0
BBX 5 6 0 1
BITMAP
30
30
F8
00
20
60
ENDCHAR
STARTCHAR oslash
ENCODING 248
SWIDTH 428 0
DWIDTH 5 0
BBX 7 6 -1 0
BITMAP
1E
24
6C
78
68
F0
ENDCHAR
STARTCHAR ugrave
ENCODING 249
SWIDTH 505 0
DWIDTH 6 0
BBX 7 9 0 0
BITMAP
30
10
00
6C
D8
D8
D8
DA
FC
ENDCHAR
STARTCHAR uacute
ENCODING 250
SWIDTH 505 0
DWIDTH 6 0
BBX 7 9 0 0
BITMAP
08
10
00
6C
D8
D8
D8
DA
FC
ENDCHAR
STARTCHAR ucircumflex
ENCODING 251
SWIDTH 505 0
DWIDTH 6 0
BBX 7 9 0 0
BITMAP
10
38
00
6C
D8
D8
D8
DA
FC
ENDCHAR
STARTCHAR udieresis
ENCODING 252
SWIDTH 505 0
DWIDTH 6 0
BBX 7 8 0 0
BITMAP
28
00
6C
D8
D8
D8
DA
FC
ENDCHAR
STARTCHAR yacute
ENCODING 253
SWIDTH 505 0
DWIDTH 6 0
BBX 6 12 0 -3
BITMAP
08
10
00
6C
D8
D8
D8
DC
F8
70
B0
60
ENDCHAR
STARTCHAR thorn
ENCODING 254
SWIDTH 473 0
DWIDTH 6 0
BBX 6 12 -1 -3
BITMAP
30
30
30
3C
24
64
6C
6C
78
C0
C0
C0
ENDCHAR
STARTCHAR ydieresis
ENCODING 255
SWIDTH 505 0
DWIDTH 6 0
BBX 6 11 0 -3
BITMAP
68
00
6C
D8
D8
D8
DC
F8
70
B0
60
ENDCHAR
STARTCHAR Amacron
ENCODING 256
SWIDTH 668 0
DWIDTH 8 0
BBX 9 12 0 -1
BITMAP
0780
0000
0300
0F00
0B00
7F00
F200
2600
2600
6600
6600
6000
ENDCHAR
STARTCHAR amacron
ENCODING 257
SWIDTH 526 0
DWIDTH 6 0
BBX 7 8 0 0
BITMAP
3C
00
7C
48
C8
D8
DA
FC
ENDCHAR
STARTCHAR Abreve
ENCODING 258
SWIDTH 668 0
DWIDTH 8 0
BBX 10 12 0 -1
BITMAP
0240
0380
0300
0F00
0B00
7F00
F200
2600
2600
6600
6600
6000
ENDCHAR
STARTCHAR abreve
ENCODING 259
SWIDTH 526 0
DWIDTH 6 0
BBX 7 9 0 0
BITMAP
24
38
00
7C
48
C8
D8
DA
FC
ENDCHAR
STARTCHAR Aogonek
ENCODING 260
SWIDTH 668 0
DWIDTH 8 0
BBX 8 11 0 -2
BITMAP
03
0F
0B
7F
F2
26
26
66
66
68
0E
ENDCHAR
STARTCHAR aogonek
ENCODING 261
SWIDTH 526 0
DWIDTH 6 0
BBX 7 8 0 -2
BITMAP
7C
48
C8
D8
DA
FC
08
1C
ENDCHAR
STARTCHAR Cacute
ENCODING 262
SWIDTH 497 0
DWIDTH 6 0
BBX 6 12 0 0
BITMAP
04
0C
08
1C
34
64
60
C0
C0
C0
C4
78
ENDCHAR
STARTCHAR cacute
ENCODING 263
SWIDTH 384 0
DWIDTH 5 0
BBX 5 9 0 0
BITMAP
08
10
00
70
50
C0
C0
C8
F0
ENDCHAR
STARTCHAR Ccircumflex
ENCODING 264
SWIDTH 497 0
DWIDTH 6 0
BBX 6 12 0 0
BITMAP
08
1C
24
1C
34
64
60
C0
C0
C0
C4
78
ENDCHAR
STARTCHAR ccircumflex
ENCODING 265
SWIDTH 384 0
DWIDTH 5 0
BBX 5 9 0 0
BITMAP
10
28
40
70
50
C0
C0
C8
F0
ENDCHAR
STARTCHAR Cdotaccent
ENCODING 266
SWIDTH 497 0
DWIDTH 6 0
BBX 6 12 0 0
BITMAP
04
0C
00
1C
34
64
60
C0
C0
C0
C4
78
ENDCHAR
STARTCHAR cdotaccent
ENCODING 267
SWIDTH 384 0
DWIDTH 5 0
BBX 5 9 0 0
BITMAP
18
10
00
70
50
C0
C0
C8
F0
ENDCHAR
STARTCHAR Ccaron
ENCODING 268
SWIDTH 497 0
DWIDTH 6 0
BBX 7 12 0 0
BITMAP
12
0C
08
1C
34
64
60
C0
C0
C0
C4
78
ENDCHAR
STARTCHAR ccaron
ENCODING 269
SWIDTH 384 0
DWIDTH 5 0
BBX 6 9 0 0
BITMAP
2C
10
00
70
50
C0
C0
C8
F0
ENDCHAR
STARTCHAR Dcaron
ENCODING 270
SWIDTH 663 0
DWIDTH 8 0
BBX 8 12 0 0
BITMAP
0A
0C
08
3C
4A
93
B3
33
32
26
66
7C
ENDCHAR
STARTCHAR dcaron
ENCODING 271
SWIDTH 525 0
DWIDTH 6 0
BBX 8 9 0 0
BITMAP
01
0D
0D
7C
48
C8
D8
DA
FC
ENDCHAR
STARTCHAR Dcroat
ENCODING 272
SWIDTH 663 0
DWIDTH 8 0
BBX 8 9 0 0
BITMAP
3C
52
93
B3
3B
32
26
66
7C
ENDCHAR
STARTCHAR dcroat
ENCODING 273
SWIDTH 525 0
DWIDTH 6 0
BBX 7 8 0 0
BITMAP
0C
1E
7C
4C
C8
D8
DA
FC
ENDCHAR
STARTCHAR Emacron
ENCODING 274
SWIDTH 459 0
DWIDTH 6 0
BBX 7 11 0 0
BITMAP
1E
00
1C
24
2C
20
70
60
C0
C4
78
ENDCHAR
STARTCHAR emacron
ENCODING 275
SWIDTH 384 0
DWIDTH 5 0
BBX 5 8 0 0
BITMAP
78
00
70
50
D0
E0
C8
F0
ENDCHAR
STARTCHAR Ebreve
ENCODING 276
SWIDTH 459 0
DWIDTH 6 0
BBX 7 12 0 0
BITMAP
12
1C
00
1C
24
2C
20
70
60
C0
C4
78
ENDCHAR
STARTCHAR ebreve
ENCODING 277
SWIDTH 384 0
DWIDTH 5 0
BBX 5 9 0 0
BITMAP
48
30
00
70
50
D0
E0
C8
F0
ENDCHAR
STARTCHAR Edotaccent
ENCODING 278
SWIDTH 459 0
DWIDTH 6 0
BBX 6 12 0 0
BITMAP
0C
0C
00
1C
24
2C
20
70
60
C0
C4
78
ENDCHAR
STARTCHAR edotaccent
ENCODING 279
SWIDTH 384 0
DWIDTH 5 0
BBX 5 9 0 0
BITMAP
10
10
00
70
50
D0
E0
C8
F0
ENDCHAR
STARTCHAR Eogonek
ENCODING 280
SWIDTH 459 0
DWIDTH 6 0
BBX 6 11 0 -2
BITMAP
38
64
6C
20
70
C0
C0
E4
78
10
18
ENDCHAR
STARTCHAR eogonek
ENCODING 281
SWIDTH 384 0
DWIDTH 5 0
BBX 5 8 0 -2
BITMAP
70
50
D0
E0
C8
F0
20
70
ENDCHAR
STARTCHAR Ecaron
ENCODING 282
SWIDTH 459 0
DWIDTH 6 0
BBX 7 12 0 0
BITMAP
0E
08
00
1C
24
2C
20
70
60
C0
C4
78
ENDCHAR
STARTCHAR ecaron
ENCODING 283
SWIDTH 384 0
DWIDTH 5 0
BBX 6 9 0 0
BITMAP
2C
10
00
70
50
D0
E0
C8
F0
ENDCHAR
STARTCHAR Gcircumflex
ENCODING 284
SWIDTH 578 0
DWIDTH 7 0
BBX 7 14 0 -2
BITMAP
04
0C
12
1C
62
66
C0
C6
C4
4C
7C
28
48
70
ENDCHAR
STARTCHAR gcircumflex
ENCODING 285
SWIDTH 507 0
DWIDTH 6 0
BBX 7 12 0 -3
BITMAP
08
18
20
7C
48
C8
D8
DA
FC
30
70
70
ENDCHAR
STARTCHAR Gbreve
ENCODING 286
SWIDTH 578 0
DWIDTH 7 0
BBX 8 14 0 -2
BITMAP
11
0E
00
1C
62
66
C0
C6
C4
4C
7C
28
48
70
ENDCHAR
STARTCHAR gbreve
ENCODING 287
SWIDTH 507 0
DWIDTH 6 0
BBX 7 12 0 -3
BITMAP
24
38
00
7C
48
C8
D8
DA
FC
30
70
70
ENDCHAR
STARTCHAR Gdotaccent
ENCODING 288
SWIDTH 578 0
DWIDTH 7 0
BBX 7 14 0 -2
BITMAP
0C
0C
00
1C
62
66
C0
C6
C4
4C
7C
28
48
70
ENDCHAR
STARTCHAR gdotaccent
ENCODING 289
SWIDTH 507 0
DWIDTH 6 0
BBX 7 12 0 -3
BITMAP
18
18
00
7C
48
C8
D8
DA
FC
30
70
70
ENDCHAR
STARTCHAR Gcommaaccent
ENCODING 290
SWIDTH 578 0
DWIDTH 7 0
BBX 6 12 0 -3
BITMAP
1C
24
64
C0
C0
C4
C4
CC
7C
10
30
20
ENDCHAR
STARTCHAR gcommaaccent
ENCODING 291
SWIDTH 507 0
DWIDTH 6 0
BBX 7 12 0 -3
BITMAP
10
10
00
7C
48
C8
D8
DA
FC
30
70
70
ENDCHAR
STARTCHAR Hcircumflex
ENCODING 292
SWIDTH 665 0
DWIDTH 8 0
BBX 8 12 0 0
BITMAP
02
06
09
3B
7B
D3
B3
BE
32
36
26
66
ENDCHAR
STARTCHAR hcircumflex
ENCODING 293
SWIDTH 505 0
DWIDTH 6 0
BBX 7 11 0 0
BITMAP
10
30
C8
60
60
78
58
D8
D8
DA
9C
ENDCHAR
STARTCHAR Hbar
ENCODING 294
SWIDTH 665 0
DWIDTH 8 0
BBX 9 9 0 0
BITMAP
3B00
5B00
BF80
B300
BE00
3200
3600
2600
6600
ENDCHAR
STARTCHAR hbar
ENCODING 295
SWIDTH 505 0
DWIDTH 6 0
BBX 7 8 0 0
BITMAP
60
F0
78
58
D8
D8
DA
9C
ENDCHAR
STARTCHAR Itilde
ENCODING 296
SWIDTH 375 0
DWIDTH 5 0
BBX 6 11 0 0
BITMAP
3C
08
38
50
90
B0
30
30
20
60
60
ENDCHAR
STARTCHAR itilde
ENCODING 297
SWIDTH 267 0
DWIDTH 3 0
BBX 4 8 0 0
BITMAP
F0
00
60
C0
C0
C0
D0
E0
ENDCHAR
STARTCHAR Imacron
ENCODING 298
SWIDTH 375 0
DWIDTH 5 0
BBX 6 11 0 0
BITMAP
3C
00
38
50
90
B0
30
30
20
60
60
ENDCHAR
STARTCHAR imacron
ENCODING 299
SWIDTH 267 0
DWIDTH 3 0
BBX 4 8 0 0
BITMAP
F0
00
60
C0
C0
C0
D0
E0
ENDCHAR
STARTCHAR Ibreve
ENCODING 300
SWIDTH 375 0
DWIDTH 5 0
BBX 6 11 0 0
BITMAP
24
18
38
50
90
B0
30
30
20
60
60
ENDCHAR
STARTCHAR ibreve
ENCODING 301
SWIDTH 267 0
DWIDTH 3 0
BBX 4 9 0 0
BITMAP
90
60
00
60
C0
C0
C0
D0
E0
ENDCHAR
STARTCHAR Iogonek
ENCODING 302
SWIDTH 375 0
DWIDTH 5 0
BBX 5 15 0 -3
BITMAP
20
10
00
38
50
90
B0
30
30
20
60
60
40
40
60
ENDCHAR
STARTCHAR iogonek
ENCODING 303
SWIDTH 267 0
DWIDTH 3 0
BBX 5 11 -1 -3
BITMAP
30
30
20
60
60
60
68
70
40
C0
60
ENDCHAR
STARTCHAR Idotaccent
ENCODING 304
SWIDTH 375 0
DWIDTH 5 0
BBX 5 12 0 0
BITMAP
08
18
00
38
50
90
B0
30
30
20
60
60
ENDCHAR
STARTCHAR dotlessi
ENCODING 305
SWIDTH 267 0
DWIDTH 3 0
BBX 4 6 0 0
BITMAP
60
C0
C0
C0
D0
E0
ENDCHAR
STARTCHAR IJ
ENCODING 306
SWIDTH 663 0
DWIDTH 8 0
BBX 8 11 0 -2
BITMAP
3B
53
93
B2
36
36
26
64
7C
4C
38
ENDCHAR
STARTCHAR ij
ENCODING 307
SWIDTH 507 0
DWIDTH 6 0
BBX 7 11 0 -3
BITMAP
6C
6C
4C
C8
C8
D8
FA
DC
30
70
70
ENDCHAR
STARTCHAR Jcircumflex
ENCODING 308
SWIDTH 536 0
DWIDTH 6 0
BBX 8 14 0 -2
BITMAP
02
06
09
0E
16
34
2C
1C
0C
08
18
78
98
70
ENDCHAR
STARTCHAR jcircumflex
ENCODING 309
SWIDTH 240 0
DWIDTH 3 0
BBX 5 12 -2 -3
BITMAP
08
38
00
18
10
30
30
38
38
E0
E0
C0
ENDCHAR
STARTCHAR Kcommaaccent
ENCODING 310
SWIDTH 601 0
DWIDTH 7 0
BBX 8 12 0 -3
BITMAP
3B
52
94
B8
BC
36
24
6C
6C
10
10
10
ENDCHAR
STARTCHAR kcommaaccent
ENCODING 311
SWIDTH 518 0
DWIDTH 6 0
BBX 7 11 0 -3
BITMAP
60
60
4C
50
F8
D8
DA
9C
20
20
40
ENDCHAR
STARTCHAR kgreenlandic
ENCODING 312
SWIDTH 518 0
DWIDTH 6 0
BBX 7 6 0 0
BITMAP
6C
D0
F8
D8
DA
9C
ENDCHAR
STARTCHAR Lacute
ENCODING 313
SWIDTH 379 0
DWIDTH 5 0
BBX 8 15 0 -3
BITMAP
04
08
08
38
50
90
B0
30
30
20
60
60
18
0F
06
ENDCHAR
STARTCHAR lacute
ENCODING 314
SWIDTH 267 0
DWIDTH 3 0
BBX 4 11 0 0
BITMAP
10
20
00
60
60
40
40
C0
C0
D0
E0
ENDCHAR
STARTCHAR Lcommaaccent
ENCODING 315
SWIDTH 379 0
DWIDTH 5 0
BBX 8 12 0 -3
BITMAP
38
50
90
B0
30
30
20
60
60
18
4F
47
ENDCHAR
STARTCHAR lcommaaccent
ENCODING 316
SWIDTH 267 0
DWIDTH 3 0
BBX 4 11 0 -3
BITMAP
60
60
40
40
C0
C0
D0
E0
80
80
80
ENDCHAR
STARTCHAR Lcaron
ENCODING 317
SWIDTH 379 0
DWIDTH 5 0
BBX 8 15 0 -3
BITMAP
12
0C
08
38
50
90
B0
30
30
20
60
60
18
0F
06
ENDCHAR
STARTCHAR lcaron
ENCODING 318
SWIDTH 267 0
DWIDTH 3 0
BBX 5 9 0 0
BITMAP
18
68
70
40
40
C0
C0
D0
E0
ENDCHAR
STARTCHAR Ldot
ENCODING 319
SWIDTH 605 0
DWIDTH 7 0
BBX 8 12 0 -3
BITMAP
38
50
90
B0
30
36
26
60
60
18
0F
06
ENDCHAR
STARTCHAR ldot
ENCODING 320
SWIDTH 353 0
DWIDTH 4 0
BBX 4 9 0 0
BITMAP
20
60
60
40
D0
D0
C0
C0
E0
ENDCHAR
STARTCHAR Lslash
ENCODING 321
SWIDTH 392 0
DWIDTH 5 0
BBX 8 12 0 -3
BITMAP
38
50
94
B8
30
70
20
60
60
18
0F
06
ENDCHAR
STARTCHAR lslash
ENCODING 322
SWIDTH 286 0
DWIDTH 3 0
BBX 4 8 0 0
BITMAP
60
60
70
40
C0
C0
D0
E0
ENDCHAR
STARTCHAR Nacute
ENCODING 323
SWIDTH 702 0
DWIDTH 8 0
BBX 9 12 0 0
BITMAP
0100
0200
0200
3980
5900
9900
B900
6D00
2E00
2E00
6600
4600
ENDCHAR
STARTCHAR nacute
ENCODING 324
SWIDTH 505 0
DWIDTH 6 0
BBX 7 9 0 0
BITMAP
0C
18
00
78
D8
D8
D8
DA
9C
ENDCHAR
STARTCHAR Ncommaaccent
ENCODING 325
SWIDTH 668 0
DWIDTH 8 0
BBX 9 12 0 -3
BITMAP
3980
5900
9900
B900
6D00
2E00
2E00
6600
4600
1000
1000
1000
ENDCHAR
STARTCHAR ncommaaccent
ENCODING 326
SWIDTH 505 0
DWIDTH 6 0
BBX 7 9 0 -3
BITMAP
78
D8
D8
D8
DA
9C
40
20
40
ENDCHAR
STARTCHAR Ncaron
ENCODING 327
SWIDTH 668 0
DWIDTH 8 0
BBX 9 12 0 0
BITMAP
0580
0200
0200
3980
5900
9900
B900
6D00
2E00
2E00
6600
4600
ENDCHAR
STARTCHAR ncaron
ENCODING 328
SWIDTH 505 0
DWIDTH 6 0
BBX 7 9 0 0
BITMAP
2C
10
00
78
D8
D8
D8
DA
9C
ENDCHAR
STARTCHAR napostrophe
ENCODING 329
SWIDTH 505 0
DWIDTH 6 0
BBX 7 9 0 0
BITMAP
C0
40
80
78
D8
D8
D8
DA
9C
ENDCHAR
STARTCHAR Eng
ENCODING 330
SWIDTH 723 0
DWIDTH 9 0
BBX 8 11 1 -2
BITMAP
71
B9
B9
BA
2A
6A
4E
4C
44
24
38
ENDCHAR
STARTCHAR eng
ENCODING 331
SWIDTH 505 0
DWIDTH 6 0
BBX 5 9 0 -3
BITMAP
78
D8
D8
D8
D8
90
70
B0
60
ENDCHAR
STARTCHAR Omacron
ENCODING 332
SWIDTH 665 0
DWIDTH 8 0
BBX 8 11 0 0
BITMAP
1E
00
3E
4B
D3
B3
23
62
66
64
38
ENDCHAR
STARTCHAR omacron
ENCODING 333
SWIDTH 433 0
DWIDTH 5 0
BBX 7 8 0 0
BITMAP
78
00
70
4A
DC
D0
D0
E0
ENDCHAR
STARTCHAR Obreve
ENCODING 334
SWIDTH 665 0
DWIDTH 8 0
BBX 8 12 0 0
BITMAP
09
0E
00
3E
4B
D3
B3
23
62
66
64
38
ENDCHAR
STARTCHAR obreve
ENCODING 335
SWIDTH 433 0
DWIDTH 5 0
BBX 7 9 0 0
BITMAP
4C
30
00
70
4A
DC
D0
D0
E0
ENDCHAR
STARTCHAR Ohungarumlaut
ENCODING 336
SWIDTH 665 0
DWIDTH 8 0
BBX 9 12 0 0
BITMAP
0780
0500
0A00
3E00
4B00
D300
B300
2300
6200
6600
6400
3800
ENDCHAR
STARTCHAR ohungarumlaut
ENCODING 337
SWIDTH 433 0
DWIDTH 5 0
BBX 7 9 0 0
BITMAP
1C
28
00
70
4A
DC
D0
D0
E0
ENDCHAR
STARTCHAR OE
ENCODING 338
SWIDTH 846 0
DWIDTH 10 0
BBX 11 9 0 0
BITMAP
3FE0
5300
F300
B300
2380
6200
6600
6400
3F80
ENDCHAR
STARTCHAR oe
ENCODING 339
SWIDTH 663 0
DWIDTH 8 0
BBX 9 6 0 0
BITMAP
7700
4D00
D900
DE80
D900
EE00
ENDCHAR
STARTCHAR Racute
ENCODING 340
SWIDTH 601 0
DWIDTH 7 0
BBX 7 12 0 0
BITMAP
06
0C
00
3C
5A
92
B4
BC
36
24
6C
6C
ENDCHAR
STARTCHAR racute
ENCODING 341
SWIDTH 376 0
DWIDTH 5 0
BBX 5 9 0 0
BITMAP
18
10
20
78
D0
C0
C0
C0
80
ENDCHAR
STARTCHAR Rcommaaccent
ENCODING 342
SWIDTH 601 0
DWIDTH 7 0
BBX 7 12 0 -3
BITMAP
3C
5A
92
B4
BC
36
24
6C
6C
10
10
10
ENDCHAR
STARTCHAR rcommaaccent
ENCODING 343
SWIDTH 376 0
DWIDTH 5 0
BBX 5 9 0 -3
BITMAP
78
D0
C0
C0
C0
80
40
40
80
ENDCHAR
STARTCHAR Rcaron
ENCODING 344
SWIDTH 601 0
DWIDTH 7 0
BBX 8 12 0 0
BITMAP
0B
04
00
3C
5A
92
B4
BC
36
24
6C
6C
ENDCHAR
STARTCHAR rcaron
ENCODING 345
SWIDTH 376 0
DWIDTH 5 0
BBX 5 9 0 0
BITMAP
58
20
00
78
D0
C0
C0
C0
80
ENDCHAR
STARTCHAR Sacute
ENCODING 346
SWIDTH 570 0
DWIDTH 7 0
BBX 7 12 0 0
BITMAP
06
0C
00
1C
36
34
30
18
6C
CC
CC
78
ENDCHAR
STARTCHAR sacute
ENCODING 347
SWIDTH 382 0
DWIDTH 5 0
BBX 5 9 0 0
BITMAP
18
10
00
30
70
70
B0
B8
E0
ENDCHAR
STARTCHAR Scircumflex
ENCODING 348
SWIDTH 570 0
DWIDTH 7 0
BBX 7 12 0 0
BITMAP
04
1C
02
1C
36
34
30
18
6C
CC
CC
78
ENDCHAR
STARTCHAR scircumflex
ENCODING 349
SWIDTH 382 0
DWIDTH 5 0
BBX 5 9 0 0
BITMAP
10
70
00
30
70
70
B0
B8
E0
ENDCHAR
STARTCHAR Scedilla
ENCODING 350
SWIDTH 570 0
DWIDTH 7 0
BBX 7 12 0 -3
BITMAP
1C
36
34
30
18
6C
CC
CC
78
30
10
30
ENDCHAR
STARTCHAR scedilla
ENCODING 351
SWIDTH 382 0
DWIDTH 5 0
BBX 5 9 0 -3
BITMAP
30
70
70
B0
B8
A0
40
60
C0
ENDCHAR
STARTCHAR Scaron
ENCODING 352
SWIDTH 570 0
DWIDTH 7 0
BBX 8 12 0 0
BITMAP
0B
04
00
1C
36
34
30
18
6C
CC
CC
78
ENDCHAR
STARTCHAR scaron
ENCODING 353
SWIDTH 369 0
DWIDTH 4 0
BBX 5 9 0 0
BITMAP
28
30
00
30
70
B0
B0
B8
E0
ENDCHAR
STARTCHAR uni0162
ENCODING 354
SWIDTH 481 0
DWIDTH 6 0
BBX 9 12 0 -3
BITMAP
3C80
5F00
9800
9800
1800
1000
3000
3000
3000
2000
1000
3000
ENDCHAR
STARTCHAR uni0163
ENCODING 355
SWIDTH 267 0
DWIDTH 3 0
BBX 4 11 0 -3
BITMAP
60
60
E0
40
C0
C0
D0
E0
80
40
C0
ENDCHAR
STARTCHAR Tcaron
ENCODING 356
SWIDTH 481 0
DWIDTH 6 0
BBX 9 12 0 0
BITMAP
0A00
0C00
0800
3C80
5F00
9800
9800
1800
1000
3000
3000
3000
ENDCHAR
STARTCHAR tcaron
ENCODING 357
SWIDTH 267 0
DWIDTH 3 0
BBX 5 9 0 0
BITMAP
18
68
60
E0
40
C0
C0
D0
E0
ENDCHAR
STARTCHAR Tbar
ENCODING 358
SWIDTH 481 0
DWIDTH 6 0
BBX 9 9 0 0
BITMAP
3C80
5B00
9800
9800
1800
7C00
3000
3000
3000
ENDCHAR
STARTCHAR tbar
ENCODING 359
SWIDTH 267 0
DWIDTH 3 0
BBX 4 8 0 0
BITMAP
60
60
E0
E0
C0
C0
D0
E0
ENDCHAR
STARTCHAR Utilde
ENCODING 360
SWIDTH 716 0
DWIDTH 9 0
BBX 9 11 0 0
BITMAP
0F80
0200
3980
5980
9180
B100
3300
3300
2300
3600
3C00
ENDCHAR
STARTCHAR utilde
ENCODING 361
SWIDTH 505 0
DWIDTH 6 0
BBX 7 8 0 0
BITMAP
7C
00
6C
D8
D8
D8
DA
FC
ENDCHAR
STARTCHAR Umacron
ENCODING 362
SWIDTH 716 0
DWIDTH 9 0
BBX 9 11 0 0
BITMAP
0F00
0000
3980
5980
9180
B100
3300
3300
2300
3600
3C00
ENDCHAR
STARTCHAR umacron
ENCODING 363
SWIDTH 505 0
DWIDTH 6 0
BBX 7 8 0 0
BITMAP
78
00
6C
D8
D8
D8
DA
FC
ENDCHAR
STARTCHAR Ubreve
ENCODING 364
SWIDTH 716 0
DWIDTH 9 0
BBX 9 12 0 0
BITMAP
0C80
0700
0000
3980
5980
9180
B100
3300
3300
2300
3600
3C00
ENDCHAR
STARTCHAR ubreve
ENCODING 365
SWIDTH 505 0
DWIDTH 6 0
BBX 7 9 0 0
BITMAP
64
38
00
6C
D8
D8
D8
DA
FC
ENDCHAR
STARTCHAR Uring
ENCODING 366
SWIDTH 716 0
DWIDTH 9 0
BBX 9 12 0 0
BITMAP
0200
0500
0200
3980
5980
9180
B100
3300
3300
2300
3600
3C00
ENDCHAR
STARTCHAR uring
ENCODING 367
SWIDTH 505 0
DWIDTH 6 0
BBX 7 8 0 0
BITMAP
10
30
6C
D8
D8
D8
DA
FC
ENDCHAR
STARTCHAR Uhungarumlaut
ENCODING 368
SWIDTH 716 0
DWIDTH 9 0
BBX 9 12 0 0
BITMAP
0280
0500
0000
3980
5980
9180
B100
3300
3300
2300
3600
3C00
ENDCHAR
STARTCHAR uhungarumlaut
ENCODING 369
SWIDTH 505 0
DWIDTH 6 0
BBX 7 9 0 0
BITMAP
14
28
00
6C
D8
D8
D8
DA
FC
ENDCHAR
STARTCHAR Uogonek
ENCODING 370
SWIDTH 716 0
DWIDTH 9 0
BBX 9 15 0 -3
BITMAP
0400
0400
0000
3980
5980
9180
B100
3300
3300
2300
2200
3C00
1000
1400
1800
ENDCHAR
STARTCHAR uogonek
ENCODING 371
SWIDTH 505 0
DWIDTH 6 0
BBX 7 9 0 -3
BITMAP
6C
D8
D8
D8
DA
FC
10
14
18
ENDCHAR
STARTCHAR Wcircumflex
ENCODING 372
SWIDTH 962 0
DWIDTH 12 0
BBX 12 12 0 0
BITMAP
0080
01C0
0240
3990
5990
9990
9BA0
1BA0
1DA0
1DC0
19C0
1980
ENDCHAR
STARTCHAR wcircumflex
ENCODING 373
SWIDTH 661 0
DWIDTH 8 0
BBX 8 9 0 0
BITMAP
04
1C
00
6F
D9
D9
DA
DA
FC
ENDCHAR
STARTCHAR Ycircumflex
ENCODING 374
SWIDTH 620 0
DWIDTH 7 0
BBX 8 12 0 0
BITMAP
02
06
09
39
59
9A
8E
0C
0C
0C
0C
18
ENDCHAR
STARTCHAR ycircumflex
ENCODING 375
SWIDTH 505 0
DWIDTH 6 0
BBX 6 12 0 -3
BITMAP
10
38
40
6C
D8
D8
D8
DC
F8
70
B0
60
ENDCHAR
STARTCHAR Ydieresis
ENCODING 376
SWIDTH 620 0
DWIDTH 7 0
BBX 8 11 0 0
BITMAP
05
00
39
59
9A
8E
0C
0C
0C
0C
18
ENDCHAR
STARTCHAR Zacute
ENCODING 377
SWIDTH 542 0
DWIDTH 7 0
BBX 7 12 0 0
BITMAP
06
04
08
7E
4C
18
18
30
30
60
64
FC
ENDCHAR
STARTCHAR zacute
ENCODING 378
SWIDTH 428 0
DWIDTH 5 0
BBX 5 9 0 0
BITMAP
08
10
00
78
50
30
60
68
F0
ENDCHAR
STARTCHAR Zdotaccent
ENCODING 379
SWIDTH 530 0
DWIDTH 6 0
BBX 7 11 0 0
BITMAP
08
00
7E
4C
18
18
30
30
60
64
FC
ENDCHAR
STARTCHAR zdotaccent
ENCODING 380
SWIDTH 428 0
DWIDTH 5 0
BBX 5 8 0 0
BITMAP
10
00
78
50
30
60
68
F0
ENDCHAR
STARTCHAR Zcaron
ENCODING 381
SWIDTH 542 0
DWIDTH 7 0
BBX 7 12 0 0
BITMAP
0A
0C
08
7E
4C
18
18
30
30
60
64
FC
ENDCHAR
STARTCHAR zcaron
ENCODING 382
SWIDTH 428 0
DWIDTH 5 0
BBX 6 9 0 0
BITMAP
2C
10
00
78
50
30
60
68
F0
ENDCHAR
STARTCHAR longs
ENCODING 383
SWIDTH 267 0
DWIDTH 3 0
BBX 8 12 -3 -3
BITMAP
06
0D
0C
18
08
18
18
18
10
70
B0
60
ENDCHAR
STARTCHAR uni018F
ENCODING 399
SWIDTH 544 0
DWIDTH 7 0
BBX 6 9 0 0
BITMAP
38
4C
0C
04
1C
6C
CC
D8
70
ENDCHAR
STARTCHAR florin
ENCODING 402
SWIDTH 267 0
DWIDTH 3 0
BBX 8 12 -3 -3
BITMAP
03
05
0C
1E
08
18
18
18
10
30
A0
E0
ENDCHAR
STARTCHAR Ohorn
ENCODING 416
SWIDTH 665 0
DWIDTH 8 0
BBX 9 11 0 0
BITMAP
0180
0080
3F00
4B00
D300
B300
2300
6200
6600
6400
3800
ENDCHAR
STARTCHAR ohorn
ENCODING 417
SWIDTH 439 0
DWIDTH 5 0
BBX 6 8 0 0
BITMAP
04
04
38
48
C8
D0
D0
E0
ENDCHAR
STARTCHAR Uhorn
ENCODING 431
SWIDTH 716 0
DWIDTH 9 0
BBX 10 11 0 0
BITMAP
0040
0040
3980
5980
9180
B100
3300
3300
2300
3600
3C00
ENDCHAR
STARTCHAR uhorn
ENCODING 432
SWIDTH 505 0
DWIDTH 6 0
BBX 7 8 0 0
BITMAP
06
04
68
D8
D8
D8
DA
FC
ENDCHAR
STARTCHAR uni01B7
ENCODING 439
SWIDTH 555 0
DWIDTH 7 0
BBX 7 9 0 0
BITMAP
7E
6C
18
30
1C
0C
4C
8C
78
ENDCHAR
STARTCHAR uni01CD
ENCODING 461
SWIDTH 668 0
DWIDTH 8 0
BBX 10 13 0 -1
BITMAP
0140
0180
0100
0300
0F00
0B00
7F00
F200
2600
2600
6600
6600
6000
ENDCHAR
STARTCHAR uni01CE
ENCODING 462
SWIDTH 526 0
DWIDTH 6 0
BBX 7 9 0 0
BITMAP
14
18
00
7C
48
C8
D8
DA
FC
ENDCHAR
STARTCHAR uni01CF
ENCODING 463
SWIDTH 375 0
DWIDTH 5 0
BBX 7 12 0 0
BITMAP
16
08
08
38
50
90
B0
30
30
20
60
60
ENDCHAR
STARTCHAR uni01D0
ENCODING 464
SWIDTH 267 0
DWIDTH 3 0
BBX 4 9 0 0
BITMAP
50
60
00
60
C0
C0
C0
D0
E0
ENDCHAR
STARTCHAR uni01D1
ENCODING 465
SWIDTH 665 0
DWIDTH 8 0
BBX 8 12 0 0
BITMAP
05
06
04
3E
4B
D3
B3
23
62
66
64
38
ENDCHAR
STARTCHAR uni01D2
ENCODING 466
SWIDTH 433 0
DWIDTH 5 0
BBX 7 9 0 0
BITMAP
2C
10
00
70
5E
D8
D0
D0
E0
ENDCHAR
STARTCHAR uni01D3
ENCODING 467
SWIDTH 716 0
DWIDTH 9 0
BBX 9 12 0 0
BITMAP
0480
0300
0200
3980
5980
9180
B100
3300
3300
2300
3600
3C00
ENDCHAR
STARTCHAR uni01D4
ENCODING 468
SWIDTH 505 0
DWIDTH 6 0
BBX 7 9 0 0
BITMAP
2C
10
00
6C
D8
D8
D8
DA
FC
ENDCHAR
STARTCHAR uni01D5
ENCODING 469
SWIDTH 716 0
DWIDTH 9 0
BBX 9 12 0 0
BITMAP
0780
0580
0000
3980
5980
9180
B100
3300
3300
2300
3600
3C00
ENDCHAR
STARTCHAR uni01D6
ENCODING 470
SWIDTH 505 0
DWIDTH 6 0
BBX 7 10 0 0
BITMAP
3C
00
28
00
6C
D8
D8
D8
DA
FC
ENDCHAR
STARTCHAR uni01D7
ENCODING 471
SWIDTH 716 0
DWIDTH 9 0
BBX 9 12 0 0
BITMAP
0300
0A80
0000
3980
5980
9180
B100
3300
3300
2300
3600
3C00
ENDCHAR
STARTCHAR uni01D8
ENCODING 472
SWIDTH 505 0
DWIDTH 6 0
BBX 7 11 0 0
BITMAP
08
10
00
28
00
6C
D8
D8
D8
DA
FC
ENDCHAR
STARTCHAR uni01D9
ENCODING 473
SWIDTH 716 0
DWIDTH 9 0
BBX 9 12 0 0
BITMAP
0500
0A80
0000
3980
5980
9180
B100
3300
3300
2300
3600
3C00
ENDCHAR
STARTCHAR uni01DA
ENCODING 474
SWIDTH 505 0
DWIDTH 6 0
BBX 7 11 0 0
BITMAP
14
18
10
28
00
6C
D8
D8
D8
DA
FC
ENDCHAR
STARTCHAR uni01DB
ENCODING 475
SWIDTH 716 0
DWIDTH 9 0
BBX 9 12 0 0
BITMAP
0200
0A80
0000
3980
5980
9180
B100
3300
3300
2300
3600
3C00
ENDCHAR
STARTCHAR uni01DC
ENCODING 476
SWIDTH 505 0
DWIDTH 6 0
BBX 7 11 0 0
BITMAP
30
10
00
28
00
6C
D8
D8
D8
DA
FC
ENDCHAR
STARTCHAR uni01E4
ENCODING 484
SWIDTH 601 0
DWIDTH 7 0
BBX 7 11 0 -2
BITMAP
1C
62
64
C6
DE
C4
4C
7C
28
48
70
ENDCHAR
STARTCHAR uni01E5
ENCODING 485
SWIDTH 507 0
DWIDTH 6 0
BBX 7 9 0 -3
BITMAP
7C
48
C8
D8
DA
FC
30
F8
70
ENDCHAR
STARTCHAR Gcaron
ENCODING 486
SWIDTH 578 0
DWIDTH 7 0
BBX 8 14 0 -2
BITMAP
0B
04
04
1C
62
66
C0
C6
C4
4C
7C
28
48
70
ENDCHAR
STARTCHAR gcaron
ENCODING 487
SWIDTH 507 0
DWIDTH 6 0
BBX 7 12 0 -3
BITMAP
14
18
00
7C
48
C8
D8
DA
FC
30
70
70
ENDCHAR
STARTCHAR uni01E8
ENCODING 488
SWIDTH 601 0
DWIDTH 7 0
BBX 9 12 0 0
BITMAP
0580
0200
0000
3B00
5200
9400
B800
BC00
3600
2400
6C00
6C00
ENDCHAR
STARTCHAR uni01E9
ENCODING 489
SWIDTH 518 0
DWIDTH 6 0
BBX 7 11 0 0
BITMAP
16
08
00
60
60
4C
50
F8
D8
DA
9C
ENDCHAR
STARTCHAR uni01EA
ENCODING 490
SWIDTH 665 0
DWIDTH 8 0
BBX 8 15 0 -3
BITMAP
18
08
00
3E
4B
D3
B3
23
62
66
64
38
20
20
38
ENDCHAR
STARTCHAR uni01EB
ENCODING 491
SWIDTH 433 0
DWIDTH 5 0
BBX 7 9 0 -3
BITMAP
70
4A
DC
D0
D0
E0
80
80
E0
ENDCHAR
STARTCHAR uni01EE
ENCODING 494
SWIDTH 525 0
DWIDTH 6 0
BBX 7 12 0 0
BITMAP
16
08
00
7E
6C
18
30
1C
0C
4C
8C
78
ENDCHAR
STARTCHAR uni01EF
ENCODING 495
SWIDTH 600 0
DWIDTH 7 0
BBX 6 12 0 -3
BITMAP
2C
10
00
78
B0
20
60
24
38
70
A0
E0
ENDCHAR
STARTCHAR uni01F4
ENCODING 500
SWIDTH 578 0
DWIDTH 7 0
BBX 7 14 0 -2
BITMAP
06
04
08
1C
62
66
C0
C6
C4
4C
7C
28
48
70
ENDCHAR
STARTCHAR uni01F5
ENCODING 501
SWIDTH 507 0
DWIDTH 6 0
BBX 7 12 0 -3
BITMAP
08
10
00
7C
48
C8
D8
DA
FC
30
70
70
ENDCHAR
STARTCHAR Aringacute
ENCODING 506
SWIDTH 668 0
DWIDTH 8 0
BBX 9 13 0 -1
BITMAP
0080
0100
0280
0700
0B00
0B00
7F00
F200
2600
2600
6600
6600
6000
ENDCHAR
STARTCHAR aringacute
ENCODING 507
SWIDTH 526 0
DWIDTH 6 0
BBX 7 10 0 0
BITMAP
08
08
18
10
7C
48
C8
D8
DA
FC
ENDCHAR
STARTCHAR AEacute
ENCODING 508
SWIDTH 764 0
DWIDTH 9 0
BBX 11 13 0 -1
BITMAP
00C0
0080
0100
0320
0FC0
0B00
7B00
F780
E600
2600
6600
6780
6000
ENDCHAR
STARTCHAR aeacute
ENCODING 509
SWIDTH 650 0
DWIDTH 8 0
BBX 8 9 0 0
BITMAP
06
04
00
7E
1D
7A
DC
D9
FE
ENDCHAR
STARTCHAR Oslashacute
ENCODING 510
SWIDTH 658 0
DWIDTH 8 0
BBX 8 13 0 -1
BITMAP
03
02
04
04
3E
56
BB
AB
6A
6E
74
3C
10
ENDCHAR
STARTCHAR oslashacute
ENCODING 511
SWIDTH 428 0
DWIDTH 5 0
BBX 7 9 -1 0
BITMAP
04
08
00
1E
24
6C
78
68
F0
ENDCHAR
STARTCHAR uni0200
ENCODING 512
SWIDTH 668 0
DWIDTH 8 0
BBX 9 13 0 -1
BITMAP
0F00
0500
0280
0300
0F00
0B00
7F00
F200
2600
2600
6600
6600
6000
ENDCHAR
STARTCHAR uni0201
ENCODING 513
SWIDTH 526 0
DWIDTH 6 0
BBX 7 9 0 0
BITMAP
50
28
00
7C
48
C8
D8
DA
FC
ENDCHAR
STARTCHAR uni0202
ENCODING 514
SWIDTH 668 0
DWIDTH 8 0
BBX 10 12 0 -1
BITMAP
0380
0640
0300
0F00
0B00
7F00
F200
2600
2600
6600
6600
6000
ENDCHAR
STARTCHAR uni0203
ENCODING 515
SWIDTH 526 0
DWIDTH 6 0
BBX 7 8 0 0
BITMAP
38
24
7C
48
C8
D8
DA
FC
ENDCHAR
STARTCHAR uni0204
ENCODING 516
SWIDTH 459 0
DWIDTH 6 0
BBX 6 12 0 0
BITMAP
78
28
14
1C
24
2C
20
70
60
C0
C4
78
ENDCHAR
STARTCHAR uni0205
ENCODING 517
SWIDTH 384 0
DWIDTH 5 0
BBX 5 9 0 0
BITMAP
F0
50
00
70
50
D0
E0
C8
F0
ENDCHAR
STARTCHAR uni0206
ENCODING 518
SWIDTH 459 0
DWIDTH 6 0
BBX 7 12 0 0
BITMAP
1C
32
00
1C
24
2C
20
70
60
C0
C4
78
ENDCHAR
STARTCHAR uni0207
ENCODING 519
SWIDTH 384 0
DWIDTH 5 0
BBX 5 8 0 0
BITMAP
78
48
70
50
D0
E0
C8
F0
ENDCHAR
STARTCHAR uni0208
ENCODING 520
SWIDTH 375 0
DWIDTH 5 0
BBX 5 12 0 0
BITMAP
50
28
00
38
50
B0
B0
30
30
20
60
60
ENDCHAR
STARTCHAR uni0209
ENCODING 521
SWIDTH 267 0
DWIDTH 3 0
BBX 5 9 -1 0
BITMAP
A0
50
00
30
60
60
60
68
70
ENDCHAR
STARTCHAR uni020A
ENCODING 522
SWIDTH 375 0
DWIDTH 5 0
BBX 6 11 0 0
BITMAP
18
24
38
50
90
B0
30
30
20
60
60
ENDCHAR
STARTCHAR uni020B
ENCODING 523
SWIDTH 267 0
DWIDTH 3 0
BBX 4 8 0 0
BITMAP
60
90
60
C0
C0
C0
D0
E0
ENDCHAR
STARTCHAR uni020C
ENCODING 524
SWIDTH 665 0
DWIDTH 8 0
BBX 8 12 0 0
BITMAP
3C
14
0A
3E
4B
D3
B3
23
62
66
64
38
ENDCHAR
STARTCHAR uni020D
ENCODING 525
SWIDTH 433 0
DWIDTH 5 0
BBX 7 9 0 0
BITMAP
F0
50
00
70
5E
D8
D0
D0
E0
ENDCHAR
STARTCHAR uni020E
ENCODING 526
SWIDTH 665 0
DWIDTH 8 0
BBX 8 12 0 0
BITMAP
06
19
00
3E
4B
D3
B3
23
62
66
64
38
ENDCHAR
STARTCHAR uni020F
ENCODING 527
SWIDTH 433 0
DWIDTH 5 0
BBX 7 8 0 0
BITMAP
38
48
70
4A
DC
D0
D0
E0
ENDCHAR
STARTCHAR uni0210
ENCODING 528
SWIDTH 601 0
DWIDTH 7 0
BBX 7 12 0 0
BITMAP
78
3C
00
3C
5A
92
B4
BC
36
24
6C
6C
ENDCHAR
STARTCHAR uni0211
ENCODING 529
SWIDTH 376 0
DWIDTH 5 0
BBX 5 9 0 0
BITMAP
A0
50
00
78
D0
C0
C0
C0
80
ENDCHAR
STARTCHAR uni0212
ENCODING 530
SWIDTH 601 0
DWIDTH 7 0
BBX 7 12 0 0
BITMAP
1C
32
00
3C
5A
92
B4
BC
36
24
6C
6C
ENDCHAR
STARTCHAR uni0213
ENCODING 531
SWIDTH 376 0
DWIDTH 5 0
BBX 5 8 0 0
BITMAP
78
48
78
D0
C0
C0
C0
80
ENDCHAR
STARTCHAR uni0214
ENCODING 532
SWIDTH 716 0
DWIDTH 9 0
BBX 9 12 0 0
BITMAP
1E00
0A00
0500
3980
5980
9180
B100
3300
3300
2300
3600
3C00
ENDCHAR
STARTCHAR uni0215
ENCODING 533
SWIDTH 505 0
DWIDTH 6 0
BBX 7 9 0 0
BITMAP
F0
50
28
6C
D8
D8
D8
DA
FC
ENDCHAR
STARTCHAR uni0216
ENCODING 534
SWIDTH 716 0
DWIDTH 9 0
BBX 9 12 0 0
BITMAP
0700
0980
0000
3980
5980
9180
B100
3300
3300
2300
3600
3C00
ENDCHAR
STARTCHAR uni0217
ENCODING 535
SWIDTH 505 0
DWIDTH 6 0
BBX 7 8 0 0
BITMAP
38
48
6C
D8
D8
D8
DA
FC
ENDCHAR
STARTCHAR Scommaaccent
ENCODING 536
SWIDTH 570 0
DWIDTH 7 0
BBX 7 12 0 -3
BITMAP
1C
36
34
30
18
6C
CC
CC
78
20
20
20
ENDCHAR
STARTCHAR scommaaccent
ENCODING 537
SWIDTH 382 0
DWIDTH 5 0
BBX 5 9 0 -3
BITMAP
30
70
70
B0
B8
E0
40
40
80
ENDCHAR
STARTCHAR uni021A
ENCODING 538
SWIDTH 481 0
DWIDTH 6 0
BBX 9 12 0 -3
BITMAP
3C80
5F00
9800
9800
1800
1000
3000
3000
3000
2000
2000
2000
ENDCHAR
STARTCHAR uni021B
ENCODING 539
SWIDTH 267 0
DWIDTH 3 0
BBX 4 11 0 -3
BITMAP
60
60
E0
40
C0
C0
D0
E0
80
80
80
ENDCHAR
STARTCHAR uni021E
ENCODING 542
SWIDTH 665 0
DWIDTH 8 0
BBX 9 12 0 0
BITMAP
0580
0200
0000
3B00
7B00
D300
B300
BE00
3200
3600
2600
6600
ENDCHAR
STARTCHAR uni021F
ENCODING 543
SWIDTH 600 0
DWIDTH 7 0
BBX 7 11 0 0
BITMAP
16
08
00
60
60
78
58
D8
D8
DA
9C
ENDCHAR
STARTCHAR uni0237
ENCODING 567
SWIDTH 240 0
DWIDTH 3 0
BBX 5 9 -2 -3
BITMAP
18
10
30
30
38
38
E0
E0
C0
ENDCHAR
STARTCHAR uni0259
ENCODING 601
SWIDTH 404 0
DWIDTH 5 0
BBX 5 6 0 0
BITMAP
70
18
78
90
B0
E0
ENDCHAR
STARTCHAR uni0292
ENCODING 658
SWIDTH 442 0
DWIDTH 5 0
BBX 6 9 0 -3
BITMAP
78
B0
20
60
24
38
70
A0
E0
ENDCHAR
STARTCHAR uni02BB
ENCODING 699
SWIDTH 241 0
DWIDTH 3 0
BBX 2 3 1 6
BITMAP
40
40
C0
ENDCHAR
STARTCHAR uni02BC
ENCODING 700
SWIDTH 228 0
DWIDTH 3 0
BBX 1 3 2 6
BITMAP
80
80
80
ENDCHAR
STARTCHAR circumflex
ENCODING 710
SWIDTH 293 0
DWIDTH 4 0
BBX 4 2 0 7
BITMAP
20
D0
ENDCHAR
STARTCHAR caron
ENCODING 711
SWIDTH 294 0
DWIDTH 4 0
BBX 4 2 1 7
BITMAP
B0
40
ENDCHAR
STARTCHAR uni02C9
ENCODING 713
SWIDTH 421 0
DWIDTH 5 0
BBX 5 1 1 7
BITMAP
F8
ENDCHAR
STARTCHAR uni02CA
ENCODING 714
SWIDTH 256 0
DWIDTH 3 0
BBX 3 2 1 7
BITMAP
60
C0
ENDCHAR
STARTCHAR uni02CB
ENCODING 715
SWIDTH 274 0
DWIDTH 3 0
BBX 1 2 2 7
BITMAP
80
80
ENDCHAR
STARTCHAR breve
ENCODING 728
SWIDTH 431 0
DWIDTH 5 0
BBX 4 2 1 6
BITMAP
90
E0
ENDCHAR
STARTCHAR dotaccent
ENCODING 729
SWIDTH 250 0
DWIDTH 3 0
BBX 2 2 1 7
BITMAP
80
C0
ENDCHAR
STARTCHAR ring
ENCODING 730
SWIDTH 156 0
DWIDTH 2 0
BBX 2 2 0 6
BITMAP
C0
C0
ENDCHAR
STARTCHAR ogonek
ENCODING 731
SWIDTH 291 0
DWIDTH 3 0
BBX 2 3 1 -3
BITMAP
80
80
C0
ENDCHAR
STARTCHAR tilde
ENCODING 732
SWIDTH 403 0
DWIDTH 5 0
BBX 5 2 0 7
BITMAP
20
F8
ENDCHAR
STARTCHAR hungarumlaut
ENCODING 733
SWIDTH 436 0
DWIDTH 5 0
BBX 4 2 1 7
BITMAP
50
A0
ENDCHAR
STARTCHAR gravecomb
ENCODING 768
SWIDTH 0 0
DWIDTH 0 0
BBX 1 2 -2 7
BITMAP
80
80
ENDCHAR
STARTCHAR acutecomb
ENCODING 769
SWIDTH 0 0
DWIDTH 0 0
BBX 2 2 -2 7
BITMAP
C0
80
ENDCHAR
STARTCHAR uni0302
ENCODING 770
SWIDTH 0 0
DWIDTH 0 0
BBX 3 2 -3 7
BITMAP
20
E0
ENDCHAR
STARTCHAR tildecomb
ENCODING 771
SWIDTH 0 0
DWIDTH 0 0
BBX 4 2 -4 7
BITMAP
40
F0
ENDCHAR
STARTCHAR uni0304
ENCODING 772
SWIDTH 0 0
DWIDTH 0 0
BBX 4 1 -4 7
BITMAP
F0
ENDCHAR
STARTCHAR uni0306
ENCODING 774
SWIDTH 0 0
DWIDTH 0 0
BBX 5 2 -4 6
BITMAP
98
60
ENDCHAR
STARTCHAR uni0307
ENCODING 775
SWIDTH 0 0
DWIDTH 0 0
BBX 1 2 -1 7
BITMAP
80
80
ENDCHAR
STARTCHAR uni0308
ENCODING 776
SWIDTH 0 0
DWIDTH 0 0
BBX 3 1 -3 7
BITMAP
A0
ENDCHAR
STARTCHAR hookabovecomb
ENCODING 777
SWIDTH 0 0
DWIDTH 0 0
BBX 3 3 -3 7
BITMAP
C0
20
40
ENDCHAR
STARTCHAR uni030A
ENCODING 778
SWIDTH 0 0
DWIDTH 0 0
BBX 2 2 -2 6
BITMAP
40
C0
ENDCHAR
STARTCHAR uni030B
ENCODING 779
SWIDTH 0 0
DWIDTH 0 0
BBX 5 2 -4 7
BITMAP
78
E0
ENDCHAR
STARTCHAR uni030C
ENCODING 780
SWIDTH 0 0
DWIDTH 0 0
BBX 4 2 -3 7
BITMAP
B0
40
ENDCHAR
STARTCHAR uni030F
ENCODING 783
SWIDTH 0 0
DWIDTH 0 0
BBX 4 2 -4 7
BITMAP
E0
50
ENDCHAR
STARTCHAR uni0311
ENCODING 785
SWIDTH 0 0
DWIDTH 0 0
BBX 4 2 -4 6
BITMAP
70
90
ENDCHAR
STARTCHAR uni031B
ENCODING 795
SWIDTH 0 0
DWIDTH 0 0
BBX 1 3 -1 5
BITMAP
80
80
80
ENDCHAR
STARTCHAR dotbelowcomb
ENCODING 803
SWIDTH 0 0
DWIDTH 0 0
BBX 2 2 -2 -3
BITMAP
C0
C0
ENDCHAR
STARTCHAR uni0324
ENCODING 804
SWIDTH 0 0
DWIDTH 0 0
BBX 3 1 -5 -2
BITMAP
A0
ENDCHAR
STARTCHAR uni0326
ENCODING 806
SWIDTH 0 0
DWIDTH 0 0
BBX 1 2 -3 -3
BITMAP
80
80
ENDCHAR
STARTCHAR uni0327
ENCODING 807
SWIDTH 0 0
DWIDTH 0 0
BBX 2 3 -4 -3
BITMAP
80
C0
C0
ENDCHAR
STARTCHAR uni0328
ENCODING 808
SWIDTH 0 0
DWIDTH 0 0
BBX 2 3 -4 -3
BITMAP
C0
80
C0
ENDCHAR
STARTCHAR uni032E
ENCODING 814
SWIDTH 0 0
DWIDTH 0 0
BBX 4 2 -5 -2
BITMAP
90
E0
ENDCHAR
STARTCHAR uni0331
ENCODING 817
SWIDTH 0 0
DWIDTH 0 0
BBX 5 1 -6 -2
BITMAP
F8
ENDCHAR
STARTCHAR uni0335
ENCODING 821
SWIDTH 0 0
DWIDTH 0 0
BBX 5 1 -5 3
BITMAP
F8
ENDCHAR
STARTCHAR uni0394
ENCODING 916
SWIDTH 619 0
DWIDTH 7 0
BBX 7 9 0 0
BITMAP
04
0C
14
16
22
22
42
C2
FE
ENDCHAR
STARTCHAR uni03A9
ENCODING 937
SWIDTH 745 0
DWIDTH 9 0
BBX 8 9 0 0
BITMAP
0E
11
21
41
41
41
42
24
EF
ENDCHAR
STARTCHAR uni03BC
ENCODING 956
SWIDTH 505 0
DWIDTH 6 0
BBX 8 8 -1 -2
BITMAP
36
2C
6C
6C
6D
7E
C0
C0
ENDCHAR
STARTCHAR pi
ENCODING 960
SWIDTH 530 0
DWIDTH 6 0
BBX 6 6 0 0
BITMAP
FC
48
48
90
90
98
ENDCHAR
STARTCHAR uni0400
ENCODING 1024
SWIDTH 459 0
DWIDTH 6 0
BBX 6 12 0 0
BITMAP
18
08
00
1C
24
2C
20
70
60
C0
C4
78
ENDCHAR
STARTCHAR uni0401
ENCODING 1025
SWIDTH 459 0
DWIDTH 6 0
BBX 6 11 0 0
BITMAP
14
00
1C
24
2C
20
70
60
C0
C4
78
ENDCHAR
STARTCHAR uni0402
ENCODING 1026
SWIDTH 725 0
DWIDTH 9 0
BBX 9 11 0 -2
BITMAP
3F80
4800
9800
9800
9E00
1B00
3300
3200
3200
0600
1C00
ENDCHAR
STARTCHAR uni0403
ENCODING 1027
SWIDTH 400 0
DWIDTH 5 0
BBX 8 12 0 0
BITMAP
02
04
00
3F
D0
90
F0
30
30
20
20
60
ENDCHAR
STARTCHAR uni0404
ENCODING 1028
SWIDTH 497 0
DWIDTH 6 0
BBX 6 9 0 0
BITMAP
1C
24
60
78
C0
C0
C0
C4
78
ENDCHAR
STARTCHAR uni0405
ENCODING 1029
SWIDTH 570 0
DWIDTH 7 0
BBX 7 9 0 0
BITMAP
1C
36
34
30
18
6C
CC
CC
78
ENDCHAR
STARTCHAR uni0406
ENCODING 1030
SWIDTH 374 0
DWIDTH 4 0
BBX 5 9 0 0
BITMAP
38
58
90
B0
30
30
20
20
60
ENDCHAR
STARTCHAR uni0407
ENCODING 1031
SWIDTH 375 0
DWIDTH 5 0
BBX 6 11 0 0
BITMAP
3C
00
38
50
90
B0
30
30
20
60
60
ENDCHAR
STARTCHAR uni0408
ENCODING 1032
SWIDTH 536 0
DWIDTH 6 0
BBX 7 11 0 -2
BITMAP
0E
16
34
2C
1C
0C
08
18
78
98
70
ENDCHAR
STARTCHAR uni0409
ENCODING 1033
SWIDTH 817 0
DWIDTH 10 0
BBX 9 10 0 -1
BITMAP
0E00
1600
3400
2400
4F80
4C80
CC80
8980
9B00
8000
ENDCHAR
STARTCHAR uni040A
ENCODING 1034
SWIDTH 931 0
DWIDTH 11 0
BBX 11 9 0 0
BITMAP
3900
5B00
9300
B300
BFC0
3260
3660
2640
67C0
ENDCHAR
STARTCHAR uni040B
ENCODING 1035
SWIDTH 745 0
DWIDTH 9 0
BBX 9 9 0 0
BITMAP
3F80
C800
9800
9E00
1B00
1300
3300
3200
3300
ENDCHAR
STARTCHAR uni040C
ENCODING 1036
SWIDTH 635 0
DWIDTH 8 0
BBX 8 12 0 0
BITMAP
02
04
00
3B
5D
94
B8
7C
36
24
24
6C
ENDCHAR
STARTCHAR uni040D
ENCODING 1037
SWIDTH 705 0
DWIDTH 8 0
BBX 9 12 0 0
BITMAP
0400
0400
0000
3980
5B00
9300
B700
3700
3B00
3200
3600
6600
ENDCHAR
STARTCHAR uni040E
ENCODING 1038
SWIDTH 644 0
DWIDTH 8 0
BBX 9 11 0 0
BITMAP
0D00
0600
3980
5900
8900
8E00
0E00
0C00
0400
1800
3800
ENDCHAR
STARTCHAR uni040F
ENCODING 1039
SWIDTH 665 0
DWIDTH 8 0
BBX 8 13 0 -4
BITMAP
3B
5B
93
B3
32
36
26
26
7E
10
10
18
10
ENDCHAR
STARTCHAR uni0410
ENCODING 1040
SWIDTH 668 0
DWIDTH 8 0
BBX 8 10 0 -1
BITMAP
03
0F
0B
7F
F2
26
26
66
66
60
ENDCHAR
STARTCHAR uni0411
ENCODING 1041
SWIDTH 638 0
DWIDTH 8 0
BBX 8 9 0 0
BITMAP
3F
50
B0
B0
BC
36
26
66
7C
ENDCHAR
STARTCHAR uni0412
ENCODING 1042
SWIDTH 641 0
DWIDTH 8 0
BBX 7 9 0 0
BITMAP
3C
5A
96
BE
36
32
22
26
7C
ENDCHAR
STARTCHAR uni0413
ENCODING 1043
SWIDTH 400 0
DWIDTH 5 0
BBX 8 9 0 0
BITMAP
3F
D0
90
F0
30
30
20
20
60
ENDCHAR
STARTCHAR uni0414
ENCODING 1044
SWIDTH 669 0
DWIDTH 8 0
BBX 8 9 0 0
BITMAP
3E
5A
93
B3
33
33
E2
A6
FC
ENDCHAR
STARTCHAR uni0415
ENCODING 1045
SWIDTH 459 0
DWIDTH 6 0
BBX 6 9 0 0
BITMAP
1C
24
2C
20
70
60
C0
C4
78
ENDCHAR
STARTCHAR uni0416
ENCODING 1046
SWIDTH 777 0
DWIDTH 9 0
BBX 11 9 -1 0
BITMAP
3360
2AA0
0F00
0F00
3F80
2480
2480
6D80
ED80
ENDCHAR
STARTCHAR uni0417
ENCODING 1047
SWIDTH 525 0
DWIDTH 6 0
BBX 6 9 0 0
BITMAP
38
4C
0C
30
08
0C
CC
98
F0
ENDCHAR
STARTCHAR uni0418
ENCODING 1048
SWIDTH 705 0
DWIDTH 8 0
BBX 9 9 0 0
BITMAP
3980
5B00
9300
B700
3700
3B00
3200
3600
6600
ENDCHAR
STARTCHAR uni0419
ENCODING 1049
SWIDTH 705 0
DWIDTH 8 0
BBX 9 11 0 0
BITMAP
0D00
0600
3980
5B00
9300
B700
3700
3B00
3200
3600
6600
ENDCHAR
STARTCHAR uni041A
ENCODING 1050
SWIDTH 635 0
DWIDTH 8 0
BBX 8 9 0 0
BITMAP
3B
5D
94
B8
7C
36
24
24
6C
ENDCHAR
STARTCHAR uni041B
ENCODING 1051
SWIDTH 549 0
DWIDTH 7 0
BBX 7 10 0 -1
BITMAP
0E
16
14
2C
6C
4C
CC
88
98
80
ENDCHAR
STARTCHAR uni041C
ENCODING 1052
SWIDTH 787 0
DWIDTH 9 0
BBX 9 9 1 0
BITMAP
3980
5300
B300
B700
5700
5700
5B00
9B00
9200
ENDCHAR
STARTCHAR uni041D
ENCODING 1053
SWIDTH 665 0
DWIDTH 8 0
BBX 8 9 0 0
BITMAP
3B
7B
D3
B3
BE
32
36
26
66
ENDCHAR
STARTCHAR uni041E
ENCODING 1054
SWIDTH 665 0
DWIDTH 8 0
BBX 8 9 0 0
BITMAP
3E
4B
D3
B3
23
62
66
64
38
ENDCHAR
STARTCHAR uni041F
ENCODING 1055
SWIDTH 688 0
DWIDTH 8 0
BBX 9 9 0 0
BITMAP
3C80
5F80
9300
B300
3200
3600
2600
2600
6600
ENDCHAR
STARTCHAR uni0420
ENCODING 1056
SWIDTH 573 0
DWIDTH 7 0
BBX 7 9 0 0
BITMAP
3C
52
92
B2
34
38
20
60
60
ENDCHAR
STARTCHAR uni0421
ENCODING 1057
SWIDTH 497 0
DWIDTH 6 0
BBX 6 9 0 0
BITMAP
1C
34
64
60
C0
C0
C0
C4
78
ENDCHAR
STARTCHAR uni0422
ENCODING 1058
SWIDTH 481 0
DWIDTH 6 0
BBX 9 9 0 0
BITMAP
3C80
5F00
9800
9800
1800
1000
3000
3000
3000
ENDCHAR
STARTCHAR uni0423
ENCODING 1059
SWIDTH 644 0
DWIDTH 8 0
BBX 9 9 0 0
BITMAP
3980
5900
8900
8E00
0E00
0C00
0400
1800
3800
ENDCHAR
STARTCHAR uni0424
ENCODING 1060
SWIDTH 786 0
DWIDTH 9 0
BBX 9 10 0 0
BITMAP
3E00
6400
2E00
3D00
4D80
CD80
C980
DB00
7E00
1800
ENDCHAR
STARTCHAR uni0425
ENCODING 1061
SWIDTH 620 0
DWIDTH 7 0
BBX 8 9 0 0
BITMAP
3B
5A
9C
8C
0C
0C
1C
2C
26
ENDCHAR
STARTCHAR uni0426
ENCODING 1062
SWIDTH 692 0
DWIDTH 8 0
BBX 9 11 0 -2
BITMAP
3B00
5B00
9300
B300
3200
3600
2600
2600
7E00
0F80
0300
ENDCHAR
STARTCHAR uni0427
ENCODING 1063
SWIDTH 695 0
DWIDTH 8 0
BBX 9 9 0 0
BITMAP
3980
5900
9300
B300
9F00
0300
0200
0600
0600
ENDCHAR
STARTCHAR uni0428
ENCODING 1064
SWIDTH 906 0
DWIDTH 11 0
BBX 11 9 0 0
BITMAP
3B60
5B60
9260
B640
3640
36C0
26C0
24C0
7F80
ENDCHAR
STARTCHAR uni0429
ENCODING 1065
SWIDTH 934 0
DWIDTH 11 0
BBX 11 11 0 -2
BITMAP
3B60
5B60
9260
B640
3640
36C0
26C0
24C0
7C80
07E0
00E0
ENDCHAR
STARTCHAR uni042A
ENCODING 1066
SWIDTH 714 0
DWIDTH 9 0
BBX 8 9 0 0
BITMAP
3C
48
98
98
DE
1B
13
33
3E
ENDCHAR
STARTCHAR uni042B
ENCODING 1067
SWIDTH 909 0
DWIDTH 11 0
BBX 11 9 0 0
BITMAP
3860
5860
9060
B060
7E40
36C0
32C0
26C0
7C80
ENDCHAR
STARTCHAR uni042C
ENCODING 1068
SWIDTH 640 0
DWIDTH 8 0
BBX 7 9 0 0
BITMAP
38
58
90
B0
7E
36
32
26
7C
ENDCHAR
STARTCHAR uni042D
ENCODING 1069
SWIDTH 544 0
DWIDTH 7 0
BBX 6 9 0 0
BITMAP
3C
4C
0C
3C
0C
0C
8C
98
F0
ENDCHAR
STARTCHAR uni042E
ENCODING 1070
SWIDTH 946 0
DWIDTH 11 0
BBX 11 9 0 0
BITMAP
39C0
5B60
9320
B220
BE60
3660
3440
26C0
6780
ENDCHAR
STARTCHAR uni042F
ENCODING 1071
SWIDTH 630 0
DWIDTH 8 0
BBX 9 9 -1 0
BITMAP
0F00
1280
3680
3600
1E00
2400
2C00
6C00
EC00
ENDCHAR
STARTCHAR uni0430
ENCODING 1072
SWIDTH 526 0
DWIDTH 6 0
BBX 7 6 0 0
BITMAP
7C
48
C8
D8
DA
FC
ENDCHAR
STARTCHAR uni0431
ENCODING 1073
SWIDTH 430 0
DWIDTH 5 0
BBX 7 9 0 0
BITMAP
3E
3C
10
30
48
C8
D0
D0
E0
ENDCHAR
STARTCHAR uni0432
ENCODING 1074
SWIDTH 449 0
DWIDTH 5 0
BBX 7 9 0 0
BITMAP
38
28
68
48
D0
FE
C8
D0
F0
ENDCHAR
STARTCHAR uni0433
ENCODING 1075
SWIDTH 375 0
DWIDTH 5 0
BBX 5 6 0 0
BITMAP
70
B0
70
E0
C8
F0
ENDCHAR
STARTCHAR uni0434
ENCODING 1076
SWIDTH 507 0
DWIDTH 6 0
BBX 7 9 0 -3
BITMAP
7C
48
C8
D8
DA
FC
30
70
70
ENDCHAR
STARTCHAR uni0435
ENCODING 1077
SWIDTH 384 0
DWIDTH 5 0
BBX 5 6 0 0
BITMAP
70
50
D0
E0
C8
F0
ENDCHAR
STARTCHAR uni0436
ENCODING 1078
SWIDTH 882 0
DWIDTH 11 0
BBX 11 6 0 0
BITMAP
66C0
B540
3F00
2F00
AF20
C9C0
ENDCHAR
STARTCHAR uni0437
ENCODING 1079
SWIDTH 498 0
DWIDTH 6 0
BBX 6 9 0 -3
BITMAP
38
58
98
98
64
3C
30
70
60
ENDCHAR
STARTCHAR uni0438
ENCODING 1080
SWIDTH 505 0
DWIDTH 6 0
BBX 7 6 0 0
BITMAP
6C
D8
D8
D8
DA
FC
ENDCHAR
STARTCHAR uni0439
ENCODING 1081
SWIDTH 505 0
DWIDTH 6 0
BBX 7 8 0 0
BITMAP
6C
30
4C
D8
D8
D8
DA
FC
ENDCHAR
STARTCHAR uni043A
ENCODING 1082
SWIDTH 501 0
DWIDTH 6 0
BBX 7 6 0 0
BITMAP
6C
50
F8
DA
DC
9C
ENDCHAR
STARTCHAR uni043B
ENCODING 1083
SWIDTH 558 0
DWIDTH 7 0
BBX 7 6 0 0
BITMAP
1C
2C
2C
28
AA
CC
ENDCHAR
STARTCHAR uni043C
ENCODING 1084
SWIDTH 827 0
DWIDTH 10 0
BBX 10 6 0 0
BITMAP
1980
2980
2B80
2B80
AD40
C980
ENDCHAR
STARTCHAR uni043D
ENCODING 1085
SWIDTH 507 0
DWIDTH 6 0
BBX 7 6 0 0
BITMAP
6C
C8
F8
D8
DA
9C
ENDCHAR
STARTCHAR uni043E
ENCODING 1086
SWIDTH 439 0
DWIDTH 5 0
BBX 7 6 0 0
BITMAP
70
4A
DC
D0
D0
E0
ENDCHAR
STARTCHAR uni043F
ENCODING 1087
SWIDTH 505 0
DWIDTH 6 0
BBX 7 6 0 0
BITMAP
78
D8
D8
D8
DA
9C
ENDCHAR
STARTCHAR uni0440
ENCODING 1088
SWIDTH 468 0
DWIDTH 6 0
BBX 6 10 -1 -3
BITMAP
30
3C
64
64
6C
6C
78
C0
C0
C0
ENDCHAR
STARTCHAR uni0441
ENCODING 1089
SWIDTH 384 0
DWIDTH 5 0
BBX 5 6 0 0
BITMAP
70
50
C0
C0
C8
F0
ENDCHAR
STARTCHAR uni0442
ENCODING 1090
SWIDTH 752 0
DWIDTH 9 0
BBX 10 6 0 0
BITMAP
7F00
DB00
DB00
DB00
DB40
9380
ENDCHAR
STARTCHAR uni0443
ENCODING 1091
SWIDTH 486 0
DWIDTH 6 0
BBX 6 9 0 -3
BITMAP
6C
D8
D8
D8
DC
F8
70
B0
60
ENDCHAR
STARTCHAR uni0444
ENCODING 1092
SWIDTH 738 0
DWIDTH 9 0
BBX 8 11 0 -3
BITMAP
0C
0C
7F
49
C9
D9
DB
FE
10
30
30
ENDCHAR
STARTCHAR uni0445
ENCODING 1093
SWIDTH 522 0
DWIDTH 6 0
BBX 7 6 0 0
BITMAP
34
54
98
90
3A
DC
ENDCHAR
STARTCHAR uni0446
ENCODING 1094
SWIDTH 535 0
DWIDTH 6 0
BBX 6 9 0 -3
BITMAP
6C
D8
D8
D8
D8
FC
04
38
70
ENDCHAR
STARTCHAR uni0447
ENCODING 1095
SWIDTH 505 0
DWIDTH 6 0
BBX 7 6 0 0
BITMAP
6C
D8
D8
7A
1C
18
ENDCHAR
STARTCHAR uni0448
ENCODING 1096
SWIDTH 752 0
DWIDTH 9 0
BBX 10 6 0 0
BITMAP
6D00
DB00
DB00
DB40
DB80
FF00
ENDCHAR
STARTCHAR uni0449
ENCODING 1097
SWIDTH 782 0
DWIDTH 9 0
BBX 9 9 0 -3
BITMAP
6D00
DB00
DB00
DB00
DB00
FF80
0080
0F00
0E00
ENDCHAR
STARTCHAR uni044A
ENCODING 1098
SWIDTH 448 0
DWIDTH 5 0
BBX 5 6 0 0
BITMAP
E0
A0
78
D8
D8
F0
ENDCHAR
STARTCHAR uni044B
ENCODING 1099
SWIDTH 655 0
DWIDTH 8 0
BBX 8 6 0 0
BITMAP
42
CE
F6
D6
D5
E6
ENDCHAR
STARTCHAR uni044C
ENCODING 1100
SWIDTH 448 0
DWIDTH 5 0
BBX 5 6 0 0
BITMAP
60
40
F8
D8
D8
F0
ENDCHAR
STARTCHAR uni044D
ENCODING 1101
SWIDTH 413 0
DWIDTH 5 0
BBX 5 6 -1 0
BITMAP
38
48
38
58
98
70
ENDCHAR
STARTCHAR uni044E
ENCODING 1102
SWIDTH 675 0
DWIDTH 8 0
BBX 10 6 0 0
BITMAP
6E00
DAC0
FB00
DA00
D200
9C00
ENDCHAR
STARTCHAR uni044F
ENCODING 1103
SWIDTH 527 0
DWIDTH 6 0
BBX 7 6 0 0
BITMAP
3C
48
48
78
BA
DC
ENDCHAR
STARTCHAR uni0450
ENCODING 1104
SWIDTH 384 0
DWIDTH 5 0
BBX 5 9 0 0
BITMAP
20
20
00
70
50
D0
E0
C8
F0
ENDCHAR
STARTCHAR uni0451
ENCODING 1105
SWIDTH 384 0
DWIDTH 5 0
BBX 5 8 0 0
BITMAP
68
00
70
50
D0
E0
C8
F0
ENDCHAR
STARTCHAR uni0452
ENCODING 1106
SWIDTH 491 0
DWIDTH 6 0
BBX 6 12 0 -3
BITMAP
20
60
F0
40
F8
D8
D8
DC
98
70
B0
60
ENDCHAR
STARTCHAR uni0453
ENCODING 1107
SWIDTH 375 0
DWIDTH 5 0
BBX 5 9 0 0
BITMAP
18
10
00
70
B0
70
E0
C8
F0
ENDCHAR
STARTCHAR uni0454
ENCODING 1108
SWIDTH 384 0
DWIDTH 5 0
BBX 5 6 0 0
BITMAP
70
50
E0
C0
C8
F0
ENDCHAR
STARTCHAR uni0455
ENCODING 1109
SWIDTH 382 0
DWIDTH 5 0
BBX 5 6 0 0
BITMAP
30
70
70
B0
B8
E0
ENDCHAR
STARTCHAR uni0456
ENCODING 1110
SWIDTH 267 0
DWIDTH 3 0
BBX 4 8 0 0
BITMAP
60
60
40
C0
C0
C0
D0
E0
ENDCHAR
STARTCHAR uni0457
ENCODING 1111
SWIDTH 267 0
DWIDTH 3 0
BBX 4 8 0 0
BITMAP
F0
00
60
C0
C0
C0
D0
E0
ENDCHAR
STARTCHAR uni0458
ENCODING 1112
SWIDTH 240 0
DWIDTH 3 0
BBX 5 11 -2 -3
BITMAP
18
18
10
10
30
30
38
38
E0
E0
C0
ENDCHAR
STARTCHAR uni0459
ENCODING 1113
SWIDTH 745 0
DWIDTH 9 0
BBX 8 6 0 0
BITMAP
1C
2C
2F
29
A9
CE
ENDCHAR
STARTCHAR uni045A
ENCODING 1114
SWIDTH 694 0
DWIDTH 8 0
BBX 8 6 0 0
BITMAP
6C
CE
FB
DB
DA
9E
ENDCHAR
STARTCHAR uni045B
ENCODING 1115
SWIDTH 505 0
DWIDTH 6 0
BBX 7 9 0 0
BITMAP
20
60
F0
40
F8
D8
D8
DA
9C
ENDCHAR
STARTCHAR uni045C
ENCODING 1116
SWIDTH 501 0
DWIDTH 6 0
BBX 7 9 0 0
BITMAP
08
10
00
6C
50
F8
DA
DC
9C
ENDCHAR
STARTCHAR uni045D
ENCODING 1117
SWIDTH 505 0
DWIDTH 6 0
BBX 7 9 0 0
BITMAP
20
10
00
6C
D8
D8
D8
DA
FC
ENDCHAR
STARTCHAR uni045E
ENCODING 1118
SWIDTH 486 0
DWIDTH 6 0
BBX 6 11 0 -3
BITMAP
6C
30
4C
D8
D8
D8
DC
F8
70
B0
60
ENDCHAR
STARTCHAR uni045F
ENCODING 1119
SWIDTH 505 0
DWIDTH 6 0
BBX 7 9 0 -3
BITMAP
6C
D8
D8
D8
DA
FC
20
20
20
ENDCHAR
STARTCHAR uni0462
ENCODING 1122
SWIDTH 659 0
DWIDTH 8 0
BBX 7 9 0 0
BITMAP
18
7A
BE
B0
BC
36
26
66
7C
ENDCHAR
STARTCHAR uni0463
ENCODING 1123
SWIDTH 692 0
DWIDTH 8 0
BBX 8 6 0 0
BITMAP
78
D8
DE
DB
DB
9E
ENDCHAR
STARTCHAR uni046A
ENCODING 1130
SWIDTH 834 0
DWIDTH 10 0
BBX 10 9 0 0
BITMAP
1FC0
6C80
4D00
4E00
1F80
2480
2C80
6D80
ED80
ENDCHAR
STARTCHAR uni046B
ENCODING 1131
SWIDTH 750 0
DWIDTH 9 0
BBX 8 6 0 0
BITMAP
3F
5A
3E
6B
6B
DB
ENDCHAR
STARTCHAR uni0472
ENCODING 1138
SWIDTH 665 0
DWIDTH 8 0
BBX 8 9 0 0
BITMAP
3E
4B
D3
B3
3F
62
66
64
38
ENDCHAR
STARTCHAR uni0473
ENCODING 1139
SWIDTH 439 0
DWIDTH 5 0
BBX 7 6 0 0
BITMAP
70
4A
DC
F0
D0
E0
ENDCHAR
STARTCHAR uni0474
ENCODING 1140
SWIDTH 668 0
DWIDTH 8 0
BBX 9 9 0 0
BITMAP
3980
5B00
9A00
9A00
1C00
1C00
1C00
1800
1800
ENDCHAR
STARTCHAR uni0475
ENCODING 1141
SWIDTH 414 0
DWIDTH 5 0
BBX 5 6 0 0
BITMAP
78
C8
C8
D0
D0
E0
ENDCHAR
STARTCHAR uni0490
ENCODING 1168
SWIDTH 431 0
DWIDTH 5 0
BBX 8 10 0 0
BITMAP
01
3F
50
B0
B0
30
30
20
60
60
ENDCHAR
STARTCHAR uni0491
ENCODING 1169
SWIDTH 342 0
DWIDTH 4 0
BBX 5 7 0 0
BITMAP
18
70
C0
C0
C0
C0
80
ENDCHAR
STARTCHAR uni0492
ENCODING 1170
SWIDTH 400 0
DWIDTH 5 0
BBX 8 9 0 0
BITMAP
3F
50
90
B0
70
78
30
20
60
ENDCHAR
STARTCHAR uni0493
ENCODING 1171
SWIDTH 375 0
DWIDTH 5 0
BBX 5 6 0 0
BITMAP
70
B0
F0
C0
C8
F0
ENDCHAR
STARTCHAR uni0494
ENCODING 1172
SWIDTH 665 0
DWIDTH 8 0
BBX 8 9 0 0
BITMAP
3F
50
90
B0
FE
32
32
26
7C
ENDCHAR
STARTCHAR uni0495
ENCODING 1173
SWIDTH 486 0
DWIDTH 6 0
BBX 6 9 0 -3
BITMAP
78
40
F0
D8
DC
98
70
B0
60
ENDCHAR
STARTCHAR uni0496
ENCODING 1174
SWIDTH 777 0
DWIDTH 9 0
BBX 11 13 -1 -4
BITMAP
3360
2AA0
0F00
0F00
3F80
2480
2480
6D80
ED80
0100
0180
0080
0100
ENDCHAR
STARTCHAR uni0497
ENCODING 1175
SWIDTH 882 0
DWIDTH 11 0
BBX 11 9 0 -3
BITMAP
66C0
B540
3F00
2F00
AF20
C9C0
0080
0180
0080
ENDCHAR
STARTCHAR uni0498
ENCODING 1176
SWIDTH 525 0
DWIDTH 6 0
BBX 6 13 0 -4
BITMAP
38
4C
0C
30
08
0C
CC
98
F0
20
30
20
20
ENDCHAR
STARTCHAR uni0499
ENCODING 1177
SWIDTH 498 0
DWIDTH 6 0
BBX 6 12 0 -6
BITMAP
38
58
98
98
64
3C
30
70
60
40
60
40
ENDCHAR
STARTCHAR uni049A
ENCODING 1178
SWIDTH 635 0
DWIDTH 8 0
BBX 8 13 0 -4
BITMAP
3B
5D
94
B8
7C
36
24
24
6C
0C
0C
04
04
ENDCHAR
STARTCHAR uni049B
ENCODING 1179
SWIDTH 501 0
DWIDTH 6 0
BBX 7 9 0 -3
BITMAP
6C
50
F8
D8
DA
9C
08
18
08
ENDCHAR
STARTCHAR uni049C
ENCODING 1180
SWIDTH 721 0
DWIDTH 9 0
BBX 9 9 0 0
BITMAP
3980
5280
9600
BC00
3A00
3600
2600
2600
6600
ENDCHAR
STARTCHAR uni049D
ENCODING 1181
SWIDTH 551 0
DWIDTH 7 0
BBX 7 6 0 0
BITMAP
6C
70
F8
E8
DA
8C
ENDCHAR
STARTCHAR uni04A0
ENCODING 1184
SWIDTH 691 0
DWIDTH 8 0
BBX 9 9 0 0
BITMAP
3D80
5A80
9C00
9C00
9E00
1200
3200
3600
3600
ENDCHAR
STARTCHAR uni04A1
ENCODING 1185
SWIDTH 676 0
DWIDTH 8 0
BBX 9 6 0 0
BITMAP
7B00
9500
BC00
3600
3680
2700
ENDCHAR
STARTCHAR uni04A2
ENCODING 1186
SWIDTH 665 0
DWIDTH 8 0
BBX 9 11 0 -2
BITMAP
3B00
5B00
D300
B300
BE00
3200
3600
2600
6400
0380
0300
ENDCHAR
STARTCHAR uni04A3
ENCODING 1187
SWIDTH 507 0
DWIDTH 6 0
BBX 7 9 0 -3
BITMAP
6C
C8
F8
D8
DA
9C
08
18
08
ENDCHAR
STARTCHAR uni04A4
ENCODING 1188
SWIDTH 689 0
DWIDTH 8 0
BBX 11 9 0 0
BITMAP
39E0
5B00
9300
B200
BE00
3200
3600
2600
6600
ENDCHAR
STARTCHAR uni04A5
ENCODING 1189
SWIDTH 681 0
DWIDTH 8 0
BBX 8 6 0 0
BITMAP
6F
C8
F8
DA
DC
9C
ENDCHAR
STARTCHAR uni04AA
ENCODING 1194
SWIDTH 497 0
DWIDTH 6 0
BBX 6 13 0 -4
BITMAP
1C
34
64
60
C0
C0
C0
C4
78
20
30
10
10
ENDCHAR
STARTCHAR uni04AB
ENCODING 1195
SWIDTH 384 0
DWIDTH 5 0
BBX 5 9 0 -3
BITMAP
70
50
C0
C0
C8
F0
40
60
40
ENDCHAR
STARTCHAR uni04AE
ENCODING 1198
SWIDTH 620 0
DWIDTH 7 0
BBX 8 9 0 0
BITMAP
39
59
9A
8E
0C
0C
0C
0C
18
ENDCHAR
STARTCHAR uni04AF
ENCODING 1199
SWIDTH 480 0
DWIDTH 6 0
BBX 4 9 1 -3
BITMAP
90
D0
D0
D0
E0
C0
C0
C0
80
ENDCHAR
STARTCHAR uni04B0
ENCODING 1200
SWIDTH 620 0
DWIDTH 7 0
BBX 8 9 0 0
BITMAP
39
59
9A
8E
0C
1E
0C
0C
18
ENDCHAR
STARTCHAR uni04B1
ENCODING 1201
SWIDTH 480 0
DWIDTH 6 0
BBX 5 9 0 -3
BITMAP
48
68
68
68
70
F0
60
60
80
ENDCHAR
STARTCHAR uni04B6
ENCODING 1206
SWIDTH 695 0
DWIDTH 8 0
BBX 9 11 0 -2
BITMAP
3980
5900
9300
B300
9F00
0300
0200
0600
0600
0380
0180
ENDCHAR
STARTCHAR uni04B7
ENCODING 1207
SWIDTH 505 0
DWIDTH 6 0
BBX 7 9 0 -3
BITMAP
6C
D8
D8
7A
1C
18
08
18
08
ENDCHAR
STARTCHAR uni04B8
ENCODING 1208
SWIDTH 715 0
DWIDTH 9 0
BBX 9 9 0 0
BITMAP
3980
5980
9100
B300
1F00
0B00
0300
0200
0600
ENDCHAR
STARTCHAR uni04B9
ENCODING 1209
SWIDTH 545 0
DWIDTH 7 0
BBX 7 6 0 0
BITMAP
6C
CC
E8
78
3A
0C
ENDCHAR
STARTCHAR uni04BA
ENCODING 1210
SWIDTH 679 0
DWIDTH 8 0
BBX 7 9 0 0
BITMAP
38
58
90
B0
3E
32
22
26
66
ENDCHAR
STARTCHAR uni04BB
ENCODING 1211
SWIDTH 505 0
DWIDTH 6 0
BBX 7 8 0 0
BITMAP
60
60
78
58
D8
D8
DA
9C
ENDCHAR
STARTCHAR uni04C0
ENCODING 1216
SWIDTH 375 0
DWIDTH 5 0
BBX 5 9 0 0
BITMAP
38
50
90
B0
30
30
20
60
60
ENDCHAR
STARTCHAR uni04C1
ENCODING 1217
SWIDTH 777 0
DWIDTH 9 0
BBX 11 11 -1 0
BITMAP
0680
0700
3260
2AA0
0F00
0F00
3F80
2480
2480
6D80
ED80
ENDCHAR
STARTCHAR uni04C2
ENCODING 1218
SWIDTH 882 0
DWIDTH 11 0
BBX 11 8 0 0
BITMAP
0D00
0E00
64C0
B540
3F00
2F00
AF20
C9C0
ENDCHAR
STARTCHAR uni04CB
ENCODING 1227
SWIDTH 695 0
DWIDTH 8 0
BBX 9 10 0 -1
BITMAP
3980
5100
9300
B300
1F00
0300
0200
0600
0600
3800
ENDCHAR
STARTCHAR uni04CC
ENCODING 1228
SWIDTH 516 0
DWIDTH 6 0
BBX 7 9 0 -3
BITMAP
6C
48
D8
78
1A
1C
08
70
E0
ENDCHAR
STARTCHAR uni04CF
ENCODING 1231
SWIDTH 267 0
DWIDTH 3 0
BBX 4 8 0 0
BITMAP
60
60
40
40
C0
C0
D0
E0
ENDCHAR
STARTCHAR uni04D0
ENCODING 1232
SWIDTH 668 0
DWIDTH 8 0
BBX 10 12 0 -1
BITMAP
0240
0380
0300
0F00
0B00
7F00
F200
2600
2600
6600
6600
6000
ENDCHAR
STARTCHAR uni04D1
ENCODING 1233
SWIDTH 526 0
DWIDTH 6 0
BBX 7 8 0 0
BITMAP
34
38
7C
48
C8
D8
DA
FC
ENDCHAR
STARTCHAR uni04D2
ENCODING 1234
SWIDTH 668 0
DWIDTH 8 0
BBX 10 12 0 -1
BITMAP
02C0
0000
0300
0F00
0B00
7F00
F200
2600
2600
6600
6600
6000
ENDCHAR
STARTCHAR uni04D3
ENCODING 1235
SWIDTH 526 0
DWIDTH 6 0
BBX 7 8 0 0
BITMAP
3C
00
7C
48
C8
D8
DA
FC
ENDCHAR
STARTCHAR uni04D4
ENCODING 1236
SWIDTH 764 0
DWIDTH 9 0
BBX 11 10 0 -1
BITMAP
0320
0FC0
0B00
7B00
F780
E600
2600
6600
6780
6000
ENDCHAR
STARTCHAR uni04D5
ENCODING 1237
SWIDTH 650 0
DWIDTH 8 0
BBX 8 6 0 0
BITMAP
7E
1D
7A
DC
D9
FE
ENDCHAR
STARTCHAR uni04D6
ENCODING 1238
SWIDTH 459 0
DWIDTH 6 0
BBX 7 11 0 0
BITMAP
12
1C
1C
24
2C
20
70
60
C0
C4
78
ENDCHAR
STARTCHAR uni04D7
ENCODING 1239
SWIDTH 384 0
DWIDTH 5 0
BBX 5 8 0 0
BITMAP
68
30
70
50
D0
E0
C8
F0
ENDCHAR
STARTCHAR uni04D8
ENCODING 1240
SWIDTH 544 0
DWIDTH 7 0
BBX 6 9 0 0
BITMAP
38
4C
0C
04
1C
6C
CC
D8
70
ENDCHAR
STARTCHAR uni04D9
ENCODING 1241
SWIDTH 404 0
DWIDTH 5 0
BBX 5 6 0 0
BITMAP
70
18
78
90
B0
E0
ENDCHAR
STARTCHAR uni04DC
ENCODING 1244
SWIDTH 777 0
DWIDTH 9 0
BBX 11 11 -1 0
BITMAP
0780
0000
3360
2AA0
0F00
0F00
3F80
2480
2480
6D80
ED80
ENDCHAR
STARTCHAR uni04DD
ENCODING 1245
SWIDTH 882 0
DWIDTH 11 0
BBX 11 8 0 0
BITMAP
0F00
0000
66C0
B540
3F00
2F00
AF20
C9C0
ENDCHAR
STARTCHAR uni04DE
ENCODING 1246
SWIDTH 525 0
DWIDTH 6 0
BBX 6 11 0 0
BITMAP
14
00
38
4C
0C
30
08
0C
CC
98
F0
ENDCHAR
STARTCHAR uni04DF
ENCODING 1247
SWIDTH 498 0
DWIDTH 6 0
BBX 6 11 0 -3
BITMAP
28
00
38
58
98
98
64
3C
30
70
60
ENDCHAR
STARTCHAR uni04E2
ENCODING 1250
SWIDTH 705 0
DWIDTH 8 0
BBX 9 11 0 0
BITMAP
0F00
0000
3980
5B00
9300
B700
3700
3B00
3200
3600
6600
ENDCHAR
STARTCHAR uni04E3
ENCODING 1251
SWIDTH 505 0
DWIDTH 6 0
BBX 7 8 0 0
BITMAP
7C
00
6C
D8
D8
D8
DA
FC
ENDCHAR
STARTCHAR uni04E4
ENCODING 1252
SWIDTH 705 0
DWIDTH 8 0
BBX 9 11 0 0
BITMAP
0D00
0000
3980
5B00
9300
B700
3700
3B00
3200
3600
6600
ENDCHAR
STARTCHAR uni04E5
ENCODING 1253
SWIDTH 505 0
DWIDTH 6 0
BBX 7 8 0 0
BITMAP
28
00
6C
D8
D8
D8
DA
FC
ENDCHAR
STARTCHAR uni04E6
ENCODING 1254
SWIDTH 665 0
DWIDTH 8 0
BBX 8 11 0 0
BITMAP
0F
00
3E
4B
D3
B3
23
62
66
64
38
ENDCHAR
STARTCHAR uni04E7
ENCODING 1255
SWIDTH 439 0
DWIDTH 5 0
BBX 7 8 0 0
BITMAP
28
00
70
4A
DC
D0
D0
E0
ENDCHAR
STARTCHAR uni04E8
ENCODING 1256
SWIDTH 665 0
DWIDTH 8 0
BBX 8 9 0 0
BITMAP
3E
5B
D3
B3
3F
62
66
64
38
ENDCHAR
STARTCHAR uni04E9
ENCODING 1257
SWIDTH 439 0
DWIDTH 5 0
BBX 7 6 0 0
BITMAP
70
4A
FC
D0
D0
E0
ENDCHAR
STARTCHAR uni04EE
ENCODING 1262
SWIDTH 644 0
DWIDTH 8 0
BBX 9 11 0 0
BITMAP
0F00
0000
3980
5900
8900
8E00
0E00
0C00
0400
1800
3800
ENDCHAR
STARTCHAR uni04EF
ENCODING 1263
SWIDTH 486 0
DWIDTH 6 0
BBX 6 11 0 -3
BITMAP
7C
00
6C
D8
D8
D8
DC
F8
70
B0
60
ENDCHAR
STARTCHAR uni04F0
ENCODING 1264
SWIDTH 644 0
DWIDTH 8 0
BBX 9 11 0 0
BITMAP
0500
0000
3980
5900
8900
8E00
0E00
0C00
0400
1800
3800
ENDCHAR
STARTCHAR uni04F1
ENCODING 1265
SWIDTH 486 0
DWIDTH 6 0
BBX 6 11 0 -3
BITMAP
28
00
6C
D8
D8
D8
DC
F8
70
B0
60
ENDCHAR
STARTCHAR uni04F2
ENCODING 1266
SWIDTH 644 0
DWIDTH 8 0
BBX 9 12 0 0
BITMAP
0780
0500
0000
3980
5900
8900
8E00
0E00
0C00
0400
1800
3800
ENDCHAR
STARTCHAR uni04F3
ENCODING 1267
SWIDTH 486 0
DWIDTH 6 0
BBX 6 12 0 -3
BITMAP
1C
28
00
6C
D8
D8
D8
DC
F8
70
B0
60
ENDCHAR
STARTCHAR uni04F4
ENCODING 1268
SWIDTH 695 0
DWIDTH 8 0
BBX 9 11 0 0
BITMAP
0D00
0000
3980
5900
9300
B300
9F00
0300
0200
0600
0600
ENDCHAR
STARTCHAR uni04F5
ENCODING 1269
SWIDTH 505 0
DWIDTH 6 0
BBX 7 8 0 0
BITMAP
28
00
6C
D8
D8
7A
1C
18
ENDCHAR
STARTCHAR uni04F6
ENCODING 1270
SWIDTH 442 0
DWIDTH 5 0
BBX 8 11 0 -2
BITMAP
3F
D0
90
F0
30
30
20
20
60
38
18
ENDCHAR
STARTCHAR uni04F7
ENCODING 1271
SWIDTH 375 0
DWIDTH 5 0
BBX 5 9 0 -3
BITMAP
70
B0
70
C0
C8
F0
40
40
40
ENDCHAR
STARTCHAR uni04F8
ENCODING 1272
SWIDTH 909 0
DWIDTH 11 0
BBX 11 11 0 0
BITMAP
0280
0000
3860
5860
9060
B060
7E40
36C0
32C0
26C0
7C80
ENDCHAR
STARTCHAR uni04F9
ENCODING 1273
SWIDTH 642 0
DWIDTH 8 0
BBX 8 8 0 0
BITMAP
14
00
42
4E
F6
D4
D5
E6
ENDCHAR
STARTCHAR uni051A
ENCODING 1306
SWIDTH 665 0
DWIDTH 8 0
BBX 8 10 0 -1
BITMAP
1E
6B
D3
B3
23
62
66
7E
3C
06
ENDCHAR
STARTCHAR uni051B
ENCODING 1307
SWIDTH 486 0
DWIDTH 6 0
BBX 6 9 0 -3
BITMAP
7C
48
C8
D8
D8
F8
10
30
30
ENDCHAR
STARTCHAR uni051C
ENCODING 1308
SWIDTH 962 0
DWIDTH 12 0
BBX 12 9 0 0
BITMAP
3990
5990
9990
9BA0
1BA0
1DA0
1DC0
19C0
1980
ENDCHAR
STARTCHAR uni051D
ENCODING 1309
SWIDTH 661 0
DWIDTH 8 0
BBX 8 6 0 0
BITMAP
6F
D9
D9
DA
DA
FC
ENDCHAR
STARTCHAR uni0524
ENCODING 1316
SWIDTH 742 0
DWIDTH 9 0
BBX 9 11 0 -2
BITMAP
3F80
D300
9300
B200
3200
3600
2600
2600
6600
0380
0300
ENDCHAR
STARTCHAR uni0525
ENCODING 1317
SWIDTH 505 0
DWIDTH 6 0
BBX 7 9 0 -3
BITMAP
78
D8
D8
DA
DC
9C
08
18
08
ENDCHAR
STARTCHAR uni1E0C
ENCODING 7692
SWIDTH 663 0
DWIDTH 8 0
BBX 8 12 0 -3
BITMAP
3C
4A
93
B3
33
32
26
66
7C
00
30
30
ENDCHAR
STARTCHAR uni1E0D
ENCODING 7693
SWIDTH 525 0
DWIDTH 6 0
BBX 7 11 0 -3
BITMAP
0C
0C
7C
48
C8
D8
DA
FC
00
60
60
ENDCHAR
STARTCHAR uni1E20
ENCODING 7712
SWIDTH 578 0
DWIDTH 7 0
BBX 7 13 0 -2
BITMAP
1E
00
1C
62
66
C0
C6
C4
4C
7C
28
48
70
ENDCHAR
STARTCHAR uni1E21
ENCODING 7713
SWIDTH 507 0
DWIDTH 6 0
BBX 7 11 0 -3
BITMAP
3C
00
7C
48
C8
D8
DA
FC
30
70
70
ENDCHAR
STARTCHAR uni1E24
ENCODING 7716
SWIDTH 665 0
DWIDTH 8 0
BBX 8 12 0 -3
BITMAP
3B
7B
D3
B3
BE
32
36
26
66
00
10
10
ENDCHAR
STARTCHAR uni1E25
ENCODING 7717
SWIDTH 505 0
DWIDTH 6 0
BBX 7 11 0 -3
BITMAP
60
60
78
58
D8
D8
DA
9C
00
60
60
ENDCHAR
STARTCHAR uni1E2A
ENCODING 7722
SWIDTH 665 0
DWIDTH 8 0
BBX 8 12 0 -3
BITMAP
3B
7B
D3
B3
BE
32
36
26
66
00
24
38
ENDCHAR
STARTCHAR uni1E2B
ENCODING 7723
SWIDTH 505 0
DWIDTH 6 0
BBX 7 11 0 -3
BITMAP
60
60
78
58
D8
D8
DA
9C
00
90
60
ENDCHAR
STARTCHAR uni1E36
ENCODING 7734
SWIDTH 379 0
DWIDTH 5 0
BBX 8 12 0 -3
BITMAP
38
50
90
B0
30
30
20
60
60
18
6F
67
ENDCHAR
STARTCHAR uni1E37
ENCODING 7735
SWIDTH 293 0
DWIDTH 4 0
BBX 4 11 0 -3
BITMAP
60
60
60
60
40
C0
D0
E0
00
C0
C0
ENDCHAR
STARTCHAR uni1E42
ENCODING 7746
SWIDTH 787 0
DWIDTH 9 0
BBX 9 12 1 -3
BITMAP
3980
5300
B300
B700
5700
5700
5B00
9B00
9200
0000
3000
3000
ENDCHAR
STARTCHAR uni1E43
ENCODING 7747
SWIDTH 752 0
DWIDTH 9 0
BBX 10 9 0 -3
BITMAP
7F00
DB00
DB00
DB00
DB40
9380
0000
3000
3000
ENDCHAR
STARTCHAR uni1E44
ENCODING 7748
SWIDTH 668 0
DWIDTH 8 0
BBX 9 12 0 0
BITMAP
0200
0600
0000
3980
5900
9900
B900
6D00
2E00
2E00
6600
4600
ENDCHAR
STARTCHAR uni1E45
ENCODING 7749
SWIDTH 505 0
DWIDTH 6 0
BBX 7 9 0 0
BITMAP
18
10
00
78
D8
D8
D8
DA
9C
ENDCHAR
STARTCHAR uni1E46
ENCODING 7750
SWIDTH 668 0
DWIDTH 8 0
BBX 9 12 0 -3
BITMAP
3980
5900
9900
B900
6D00
2E00
2E00
6600
4600
0000
1000
1800
ENDCHAR
STARTCHAR uni1E47
ENCODING 7751
SWIDTH 505 0
DWIDTH 6 0
BBX 7 9 0 -3
BITMAP
78
D8
D8
D8
DA
9C
00
60
60
ENDCHAR
STARTCHAR uni1E5A
ENCODING 7770
SWIDTH 601 0
DWIDTH 7 0
BBX 7 12 0 -3
BITMAP
3C
5A
92
B4
BC
36
24
6C
6C
00
10
30
ENDCHAR
STARTCHAR uni1E5B
ENCODING 7771
SWIDTH 376 0
DWIDTH 5 0
BBX 6 9 -1 -3
BITMAP
3C
68
60
60
60
40
00
40
C0
ENDCHAR
STARTCHAR uni1E60
ENCODING 7776
SWIDTH 570 0
DWIDTH 7 0
BBX 7 12 0 0
BITMAP
0C
0C
00
1C
36
34
30
18
6C
CC
CC
78
ENDCHAR
STARTCHAR uni1E61
ENCODING 7777
SWIDTH 382 0
DWIDTH 5 0
BBX 5 9 0 0
BITMAP
30
30
00
30
70
70
B0
B8
E0
ENDCHAR
STARTCHAR uni1E62
ENCODING 7778
SWIDTH 570 0
DWIDTH 7 0
BBX 7 12 0 -3
BITMAP
1C
36
34
30
18
6C
CC
CC
78
00
20
60
ENDCHAR
STARTCHAR uni1E63
ENCODING 7779
SWIDTH 382 0
DWIDTH 5 0
BBX 5 9 0 -3
BITMAP
30
70
70
B0
B8
E0
00
C0
C0
ENDCHAR
STARTCHAR uni1E6C
ENCODING 7788
SWIDTH 481 0
DWIDTH 6 0
BBX 9 12 0 -3
BITMAP
3C80
5F00
9800
9800
1800
1000
3000
3000
3000
0000
2000
2000
ENDCHAR
STARTCHAR uni1E6D
ENCODING 7789
SWIDTH 267 0
DWIDTH 3 0
BBX 5 11 -1 -3
BITMAP
30
30
70
20
60
60
68
70
00
40
C0
ENDCHAR
STARTCHAR Wgrave
ENCODING 7808
SWIDTH 962 0
DWIDTH 12 0
BBX 12 12 0 0
BITMAP
0100
0100
0080
3990
5990
9990
9BA0
1BA0
1DA0
1DC0
19C0
1980
ENDCHAR
STARTCHAR wgrave
ENCODING 7809
SWIDTH 661 0
DWIDTH 8 0
BBX 8 9 0 0
BITMAP
10
08
00
6F
D9
D9
DA
DA
FC
ENDCHAR
STARTCHAR Wacute
ENCODING 7810
SWIDTH 962 0
DWIDTH 12 0
BBX 12 12 0 0
BITMAP
0040
0080
0080
3990
5990
9990
9BA0
1BA0
1DA0
1DC0
19C0
1980
ENDCHAR
STARTCHAR wacute
ENCODING 7811
SWIDTH 661 0
DWIDTH 8 0
BBX 8 9 0 0
BITMAP
04
0C
00
6F
D9
D9
DA
DA
FC
ENDCHAR
STARTCHAR Wdieresis
ENCODING 7812
SWIDTH 962 0
DWIDTH 12 0
BBX 12 11 0 0
BITMAP
0340
0000
3990
5990
9990
9BA0
1BA0
1DA0
1DC0
19C0
1980
ENDCHAR
STARTCHAR wdieresis
ENCODING 7813
SWIDTH 661 0
DWIDTH 8 0
BBX 8 8 0 0
BITMAP
14
00
6F
D9
D9
DA
DA
FC
ENDCHAR
STARTCHAR uni1E8E
ENCODING 7822
SWIDTH 620 0
DWIDTH 7 0
BBX 8 12 0 0
BITMAP
02
06
00
39
59
9A
8E
0C
0C
0C
0C
18
ENDCHAR
STARTCHAR uni1E8F
ENCODING 7823
SWIDTH 505 0
DWIDTH 6 0
BBX 6 12 0 -3
BITMAP
10
10
00
6C
D8
D8
D8
DC
F8
70
B0
60
ENDCHAR
STARTCHAR uni1E92
ENCODING 7826
SWIDTH 542 0
DWIDTH 7 0
BBX 7 15 0 -3
BITMAP
06
04
08
7E
4C
18
18
30
30
60
64
FC
00
20
30
ENDCHAR
STARTCHAR uni1E93
ENCODING 7827
SWIDTH 428 0
DWIDTH 5 0
BBX 5 9 0 -3
BITMAP
78
50
30
60
68
F0
00
40
C0
ENDCHAR
STARTCHAR uni1E97
ENCODING 7831
SWIDTH 267 0
DWIDTH 3 0
BBX 4 10 0 0
BITMAP
50
00
60
60
E0
40
C0
C0
D0
E0
ENDCHAR
STARTCHAR uni1E9E
ENCODING 7838
SWIDTH 559 0
DWIDTH 7 0
BBX 8 12 -1 -3
BITMAP
1F
12
36
34
3C
26
66
66
7C
40
40
80
ENDCHAR
STARTCHAR uni1EA0
ENCODING 7840
SWIDTH 668 0
DWIDTH 8 0
BBX 8 12 0 -3
BITMAP
03
07
0B
0B
7E
F2
26
66
66
40
28
08
ENDCHAR
STARTCHAR uni1EA1
ENCODING 7841
SWIDTH 526 0
DWIDTH 6 0
BBX 7 9 0 -3
BITMAP
7C
48
C8
D8
DA
FC
00
60
60
ENDCHAR
STARTCHAR uni1EA2
ENCODING 7842
SWIDTH 668 0
DWIDTH 8 0
BBX 9 13 0 -1
BITMAP
0380
0080
0100
0300
0F00
0B00
7F00
F200
2600
2600
6600
6600
6000
ENDCHAR
STARTCHAR uni1EA3
ENCODING 7843
SWIDTH 526 0
DWIDTH 6 0
BBX 7 9 0 0
BITMAP
1C
10
00
7C
48
C8
D8
DA
FC
ENDCHAR
STARTCHAR uni1EA4
ENCODING 7844
SWIDTH 668 0
DWIDTH 8 0
BBX 10 13 0 -1
BITMAP
0040
0140
0280
0300
0F00
0B00
7F00
F200
2600
2600
6600
6600
6000
ENDCHAR
STARTCHAR uni1EA5
ENCODING 7845
SWIDTH 526 0
DWIDTH 6 0
BBX 7 11 0 0
BITMAP
02
02
0C
38
00
7C
48
C8
D8
DA
FC
ENDCHAR
STARTCHAR uni1EA6
ENCODING 7846
SWIDTH 668 0
DWIDTH 8 0
BBX 10 13 0 -1
BITMAP
0040
0140
0280
0300
0F00
0B00
7F00
F200
2600
2600
6600
6600
6000
ENDCHAR
STARTCHAR uni1EA7
ENCODING 7847
SWIDTH 526 0
DWIDTH 6 0
BBX 7 10 0 0
BITMAP
04
0C
18
20
7C
48
C8
D8
DA
FC
ENDCHAR
STARTCHAR uni1EA8
ENCODING 7848
SWIDTH 668 0
DWIDTH 8 0
BBX 10 13 0 -1
BITMAP
0040
0140
0280
0300
0F00
0B00
7F00
F200
2600
2600
6600
6600
6000
ENDCHAR
STARTCHAR uni1EA9
ENCODING 7849
SWIDTH 526 0
DWIDTH 6 0
BBX 7 10 0 0
BITMAP
06
0E
38
00
7C
48
C8
D8
DA
FC
ENDCHAR
STARTCHAR uni1EAA
ENCODING 7850
SWIDTH 668 0
DWIDTH 8 0
BBX 10 13 0 -1
BITMAP
03C0
0180
0280
0300
0F00
0B00
7F00
F200
2600
2600
6600
6600
6000
ENDCHAR
STARTCHAR uni1EAB
ENCODING 7851
SWIDTH 526 0
DWIDTH 6 0
BBX 7 10 0 0
BITMAP
1C
08
38
00
7C
48
C8
D8
DA
FC
ENDCHAR
STARTCHAR uni1EAC
ENCODING 7852
SWIDTH 668 0
DWIDTH 8 0
BBX 9 15 0 -3
BITMAP
0080
0180
0680
0300
0700
0B00
0B00
7E00
F200
2600
6600
6600
4000
2800
0800
ENDCHAR
STARTCHAR uni1EAD
ENCODING 7853
SWIDTH 526 0
DWIDTH 6 0
BBX 7 12 0 -3
BITMAP
08
18
20
7C
48
C8
D8
DA
FC
00
60
60
ENDCHAR
STARTCHAR uni1EAE
ENCODING 7854
SWIDTH 668 0
DWIDTH 8 0
BBX 10 13 0 -1
BITMAP
0080
0340
0380
0300
0F00
0B00
7F00
F200
2600
2600
6600
6600
6000
ENDCHAR
STARTCHAR uni1EAF
ENCODING 7855
SWIDTH 526 0
DWIDTH 6 0
BBX 7 10 0 0
BITMAP
08
08
3C
00
7C
48
C8
D8
DA
FC
ENDCHAR
STARTCHAR uni1EB0
ENCODING 7856
SWIDTH 668 0
DWIDTH 8 0
BBX 10 13 0 -1
BITMAP
0100
0340
0380
0300
0F00
0B00
7F00
F200
2600
2600
6600
6600
6000
ENDCHAR
STARTCHAR uni1EB1
ENCODING 7857
SWIDTH 526 0
DWIDTH 6 0
BBX 7 10 0 0
BITMAP
10
10
3C
00
7C
48
C8
D8
DA
FC
ENDCHAR
STARTCHAR uni1EB2
ENCODING 7858
SWIDTH 668 0
DWIDTH 8 0
BBX 10 13 0 -1
BITMAP
0180
03C0
0380
0300
0F00
0B00
7F00
F200
2600
2600
6600
6600
6000
ENDCHAR
STARTCHAR uni1EB3
ENCODING 7859
SWIDTH 526 0
DWIDTH 6 0
BBX 7 10 0 0
BITMAP
18
08
3C
00
7C
48
C8
D8
DA
FC
ENDCHAR
STARTCHAR uni1EB4
ENCODING 7860
SWIDTH 668 0
DWIDTH 8 0
BBX 10 13 0 -1
BITMAP
03C0
0240
0380
0300
0F00
0B00
7F00
F200
2600
2600
6600
6600
6000
ENDCHAR
STARTCHAR uni1EB5
ENCODING 7861
SWIDTH 526 0
DWIDTH 6 0
BBX 7 10 0 0
BITMAP
1C
00
3C
00
7C
48
C8
D8
DA
FC
ENDCHAR
STARTCHAR uni1EB6
ENCODING 7862
SWIDTH 668 0
DWIDTH 8 0
BBX 10 14 0 -3
BITMAP
0240
0380
0300
0700
0B00
0B00
7E00
F200
2600
6600
6600
4000
2800
0800
ENDCHAR
STARTCHAR uni1EB7
ENCODING 7863
SWIDTH 526 0
DWIDTH 6 0
BBX 7 12 0 -3
BITMAP
24
24
18
7C
48
C8
D8
DA
FC
00
60
60
ENDCHAR
STARTCHAR uni1EB8
ENCODING 7864
SWIDTH 459 0
DWIDTH 6 0
BBX 6 12 0 -3
BITMAP
1C
24
2C
20
70
60
C0
C4
78
00
60
60
ENDCHAR
STARTCHAR uni1EB9
ENCODING 7865
SWIDTH 384 0
DWIDTH 5 0
BBX 5 9 0 -3
BITMAP
70
50
D0
E0
C8
F0
00
C0
C0
ENDCHAR
STARTCHAR uni1EBA
ENCODING 7866
SWIDTH 459 0
DWIDTH 6 0
BBX 6 12 0 0
BITMAP
0C
08
00
1C
24
2C
20
70
60
C0
C4
78
ENDCHAR
STARTCHAR uni1EBB
ENCODING 7867
SWIDTH 384 0
DWIDTH 5 0
BBX 5 9 0 0
BITMAP
38
10
00
70
50
D0
E0
C8
F0
ENDCHAR
STARTCHAR uni1EBC
ENCODING 7868
SWIDTH 459 0
DWIDTH 6 0
BBX 7 11 0 0
BITMAP
3E
00
1C
24
2C
20
70
60
C0
C4
78
ENDCHAR
STARTCHAR uni1EBD
ENCODING 7869
SWIDTH 384 0
DWIDTH 5 0
BBX 5 8 0 0
BITMAP
78
00
70
50
D0
E0
C8
F0
ENDCHAR
STARTCHAR uni1EBE
ENCODING 7870
SWIDTH 459 0
DWIDTH 6 0
BBX 7 12 0 0
BITMAP
06
1C
00
1C
24
2C
20
70
60
C0
C4
78
ENDCHAR
STARTCHAR uni1EBF
ENCODING 7871
SWIDTH 384 0
DWIDTH 5 0
BBX 7 11 0 0
BITMAP
02
04
10
28
00
70
50
D0
E0
C8
F0
ENDCHAR
STARTCHAR uni1EC0
ENCODING 7872
SWIDTH 459 0
DWIDTH 6 0
BBX 7 12 0 0
BITMAP
02
0E
10
1C
24
2C
20
70
60
C0
C4
78
ENDCHAR
STARTCHAR uni1EC1
ENCODING 7873
SWIDTH 384 0
DWIDTH 5 0
BBX 6 10 0 0
BITMAP
04
14
28
00
70
50
D0
E0
C8
F0
ENDCHAR
STARTCHAR uni1EC2
ENCODING 7874
SWIDTH 459 0
DWIDTH 6 0
BBX 8 12 0 0
BITMAP
03
0A
14
1C
24
2C
20
70
60
C0
C4
78
ENDCHAR
STARTCHAR uni1EC3
ENCODING 7875
SWIDTH 384 0
DWIDTH 5 0
BBX 6 10 0 0
BITMAP
0C
14
28
00
70
50
D0
E0
C8
F0
ENDCHAR
STARTCHAR uni1EC4
ENCODING 7876
SWIDTH 459 0
DWIDTH 6 0
BBX 7 12 0 0
BITMAP
0E
1C
00
1C
24
2C
20
70
60
C0
C4
78
ENDCHAR
STARTCHAR uni1EC5
ENCODING 7877
SWIDTH 384 0
DWIDTH 5 0
BBX 6 10 0 0
BITMAP
3C
10
28
00
70
50
D0
E0
C8
F0
ENDCHAR
STARTCHAR uni1EC6
ENCODING 7878
SWIDTH 459 0
DWIDTH 6 0
BBX 6 15 0 -3
BITMAP
04
1C
24
1C
24
2C
20
70
60
C0
C4
78
00
60
60
ENDCHAR
STARTCHAR uni1EC7
ENCODING 7879
SWIDTH 384 0
DWIDTH 5 0
BBX 5 12 0 -3
BITMAP
10
28
40
70
50
D0
E0
C8
F0
00
C0
C0
ENDCHAR
STARTCHAR uni1EC8
ENCODING 7880
SWIDTH 375 0
DWIDTH 5 0
BBX 6 12 0 0
BITMAP
18
04
18
38
50
90
B0
30
30
20
60
60
ENDCHAR
STARTCHAR uni1EC9
ENCODING 7881
SWIDTH 267 0
DWIDTH 3 0
BBX 4 9 0 0
BITMAP
60
40
00
60
C0
C0
C0
D0
E0
ENDCHAR
STARTCHAR uni1ECA
ENCODING 7882
SWIDTH 375 0
DWIDTH 5 0
BBX 5 12 0 -3
BITMAP
38
50
90
B0
30
30
20
60
60
00
40
60
ENDCHAR
STARTCHAR uni1ECB
ENCODING 7883
SWIDTH 267 0
DWIDTH 3 0
BBX 5 11 -1 -3
BITMAP
30
30
20
60
60
60
68
70
00
40
C0
ENDCHAR
STARTCHAR uni1ECC
ENCODING 7884
SWIDTH 665 0
DWIDTH 8 0
BBX 8 12 0 -3
BITMAP
3E
4B
D3
B3
23
62
66
64
38
00
30
30
ENDCHAR
STARTCHAR uni1ECD
ENCODING 7885
SWIDTH 433 0
DWIDTH 5 0
BBX 7 9 0 -3
BITMAP
70
4A
DC
D0
D0
E0
00
C0
C0
ENDCHAR
STARTCHAR uni1ECE
ENCODING 7886
SWIDTH 665 0
DWIDTH 8 0
BBX 8 12 0 0
BITMAP
06
02
04
3E
4B
D3
B3
23
62
66
64
38
ENDCHAR
STARTCHAR uni1ECF
ENCODING 7887
SWIDTH 433 0
DWIDTH 5 0
BBX 7 9 0 0
BITMAP
38
10
00
70
4A
DC
D0
D0
E0
ENDCHAR
STARTCHAR uni1ED0
ENCODING 7888
SWIDTH 665 0
DWIDTH 8 0
BBX 8 12 0 0
BITMAP
03
06
0A
3E
4B
D3
B3
23
62
66
64
38
ENDCHAR
STARTCHAR uni1ED1
ENCODING 7889
SWIDTH 433 0
DWIDTH 5 0
BBX 7 11 0 0
BITMAP
02
04
10
28
00
70
4A
DC
D0
D0
E0
ENDCHAR
STARTCHAR uni1ED2
ENCODING 7890
SWIDTH 665 0
DWIDTH 8 0
BBX 8 12 0 0
BITMAP
01
07
08
3E
4B
D3
B3
23
62
66
64
38
ENDCHAR
STARTCHAR uni1ED3
ENCODING 7891
SWIDTH 433 0
DWIDTH 5 0
BBX 7 10 0 0
BITMAP
04
14
28
00
70
4A
DC
D0
D0
E0
ENDCHAR
STARTCHAR uni1ED4
ENCODING 7892
SWIDTH 665 0
DWIDTH 8 0
BBX 9 12 0 0
BITMAP
0180
0500
0A00
3E00
4B00
D300
B300
2300
6200
6600
6400
3800
ENDCHAR
STARTCHAR uni1ED5
ENCODING 7893
SWIDTH 433 0
DWIDTH 5 0
BBX 7 10 0 0
BITMAP
0C
14
38
00
70
4A
DC
D0
D0
E0
ENDCHAR
STARTCHAR uni1ED6
ENCODING 7894
SWIDTH 665 0
DWIDTH 8 0
BBX 8 12 0 0
BITMAP
0F
06
0A
3E
4B
D3
B3
23
62
66
64
38
ENDCHAR
STARTCHAR uni1ED7
ENCODING 7895
SWIDTH 433 0
DWIDTH 5 0
BBX 7 10 0 0
BITMAP
3C
10
28
00
70
4A
DC
D0
D0
E0
ENDCHAR
STARTCHAR uni1ED8
ENCODING 7896
SWIDTH 665 0
DWIDTH 8 0
BBX 8 15 0 -3
BITMAP
04
0C
12
3E
4B
D3
B3
23
62
66
64
38
00
30
30
ENDCHAR
STARTCHAR uni1ED9
ENCODING 7897
SWIDTH 433 0
DWIDTH 5 0
BBX 7 12 0 -3
BITMAP
10
28
40
70
4A
DC
D0
D0
E0
00
C0
C0
ENDCHAR
STARTCHAR uni1EDA
ENCODING 7898
SWIDTH 665 0
DWIDTH 8 0
BBX 9 12 0 0
BITMAP
0200
0580
0480
3F00
4B00
D300
B300
2300
6200
6600
6400
3800
ENDCHAR
STARTCHAR uni1EDB
ENCODING 7899
SWIDTH 439 0
DWIDTH 5 0
BBX 6 9 0 0
BITMAP
18
14
04
38
48
C8
D0
D0
E0
ENDCHAR
STARTCHAR uni1EDC
ENCODING 7900
SWIDTH 665 0
DWIDTH 8 0
BBX 9 12 0 0
BITMAP
0800
0980
0080
3F00
4B00
D300
B300
2300
6200
6600
6400
3800
ENDCHAR
STARTCHAR uni1EDD
ENCODING 7901
SWIDTH 439 0
DWIDTH 5 0
BBX 6 9 0 0
BITMAP
20
14
04
38
48
C8
D0
D0
E0
ENDCHAR
STARTCHAR uni1EDE
ENCODING 7902
SWIDTH 665 0
DWIDTH 8 0
BBX 9 12 0 0
BITMAP
0600
0200
0580
3F00
4B00
D300
B300
2300
6200
6600
6400
3800
ENDCHAR
STARTCHAR uni1EDF
ENCODING 7903
SWIDTH 439 0
DWIDTH 5 0
BBX 6 9 0 0
BITMAP
38
14
04
38
48
C8
D0
D0
E0
ENDCHAR
STARTCHAR uni1EE0
ENCODING 7904
SWIDTH 665 0
DWIDTH 8 0
BBX 9 11 0 0
BITMAP
1F80
0480
3F00
4B00
D300
B300
2300
6200
6600
6400
3800
ENDCHAR
STARTCHAR uni1EE1
ENCODING 7905
SWIDTH 439 0
DWIDTH 5 0
BBX 6 8 0 0
BITMAP
74
04
38
48
C8
D0
D0
E0
ENDCHAR
STARTCHAR uni1EE2
ENCODING 7906
SWIDTH 665 0
DWIDTH 8 0
BBX 9 13 0 -3
BITMAP
0180
3F00
4B00
D300
B300
2300
6200
6600
6400
3800
0000
3000
3000
ENDCHAR
STARTCHAR uni1EE3
ENCODING 7907
SWIDTH 439 0
DWIDTH 5 0
BBX 6 11 0 -3
BITMAP
04
04
38
48
C8
D0
D0
E0
00
C0
C0
ENDCHAR
STARTCHAR uni1EE4
ENCODING 7908
SWIDTH 716 0
DWIDTH 9 0
BBX 9 12 0 -3
BITMAP
3980
5980
9180
B100
3300
3300
2300
3600
3C00
0000
1000
1800
ENDCHAR
STARTCHAR uni1EE5
ENCODING 7909
SWIDTH 505 0
DWIDTH 6 0
BBX 7 9 0 -3
BITMAP
6C
D8
D8
D8
DA
FC
00
60
60
ENDCHAR
STARTCHAR uni1EE6
ENCODING 7910
SWIDTH 716 0
DWIDTH 9 0
BBX 9 12 0 0
BITMAP
0700
0100
0200
3980
5980
9180
B100
3300
3300
2300
3600
3C00
ENDCHAR
STARTCHAR uni1EE7
ENCODING 7911
SWIDTH 505 0
DWIDTH 6 0
BBX 7 9 0 0
BITMAP
38
10
00
6C
D8
D8
D8
DA
FC
ENDCHAR
STARTCHAR uni1EE8
ENCODING 7912
SWIDTH 716 0
DWIDTH 9 0
BBX 10 12 0 0
BITMAP
0100
0240
0240
3980
5980
9180
B100
3300
3300
2300
3600
3C00
ENDCHAR
STARTCHAR uni1EE9
ENCODING 7913
SWIDTH 505 0
DWIDTH 6 0
BBX 7 9 0 0
BITMAP
08
16
04
68
D8
D8
D8
DA
FC
ENDCHAR
STARTCHAR uni1EEA
ENCODING 7914
SWIDTH 716 0
DWIDTH 9 0
BBX 10 12 0 0
BITMAP
0400
0440
0040
3980
5980
9180
B100
3300
3300
2300
3600
3C00
ENDCHAR
STARTCHAR uni1EEB
ENCODING 7915
SWIDTH 505 0
DWIDTH 6 0
BBX 7 9 0 0
BITMAP
30
16
04
68
D8
D8
D8
DA
FC
ENDCHAR
STARTCHAR uni1EEC
ENCODING 7916
SWIDTH 716 0
DWIDTH 9 0
BBX 10 12 0 0
BITMAP
0700
0140
0240
39C0
5980
9180
B100
3300
3300
2300
3600
3C00
ENDCHAR
STARTCHAR uni1EED
ENCODING 7917
SWIDTH 505 0
DWIDTH 6 0
BBX 7 9 0 0
BITMAP
38
16
04
68
D8
D8
D8
DA
FC
ENDCHAR
STARTCHAR uni1EEE
ENCODING 7918
SWIDTH 716 0
DWIDTH 9 0
BBX 10 11 0 0
BITMAP
0FC0
0240
3980
5980
9180
B100
3300
3300
2300
3600
3C00
ENDCHAR
STARTCHAR uni1EEF
ENCODING 7919
SWIDTH 505 0
DWIDTH 6 0
BBX 7 8 0 0
BITMAP
3E
44
6C
D8
D8
D8
DA
FC
ENDCHAR
STARTCHAR uni1EF0
ENCODING 7920
SWIDTH 716 0
DWIDTH 9 0
BBX 10 14 0 -3
BITMAP
0040
0040
39C0
5980
9180
B100
3300
3300
2300
3600
3C00
0000
1000
1800
ENDCHAR
STARTCHAR uni1EF1
ENCODING 7921
SWIDTH 505 0
DWIDTH 6 0
BBX 7 11 0 -3
BITMAP
02
04
6C
D8
D8
D8
DA
FC
00
60
60
ENDCHAR
STARTCHAR Ygrave
ENCODING 7922
SWIDTH 620 0
DWIDTH 7 0
BBX 8 12 0 0
BITMAP
04
02
00
39
59
9A
8E
0C
0C
0C
0C
18
ENDCHAR
STARTCHAR ygrave
ENCODING 7923
SWIDTH 505 0
DWIDTH 6 0
BBX 6 12 0 -3
BITMAP
30
10
00
6C
D8
D8
D8
DC
F8
70
B0
60
ENDCHAR
STARTCHAR uni1EF4
ENCODING 7924
SWIDTH 620 0
DWIDTH 7 0
BBX 8 12 0 -3
BITMAP
39
59
9A
8E
0C
0C
0C
0C
18
00
18
18
ENDCHAR
STARTCHAR uni1EF5
ENCODING 7925
SWIDTH 505 0
DWIDTH 6 0
BBX 6 9 0 -3
BITMAP
6C
D8
D8
D8
DC
F8
70
B8
6C
ENDCHAR
STARTCHAR uni1EF6
ENCODING 7926
SWIDTH 620 0
DWIDTH 7 0
BBX 8 12 0 0
BITMAP
07
01
02
39
59
9A
8E
0C
0C
0C
0C
18
ENDCHAR
STARTCHAR uni1EF7
ENCODING 7927
SWIDTH 505 0
DWIDTH 6 0
BBX 6 12 0 -3
BITMAP
38
10
00
6C
D8
D8
D8
DC
F8
70
B0
60
ENDCHAR
STARTCHAR uni1EF8
ENCODING 7928
SWIDTH 620 0
DWIDTH 7 0
BBX 9 11 0 0
BITMAP
0F80
0200
3900
5900
9A00
8E00
0C00
0C00
0C00
0C00
1800
ENDCHAR
STARTCHAR uni1EF9
ENCODING 7929
SWIDTH 505 0
DWIDTH 6 0
BBX 6 11 0 -3
BITMAP
7C
00
6C
D8
D8
D8
DC
F8
70
B0
60
ENDCHAR
STARTCHAR uni2010
ENCODING 8208
SWIDTH 290 0
DWIDTH 3 0
BBX 3 1 0 3
BITMAP
E0
ENDCHAR
STARTCHAR endash
ENCODING 8211
SWIDTH 352 0
DWIDTH 4 0
BBX 4 1 0 3
BITMAP
F0
ENDCHAR
STARTCHAR emdash
ENCODING 8212
SWIDTH 444 0
DWIDTH 5 0
BBX 5 1 0 3
BITMAP
F8
ENDCHAR
STARTCHAR quoteleft
ENCODING 8216
SWIDTH 209 0
DWIDTH 3 0
BBX 2 3 1 6
BITMAP
40
80
C0
ENDCHAR
STARTCHAR quoteright
ENCODING 8217
SWIDTH 238 0
DWIDTH 3 0
BBX 2 3 1 6
BITMAP
C0
40
80
ENDCHAR
STARTCHAR quotesinglbase
ENCODING 8218
SWIDTH 220 0
DWIDTH 3 0
BBX 2 3 0 -1
BITMAP
C0
80
80
ENDCHAR
STARTCHAR quotedblleft
ENCODING 8220
SWIDTH 429 0
DWIDTH 5 0
BBX 4 3 1 6
BITMAP
50
90
F0
ENDCHAR
STARTCHAR quotedblright
ENCODING 8221
SWIDTH 426 0
DWIDTH 5 0
BBX 4 3 1 6
BITMAP
D0
50
90
ENDCHAR
STARTCHAR quotedblbase
ENCODING 8222
SWIDTH 440 0
DWIDTH 5 0
BBX 4 3 0 -1
BITMAP
F0
90
A0
ENDCHAR
STARTCHAR dagger
ENCODING 8224
SWIDTH 495 0
DWIDTH 6 0
BBX 5 12 1 -3
BITMAP
30
20
20
28
F0
40
40
40
40
40
80
80
ENDCHAR
STARTCHAR daggerdbl
ENCODING 8225
SWIDTH 495 0
DWIDTH 6 0
BBX 6 12 0 -3
BITMAP
18
10
10
14
78
20
20
F8
20
20
40
40
ENDCHAR
STARTCHAR bullet
ENCODING 8226
SWIDTH 434 0
DWIDTH 5 0
BBX 3 2 1 2
BITMAP
E0
60
ENDCHAR
STARTCHAR ellipsis
ENCODING 8230
SWIDTH 702 0
DWIDTH 8 0
BBX 8 2 0 0
BITMAP
5B
DB
ENDCHAR
STARTCHAR perthousand
ENCODING 8240
SWIDTH 1175 0
DWIDTH 14 0
BBX 13 9 1 0
BITMAP
6200
A400
A400
A800
B338
D528
2548
2558
4670
ENDCHAR
STARTCHAR minute
ENCODING 8242
SWIDTH 196 0
DWIDTH 2 0
BBX 2 3 1 6
BITMAP
40
80
80
ENDCHAR
STARTCHAR second
ENCODING 8243
SWIDTH 341 0
DWIDTH 4 0
BBX 4 3 1 6
BITMAP
70
A0
A0
ENDCHAR
STARTCHAR guilsinglleft
ENCODING 8249
SWIDTH 359 0
DWIDTH 4 0
BBX 4 4 0 1
BITMAP
30
C0
40
20
ENDCHAR
STARTCHAR guilsinglright
ENCODING 8250
SWIDTH 344 0
DWIDTH 4 0
BBX 4 4 0 1
BITMAP
40
30
20
C0
ENDCHAR
STARTCHAR fraction
ENCODING 8260
SWIDTH 248 0
DWIDTH 3 0
BBX 6 9 -1 0
BITMAP
0C
08
10
10
20
20
40
40
80
ENDCHAR
STARTCHAR uni2052
ENCODING 8274
SWIDTH 796 0
DWIDTH 10 0
BBX 6 9 2 0
BITMAP
C4
88
08
10
20
20
40
4C
8C
ENDCHAR
STARTCHAR uni2070
ENCODING 8304
SWIDTH 379 0
DWIDTH 5 0
BBX 3 6 1 3
BITMAP
60
A0
A0
A0
A0
C0
ENDCHAR
STARTCHAR uni2074
ENCODING 8308
SWIDTH 352 0
DWIDTH 4 0
BBX 3 5 1 4
BITMAP
A0
A0
E0
40
40
ENDCHAR
STARTCHAR uni2075
ENCODING 8309
SWIDTH 335 0
DWIDTH 4 0
BBX 3 6 1 3
BITMAP
E0
80
C0
A0
A0
C0
ENDCHAR
STARTCHAR uni2076
ENCODING 8310
SWIDTH 351 0
DWIDTH 4 0
BBX 3 6 1 3
BITMAP
60
A0
E0
A0
A0
C0
ENDCHAR
STARTCHAR uni2077
ENCODING 8311
SWIDTH 329 0
DWIDTH 4 0
BBX 3 5 1 4
BITMAP
E0
40
80
80
80
ENDCHAR
STARTCHAR uni2078
ENCODING 8312
SWIDTH 354 0
DWIDTH 4 0
BBX 3 6 1 3
BITMAP
60
A0
40
A0
A0
C0
ENDCHAR
STARTCHAR uni2079
ENCODING 8313
SWIDTH 345 0
DWIDTH 4 0
BBX 3 6 1 3
BITMAP
E0
A0
A0
E0
C0
80
ENDCHAR
STARTCHAR uni2080
ENCODING 8320
SWIDTH 379 0
DWIDTH 5 0
BBX 3 5 1 0
BITMAP
60
A0
A0
A0
C0
ENDCHAR
STARTCHAR uni2081
ENCODING 8321
SWIDTH 229 0
DWIDTH 3 0
BBX 2 5 1 0
BITMAP
C0
80
80
80
80
ENDCHAR
STARTCHAR uni2082
ENCODING 8322
SWIDTH 328 0
DWIDTH 4 0
BBX 3 5 1 0
BITMAP
E0
A0
40
80
E0
ENDCHAR
STARTCHAR uni2083
ENCODING 8323
SWIDTH 336 0
DWIDTH 4 0
BBX 3 5 1 0
BITMAP
E0
A0
40
A0
C0
ENDCHAR
STARTCHAR uni2084
ENCODING 8324
SWIDTH 352 0
DWIDTH 4 0
BBX 3 5 1 0
BITMAP
A0
A0
E0
40
40
ENDCHAR
STARTCHAR uni2085
ENCODING 8325
SWIDTH 335 0
DWIDTH 4 0
BBX 3 5 1 0
BITMAP
E0
80
E0
A0
C0
ENDCHAR
STARTCHAR uni2086
ENCODING 8326
SWIDTH 351 0
DWIDTH 4 0
BBX 3 5 1 0
BITMAP
60
A0
E0
A0
C0
ENDCHAR
STARTCHAR uni2087
ENCODING 8327
SWIDTH 329 0
DWIDTH 4 0
BBX 3 5 1 0
BITMAP
E0
40
80
80
80
ENDCHAR
STARTCHAR uni2088
ENCODING 8328
SWIDTH 354 0
DWIDTH 4 0
BBX 3 5 1 0
BITMAP
60
A0
40
A0
E0
ENDCHAR
STARTCHAR uni2089
ENCODING 8329
SWIDTH 345 0
DWIDTH 4 0
BBX 3 5 1 0
BITMAP
E0
A0
E0
20
C0
ENDCHAR
STARTCHAR colonmonetary
ENCODING 8353
SWIDTH 384 0
DWIDTH 5 0
BBX 5 8 0 0
BITMAP
28
38
48
C0
C0
C0
70
60
ENDCHAR
STARTCHAR franc
ENCODING 8355
SWIDTH 529 0
DWIDTH 6 0
BBX 7 9 0 0
BITMAP
1E
10
30
30
3C
30
F8
60
60
ENDCHAR
STARTCHAR lira
ENCODING 8356
SWIDTH 455 0
DWIDTH 5 0
BBX 6 9 0 0
BITMAP
1C
34
30
78
20
F8
60
64
FC
ENDCHAR
STARTCHAR uni20A6
ENCODING 8358
SWIDTH 723 0
DWIDTH 9 0
BBX 9 9 0 0
BITMAP
1980
1900
1900
3900
7F80
FF80
2E00
6600
4600
ENDCHAR
STARTCHAR uni20A9
ENCODING 8361
SWIDTH 841 0
DWIDTH 10 0
BBX 11 9 0 0
BITMAP
2320
2320
2740
2740
7FE0
FFE0
2B80
3300
3300
ENDCHAR
STARTCHAR Euro
ENCODING 8364
SWIDTH 507 0
DWIDTH 6 0
BBX 7 9 0 0
BITMAP
0E
32
26
7C
60
FC
60
60
3C
ENDCHAR
STARTCHAR uni20AE
ENCODING 8366
SWIDTH 481 0
DWIDTH 6 0
BBX 9 9 0 0
BITMAP
3C80
5B00
9800
9800
3E00
5C00
F000
3000
3000
ENDCHAR
STARTCHAR uni20B3
ENCODING 8371
SWIDTH 573 0
DWIDTH 7 0
BBX 7 9 0 0
BITMAP
3C
52
92
B2
34
78
78
60
60
ENDCHAR
STARTCHAR uni20B4
ENCODING 8372
SWIDTH 570 0
DWIDTH 7 0
BBX 7 9 0 0
BITMAP
3C
44
6C
7E
FC
60
CC
44
78
ENDCHAR
STARTCHAR uni20B8
ENCODING 8376
SWIDTH 522 0
DWIDTH 6 0
BBX 9 9 0 0
BITMAP
7F80
3C80
4F00
D800
9800
5800
1800
1000
3000
ENDCHAR
STARTCHAR uni20B9
ENCODING 8377
SWIDTH 544 0
DWIDTH 7 0
BBX 6 9 1 0
BITMAP
FC
FC
10
30
E0
30
30
20
70
ENDCHAR
STARTCHAR uni20BA
ENCODING 8378
SWIDTH 455 0
DWIDTH 5 0
BBX 6 9 0 0
BITMAP
10
30
38
FC
30
E4
64
6C
70
ENDCHAR
STARTCHAR uni20BD
ENCODING 8381
SWIDTH 573 0
DWIDTH 7 0
BBX 7 9 0 0
BITMAP
3C
52
92
B2
34
78
F8
60
60
ENDCHAR
STARTCHAR uni2116
ENCODING 8470
SWIDTH 996 0
DWIDTH 12 0
BBX 12 9 0 0
BITMAP
3980
5930
9950
B950
6F60
2EE0
2E00
6600
4600
ENDCHAR
STARTCHAR uni2120
ENCODING 8480
SWIDTH 585 0
DWIDTH 7 0
BBX 6 4 1 5
BITMAP
44
78
D8
78
ENDCHAR
STARTCHAR trademark
ENCODING 8482
SWIDTH 379 0
DWIDTH 5 0
BBX 4 3 0 5
BITMAP
F0
B0
B0
ENDCHAR
STARTCHAR uni2126
ENCODING 8486
SWIDTH 745 0
DWIDTH 9 0
BBX 8 9 0 0
BITMAP
0E
11
21
41
41
41
42
24
EF
ENDCHAR
STARTCHAR uni212A
ENCODING 8490
SWIDTH 601 0
DWIDTH 7 0
BBX 8 9 0 0
BITMAP
3B
52
94
B8
BC
36
24
6C
6C
ENDCHAR
STARTCHAR uni212B
ENCODING 8491
SWIDTH 668 0
DWIDTH 8 0
BBX 9 13 0 -1
BITMAP
0100
0180
0100
0700
0B00
0B00
7E00
F200
2600
2600
6600
6400
6000
ENDCHAR
STARTCHAR estimated
ENCODING 8494
SWIDTH 786 0
DWIDTH 9 0
BBX 9 9 0 0
BITMAP
1E00
2100
6100
6180
FF80
6000
6000
2100
1E00
ENDCHAR
STARTCHAR uni2153
ENCODING 8531
SWIDTH 733 0
DWIDTH 9 0
BBX 8 9 1 0
BITMAP
44
88
88
90
96
A5
22
4F
C6
ENDCHAR
STARTCHAR uni2154
ENCODING 8532
SWIDTH 852 0
DWIDTH 10 0
BBX 9 9 1 0
BITMAP
E300
A200
4400
8400
E980
0A80
1100
2280
2380
ENDCHAR
STARTCHAR oneeighth
ENCODING 8539
SWIDTH 741 0
DWIDTH 9 0
BBX 8 9 1 0
BITMAP
44
88
88
90
97
A5
26
4B
C6
ENDCHAR
STARTCHAR threeeighths
ENCODING 8540
SWIDTH 828 0
DWIDTH 10 0
BBX 9 9 1 0
BITMAP
E200
A400
4400
A800
CB80
1280
1300
2480
6300
ENDCHAR
STARTCHAR fiveeighths
ENCODING 8541
SWIDTH 827 0
DWIDTH 10 0
BBX 9 9 1 0
BITMAP
E200
8400
C400
A800
AB80
D280
1300
2480
6300
ENDCHAR
STARTCHAR seveneighths
ENCODING 8542
SWIDTH 761 0
DWIDTH 9 0
BBX 8 9 1 0
BITMAP
E4
44
88
88
97
25
26
49
46
ENDCHAR
STARTCHAR partialdiff
ENCODING 8706
SWIDTH 597 0
DWIDTH 7 0
BBX 7 9 0 0
BITMAP
1C
12
02
02
3E
42
44
C8
70
ENDCHAR
STARTCHAR uni2206
ENCODING 8710
SWIDTH 619 0
DWIDTH 7 0
BBX 7 9 0 0
BITMAP
04
0C
14
16
22
22
42
C2
FE
ENDCHAR
STARTCHAR product
ENCODING 8719
SWIDTH 661 0
DWIDTH 8 0
BBX 8 9 0 0
BITMAP
FF
24
24
44
48
48
48
88
90
ENDCHAR
STARTCHAR summation
ENCODING 8721
SWIDTH 605 0
DWIDTH 7 0
BBX 7 9 0 0
BITMAP
3E
20
10
10
08
10
20
40
FC
ENDCHAR
STARTCHAR minus
ENCODING 8722
SWIDTH 471 0
DWIDTH 6 0
BBX 5 1 0 4
BITMAP
F8
ENDCHAR
STARTCHAR uni2215
ENCODING 8725
SWIDTH 488 0
DWIDTH 6 0
BBX 6 9 0 0
BITMAP
04
08
08
10
20
20
40
40
80
ENDCHAR
STARTCHAR uni2219
ENCODING 8729
SWIDTH 434 0
DWIDTH 5 0
BBX 3 2 1 2
BITMAP
E0
60
ENDCHAR
STARTCHAR radical
ENCODING 8730
SWIDTH 660 0
DWIDTH 8 0
BBX 8 8 0 1
BITMAP
07
08
08
08
10
D0
60
60
ENDCHAR
STARTCHAR infinity
ENCODING 8734
SWIDTH 833 0
DWIDTH 10 0
BBX 9 4 0 1
BITMAP
3300
4C80
DC80
6700
ENDCHAR
STARTCHAR integral
ENCODING 8747
SWIDTH 305 0
DWIDTH 4 0
BBX 6 12 -1 -2
BITMAP
0C
10
10
10
20
20
20
20
20
40
40
C0
ENDCHAR
STARTCHAR approxequal
ENCODING 8776
SWIDTH 441 0
DWIDTH 5 0
BBX 5 4 0 1
BITMAP
68
18
00
F8
ENDCHAR
STARTCHAR notequal
ENCODING 8800
SWIDTH 500 0
DWIDTH 6 0
BBX 6 6 0 0
BITMAP
10
7C
20
20
78
A0
ENDCHAR
STARTCHAR lessequal
ENCODING 8804
SWIDTH 405 0
DWIDTH 5 0
BBX 5 6 0 1
BITMAP
08
30
40
30
00
F0
ENDCHAR
STARTCHAR greaterequal
ENCODING 8805
SWIDTH 405 0
DWIDTH 5 0
BBX 5 6 0 1
BITMAP
40
30
18
60
00
F0
ENDCHAR
STARTCHAR lozenge
ENCODING 9674
SWIDTH 619 0
DWIDTH 7 0
BBX 7 9 0 0
BITMAP
08
14
24
46
C2
44
48
38
30
ENDCHAR
STARTCHAR uni27E8
ENCODING 10216
SWIDTH 456 0
DWIDTH 5 0
BBX 4 12 1 -2
BITMAP
10
10
20
40
80
80
80
40
40
20
20
10
ENDCHAR
STARTCHAR uni27E9
ENCODING 10217
SWIDTH 456 0
DWIDTH 5 0
BBX 5 12 0 -1
BITMAP
40
40
20
20
10
08
08
10
20
20
40
80
ENDCHAR
STARTCHAR ff
ENCODING 64256
SWIDTH 508 0
DWIDTH 6 0
BBX 11 12 -3 -3
BITMAP
06C0
0DA0
0D80
0FC0
1B00
1B00
1B00
1B00
1200
7E00
B600
7C00
ENDCHAR
STARTCHAR fi
ENCODING 64257
SWIDTH 534 0
DWIDTH 6 0
BBX 9 12 -2 -3
BITMAP
0F00
1B00
1800
1F00
1200
3600
3600
3680
2700
E000
E000
C000
ENDCHAR
STARTCHAR fl
ENCODING 64258
SWIDTH 548 0
DWIDTH 7 0
BBX 10 12 -3 -3
BITMAP
0700
0C80
0D80
0F80
1980
1900
1B00
1B40
1180
7000
B000
6000
ENDCHAR
STARTCHAR ffi
ENCODING 64259
SWIDTH 764 0
DWIDTH 9 0
BBX 13 12 -3 -3
BITMAP
06E0
0DB0
0D00
0FF0
1B20
1B60
1B60
1A68
1E70
7600
B600
7C00
ENDCHAR
STARTCHAR ffl
ENCODING 64260
SWIDTH 780 0
DWIDTH 9 0
BBX 13 12 -3 -3
BITMAP
07E0
0DB0
0D30
0FB0
1B20
1B60
1B60
1A68
1E70
7600
B600
7C00
ENDCHAR
STARTCHAR .notdef
ENCODING -1
SWIDTH 810 0
DWIDTH 10 0
BBX 10 16 0 -3
BITMAP
1FC0
1040
2040
2080
2080
2C80
2A80
4500
4900
4100
4900
4100
8200
8200
8200
FE00
ENDCHAR
STARTCHAR A.salt
ENCODING -1
SWIDTH 590 0
DWIDTH 7 0
BBX 7 10 0 -1
BITMAP
06
0E
16
26
3C
64
4C
CC
CC
C0
ENDCHAR
STARTCHAR B.salt
ENCODING -1
SWIDTH 633 0
DWIDTH 8 0
BBX 7 9 0 0
BITMAP
3C
52
96
BE
36
36
26
64
7C
ENDCHAR
STARTCHAR E.salt
ENCODING -1
SWIDTH 554 0
DWIDTH 7 0
BBX 7 9 0 0
BITMAP
3E
50
B0
B0
3C
30
20
60
7C
ENDCHAR
STARTCHAR N.salt
ENCODING -1
SWIDTH 669 0
DWIDTH 8 0
BBX 9 9 0 0
BITMAP
3E00
5300
B300
B200
3600
3600
6600
6680
6700
ENDCHAR
STARTCHAR i.loclTRK
ENCODING -1
SWIDTH 267 0
DWIDTH 3 0
BBX 4 8 0 0
BITMAP
60
60
40
C0
C0
C0
D0
E0
ENDCHAR
STARTCHAR a.end
ENCODING -1
SWIDTH 467 0
DWIDTH 6 0
BBX 6 6 0 0
BITMAP
7C
48
C8
D8
D8
FC
ENDCHAR
STARTCHAR aacute.end
ENCODING -1
SWIDTH 461 0
DWIDTH 6 0
BBX 6 9 0 0
BITMAP
08
10
00
7C
48
D8
D8
D8
FC
ENDCHAR
STARTCHAR c.end
ENCODING -1
SWIDTH 341 0
DWIDTH 4 0
BBX 4 6 0 0
BITMAP
70
50
C0
C0
D0
E0
ENDCHAR
STARTCHAR d.end
ENCODING -1
SWIDTH 476 0
DWIDTH 6 0
BBX 6 8 0 0
BITMAP
0C
0C
7C
48
C8
D8
D8
FC
ENDCHAR
STARTCHAR e.end
ENCODING -1
SWIDTH 366 0
DWIDTH 4 0
BBX 4 6 0 0
BITMAP
70
50
D0
E0
C0
F0
ENDCHAR
STARTCHAR eacute.end
ENCODING -1
SWIDTH 367 0
DWIDTH 4 0
BBX 5 9 0 0
BITMAP
18
10
20
70
50
D0
E0
C0
F0
ENDCHAR
STARTCHAR uni0292.end
ENCODING -1
SWIDTH 391 0
DWIDTH 5 0
BBX 5 9 0 -3
BITMAP
F8
B0
20
60
60
30
70
A0
E0
ENDCHAR
STARTCHAR g.end
ENCODING -1
SWIDTH 480 0
DWIDTH 6 0
BBX 6 9 0 -3
BITMAP
7C
48
C8
D8
D8
F8
50
70
70
ENDCHAR
STARTCHAR uni01E5.end
ENCODING -1
SWIDTH 507 0
DWIDTH 6 0
BBX 6 9 0 -3
BITMAP
7C
48
C8
D8
D8
F8
50
F8
70
ENDCHAR
STARTCHAR h.end
ENCODING -1
SWIDTH 453 0
DWIDTH 5 0
BBX 5 8 0 0
BITMAP
60
60
78
D8
D8
D8
D8
98
ENDCHAR
STARTCHAR i.end
ENCODING -1
SWIDTH 209 0
DWIDTH 3 0
BBX 3 9 0 0
BITMAP
60
60
00
60
C0
C0
C0
E0
C0
ENDCHAR
STARTCHAR iacute.end
ENCODING -1
SWIDTH 209 0
DWIDTH 3 0
BBX 4 9 0 0
BITMAP
30
20
40
60
C0
C0
C0
E0
C0
ENDCHAR
STARTCHAR ij.end
ENCODING -1
SWIDTH 480 0
DWIDTH 6 0
BBX 6 11 0 -3
BITMAP
6C
6C
4C
C8
D8
D8
F8
D8
70
70
70
ENDCHAR
STARTCHAR j.end
ENCODING -1
SWIDTH 213 0
DWIDTH 3 0
BBX 6 11 -3 -3
BITMAP
0C
0C
08
18
18
18
18
10
70
B0
60
ENDCHAR
STARTCHAR k.end
ENCODING -1
SWIDTH 472 0
DWIDTH 6 0
BBX 6 8 0 0
BITMAP
60
60
4C
50
F8
D8
D8
9C
ENDCHAR
STARTCHAR l.end
ENCODING -1
SWIDTH 207 0
DWIDTH 2 0
BBX 3 8 0 0
BITMAP
60
60
60
40
C0
C0
C0
C0
ENDCHAR
STARTCHAR m.end
ENCODING -1
SWIDTH 701 0
DWIDTH 8 0
BBX 8 6 0 0
BITMAP
7F
DB
DB
DB
DB
93
ENDCHAR
STARTCHAR n.end
ENCODING -1
SWIDTH 454 0
DWIDTH 5 0
BBX 5 6 0 0
BITMAP
78
D8
D8
D8
D8
98
ENDCHAR
STARTCHAR o.end
ENCODING -1
SWIDTH 487 0
DWIDTH 6 0
BBX 6 6 0 0
BITMAP
70
4C
D8
D0
D0
E0
ENDCHAR
STARTCHAR oacute.end
ENCODING -1
SWIDTH 487 0
DWIDTH 6 0
BBX 6 9 0 0
BITMAP
18
10
00
70
4C
D8
D0
D0
E0
ENDCHAR
STARTCHAR s.end
ENCODING -1
SWIDTH 316 0
DWIDTH 4 0
BBX 4 6 0 0
BITMAP
30
70
70
B0
B0
E0
ENDCHAR
STARTCHAR t.end
ENCODING -1
SWIDTH 276 0
DWIDTH 3 0
BBX 3 8 0 0
BITMAP
60
60
E0
40
C0
C0
C0
C0
ENDCHAR
STARTCHAR u.end
ENCODING -1
SWIDTH 459 0
DWIDTH 6 0
BBX 6 6 0 0
BITMAP
6C
D8
D8
D8
D8
F8
ENDCHAR
STARTCHAR uacute.end
ENCODING -1
SWIDTH 459 0
DWIDTH 6 0
BBX 6 9 0 0
BITMAP
18
10
00
6C
D8
D8
D8
D8
F8
ENDCHAR
STARTCHAR x.end
ENCODING -1
SWIDTH 500 0
DWIDTH 6 0
BBX 6 6 0 0
BITMAP
34
54
98
B0
38
DC
ENDCHAR
STARTCHAR y.end
ENCODING -1
SWIDTH 460 0
DWIDTH 6 0
BBX 6 9 0 -3
BITMAP
6C
D8
D8
D8
D8
F0
70
B0
60
ENDCHAR
STARTCHAR k.salt
ENCODING -1
SWIDTH 518 0
DWIDTH 6 0
BBX 7 8 0 0
BITMAP
60
60
58
78
D8
D8
DA
9C
ENDCHAR
STARTCHAR p.salt
ENCODING -1
SWIDTH 482 0
DWIDTH 6 0
BBX 7 10 -1 -3
BITMAP
30
3C
64
64
6E
7C
58
C0
C0
C0
ENDCHAR
STARTCHAR E_x
ENCODING -1
SWIDTH 797 0
DWIDTH 10 0
BBX 10 9 0 0
BITMAP
1C00
2400
2C80
3280
6280
C300
C300
C740
7980
ENDCHAR
STARTCHAR F_i
ENCODING -1
SWIDTH 726 0
DWIDTH 9 0
BBX 9 9 0 0
BITMAP
3F80
5B00
9000
B300
BF00
3300
3200
2680
6300
ENDCHAR
STARTCHAR T_h
ENCODING -1
SWIDTH 971 0
DWIDTH 12 0
BBX 12 9 0 0
BITMAP
3F80
5900
9900
9BC0
1B60
1360
3240
3250
3660
ENDCHAR
STARTCHAR T_i
ENCODING -1
SWIDTH 744 0
DWIDTH 9 0
BBX 9 9 0 0
BITMAP
3F80
5B00
9800
9B00
1B00
1300
3300
3280
3300
ENDCHAR
STARTCHAR a_x
ENCODING -1
SWIDTH 899 0
DWIDTH 11 0
BBX 11 6 0 0
BITMAP
7D60
49A0
C9C0
D980
DBA0
ECC0
ENDCHAR
STARTCHAR a_z
ENCODING -1
SWIDTH 906 0
DWIDTH 11 0
BBX 11 6 0 0
BITMAP
7DE0
4BC0
C880
D980
D940
FFC0
ENDCHAR
STARTCHAR b_s
ENCODING -1
SWIDTH 799 0
DWIDTH 10 0
BBX 10 8 0 0
BITMAP
6000
6000
7B80
5D80
C980
DDC0
D580
E700
ENDCHAR
STARTCHAR b_s_x
ENCODING -1
SWIDTH 1144 0
DWIDTH 14 0
BBX 14 9 0 0
BITMAP
2000
6000
6008
5BA4
DDB8
C9B0
DDB4
D5F4
E718
ENDCHAR
STARTCHAR b_s_z
ENCODING -1
SWIDTH 1158 0
DWIDTH 14 0
BBX 14 8 0 0
BITMAP
6000
6000
7BBC
5DD8
C990
DDB0
D5A8
E778
ENDCHAR
STARTCHAR c_x
ENCODING -1
SWIDTH 755 0
DWIDTH 9 0
BBX 10 6 0 0
BITMAP
7780
D680
C700
C240
CE80
F380
ENDCHAR
STARTCHAR c_z
ENCODING -1
SWIDTH 769 0
DWIDTH 9 0
BBX 9 6 0 0
BITMAP
7780
5500
C300
C200
D680
EF00
ENDCHAR
STARTCHAR e_x
ENCODING -1
SWIDTH 762 0
DWIDTH 9 0
BBX 10 6 0 0
BITMAP
7780
5680
D700
E200
C740
FB80
ENDCHAR
STARTCHAR e_z
ENCODING -1
SWIDTH 788 0
DWIDTH 9 0
BBX 9 6 0 0
BITMAP
7780
D580
D300
E200
D680
EF80
ENDCHAR
STARTCHAR eacute_x
ENCODING -1
SWIDTH 760 0
DWIDTH 9 0
BBX 10 9 0 0
BITMAP
0800
1000
1000
7780
5680
D700
E200
C640
FB80
ENDCHAR
STARTCHAR f_f_t
ENCODING -1
SWIDTH 780 0
DWIDTH 9 0
BBX 13 12 -3 -3
BITMAP
07E0
0DB0
0D30
0FF0
1B20
1B60
1B60
1A68
1E70
7600
B600
7C00
ENDCHAR
STARTCHAR f_i_x
ENCODING -1
SWIDTH 898 0
DWIDTH 11 0
BBX 13 12 -2 -3
BITMAP
0F00
1B00
1810
1F58
1270
3670
3660
36E8
2730
E000
E000
C000
ENDCHAR
STARTCHAR f_i_z
ENCODING -1
SWIDTH 904 0
DWIDTH 11 0
BBX 13 12 -2 -3
BITMAP
0F00
1B00
1800
1F78
12F0
3620
3660
3650
27F0
E000
E000
C000
ENDCHAR
STARTCHAR f_l_x
ENCODING -1
SWIDTH 912 0
DWIDTH 11 0
BBX 14 12 -3 -3
BITMAP
0700
0C80
0D80
0FBC
19B4
1938
1B30
1B74
1198
7000
B000
6000
ENDCHAR
STARTCHAR f_l_z
ENCODING -1
SWIDTH 938 0
DWIDTH 11 0
BBX 14 12 -3 -3
BITMAP
0700
0C80
0D80
0FBC
19A8
1918
1B10
1B34
11F8
7000
B000
6000
ENDCHAR
STARTCHAR f_t
ENCODING -1
SWIDTH 548 0
DWIDTH 7 0
BBX 10 12 -3 -3
BITMAP
0700
0C80
0D80
0FC0
1980
1900
1B00
1B40
1380
7000
B000
6000
ENDCHAR
STARTCHAR f_u
ENCODING -1
SWIDTH 772 0
DWIDTH 9 0
BBX 13 12 -3 -3
BITMAP
0600
0D00
0C00
0FB0
1920
1960
1B60
1B68
13F0
7000
B000
6000
ENDCHAR
STARTCHAR f_x
ENCODING -1
SWIDTH 663 0
DWIDTH 8 0
BBX 11 12 -3 -3
BITMAP
0600
0D00
0C00
0FE0
19A0
19C0
1980
1AA0
12E0
7000
B000
6000
ENDCHAR
STARTCHAR g_p
ENCODING -1
SWIDTH 975 0
DWIDTH 12 0
BBX 11 10 0 -3
BITMAP
0180
7DE0
4920
CB20
DB60
DB60
FFC0
3200
7600
7600
ENDCHAR
STARTCHAR g_x
ENCODING -1
SWIDTH 892 0
DWIDTH 11 0
BBX 11 9 0 -3
BITMAP
7D60
4940
C9C0
D980
DBA0
FCC0
3000
7000
7000
ENDCHAR
STARTCHAR g_z
ENCODING -1
SWIDTH 907 0
DWIDTH 11 0
BBX 11 9 0 -3
BITMAP
7DE0
4BC0
C880
D980
D940
FBC0
5000
7000
7000
ENDCHAR
STARTCHAR i_x
ENCODING -1
SWIDTH 631 0
DWIDTH 8 0
BBX 8 9 0 0
BITMAP
60
60
02
7A
CA
CC
CC
DD
E6
ENDCHAR
STARTCHAR i_z
ENCODING -1
SWIDTH 637 0
DWIDTH 8 0
BBX 8 9 0 0
BITMAP
60
60
00
7F
D6
C4
CC
DA
FE
ENDCHAR
STARTCHAR iacute_x
ENCODING -1
SWIDTH 631 0
DWIDTH 8 0
BBX 8 9 0 0
BITMAP
30
60
02
7A
CA
CC
CC
DD
E6
ENDCHAR
STARTCHAR iacute_z
ENCODING -1
SWIDTH 637 0
DWIDTH 8 0
BBX 8 9 0 0
BITMAP
30
20
40
6F
D6
C4
CC
DA
FE
ENDCHAR
STARTCHAR j_x
ENCODING -1
SWIDTH 624 0
DWIDTH 7 0
BBX 10 11 -2 -3
BITMAP
1800
1800
1680
3280
3280
3300
3740
3980
6000
E000
C000
ENDCHAR
STARTCHAR j_z
ENCODING -1
SWIDTH 618 0
DWIDTH 7 0
BBX 9 11 -2 -3
BITMAP
1800
1800
1780
1580
3300
3200
3680
2F80
E000
E000
C000
ENDCHAR
STARTCHAR l_x
ENCODING -1
SWIDTH 631 0
DWIDTH 8 0
BBX 8 9 0 0
BITMAP
20
60
62
5A
CA
CC
CC
DD
E6
ENDCHAR
STARTCHAR l_z
ENCODING -1
SWIDTH 635 0
DWIDTH 8 0
BBX 8 8 0 0
BITMAP
60
60
5F
D6
C4
CC
DA
FE
ENDCHAR
STARTCHAR m_x
ENCODING -1
SWIDTH 1124 0
DWIDTH 13 0
BBX 14 6 0 0
BITMAP
7F68
DB28
DB30
DB30
DB74
9398
ENDCHAR
STARTCHAR m_z
ENCODING -1
SWIDTH 1125 0
DWIDTH 14 0
BBX 14 6 0 0
BITMAP
7F7C
DB58
DB30
DB30
DB68
93F8
ENDCHAR
STARTCHAR n_z
ENCODING -1
SWIDTH 882 0
DWIDTH 11 0
BBX 11 6 0 0
BITMAP
7BE0
DAC0
D980
D980
DB40
9FC0
ENDCHAR
STARTCHAR o_ae
ENCODING -1
SWIDTH 1089 0
DWIDTH 13 0
BBX 13 6 0 0
BITMAP
73F8
5C68
CBD8
D6E0
D6C8
E770
ENDCHAR
STARTCHAR o_s
ENCODING -1
SWIDTH 786 0
DWIDTH 9 0
BBX 10 6 0 0
BITMAP
7300
5D00
C980
D5C0
D580
E700
ENDCHAR
STARTCHAR o_s_x
ENCODING -1
SWIDTH 1132 0
DWIDTH 14 0
BBX 14 6 0 0
BITMAP
7368
5D28
C9B0
D5B4
D5F4
E718
ENDCHAR
STARTCHAR o_s_z
ENCODING -1
SWIDTH 1139 0
DWIDTH 14 0
BBX 14 6 0 0
BITMAP
737C
5D58
C990
D5B0
D5E8
E778
ENDCHAR
STARTCHAR o_x
ENCODING -1
SWIDTH 851 0
DWIDTH 10 0
BBX 11 6 0 0
BITMAP
7340
4F40
DB80
D300
D520
E5C0
ENDCHAR
STARTCHAR oacute_s
ENCODING -1
SWIDTH 787 0
DWIDTH 9 0
BBX 10 9 0 0
BITMAP
1800
1000
0000
7300
5D00
C980
D5C0
D580
E700
ENDCHAR
STARTCHAR oacute_s_x
ENCODING -1
SWIDTH 1141 0
DWIDTH 14 0
BBX 14 9 0 0
BITMAP
0800
1000
0000
733C
5D58
C990
D5B0
D5E8
E778
ENDCHAR
STARTCHAR oacute_s_z
ENCODING -1
SWIDTH 1140 0
DWIDTH 14 0
BBX 14 9 0 0
BITMAP
1800
1000
0000
737C
5D58
C990
D5B0
D5E8
E778
ENDCHAR
STARTCHAR oacute_x
ENCODING -1
SWIDTH 852 0
DWIDTH 10 0
BBX 11 9 0 0
BITMAP
0800
1000
1000
7340
4F40
DB80
D300
D520
E5C0
ENDCHAR
STARTCHAR r_x
ENCODING -1
SWIDTH 784 0
DWIDTH 9 0
BBX 10 7 0 0
BITMAP
0080
7E80
D680
C300
C600
CB40
8B80
ENDCHAR
STARTCHAR r_z
ENCODING -1
SWIDTH 654 0
DWIDTH 8 0
BBX 8 6 0 0
BITMAP
7F
D6
C4
CC
CA
9E
ENDCHAR
STARTCHAR s_x
ENCODING -1
SWIDTH 727 0
DWIDTH 9 0
BBX 9 7 0 0
BITMAP
0100
7480
7700
B600
B600
BE80
E300
ENDCHAR
STARTCHAR s_z
ENCODING -1
SWIDTH 744 0
DWIDTH 9 0
BBX 9 6 0 0
BITMAP
3780
7F00
7300
B600
B500
EF00
ENDCHAR
STARTCHAR t_x
ENCODING -1
SWIDTH 631 0
DWIDTH 8 0
BBX 8 7 0 0
BITMAP
60
FA
4A
CA
CC
DD
E6
ENDCHAR
STARTCHAR t_z
ENCODING -1
SWIDTH 704 0
DWIDTH 8 0
BBX 8 8 0 0
BITMAP
60
60
EF
4B
C6
C4
CD
DF
ENDCHAR
STARTCHAR u_v
ENCODING -1
SWIDTH 923 0
DWIDTH 11 0
BBX 11 6 0 0
BITMAP
6FE0
D920
DB20
DB40
DB40
F380
ENDCHAR
STARTCHAR u_x
ENCODING -1
SWIDTH 878 0
DWIDTH 11 0
BBX 11 7 0 0
BITMAP
0040
6F40
D940
D980
D980
DBA0
FCC0
ENDCHAR
STARTCHAR y_p
ENCODING -1
SWIDTH 954 0
DWIDTH 11 0
BBX 11 10 0 -3
BITMAP
0100
6DE0
DB60
DB60
DB60
DA60
FFC0
7600
B600
6600
ENDCHAR
STARTCHAR y_x
ENCODING -1
SWIDTH 871 0
DWIDTH 10 0
BBX 11 9 0 -3
BITMAP
6F40
D940
D940
D980
DBA0
FCC0
7000
B000
6000
ENDCHAR
STARTCHAR y_z
ENCODING -1
SWIDTH 888 0
DWIDTH 11 0
BBX 11 9 0 -3
BITMAP
6FE0
DAC0
D880
D980
DB40
F3C0
7000
B000
6000
ENDCHAR
STARTCHAR a_x.end
ENCODING -1
SWIDTH 884 0
DWIDTH 11 0
BBX 11 6 0 0
BITMAP
7D60
49A0
C9C0
D980
DB80
ECC0
ENDCHAR
STARTCHAR b_s.end
ENCODING -1
SWIDTH 731 0
DWIDTH 9 0
BBX 9 8 0 0
BITMAP
6000
6000
7B80
5D80
C980
DD80
D580
E700
ENDCHAR
STARTCHAR e_x.end
ENCODING -1
SWIDTH 747 0
DWIDTH 9 0
BBX 9 6 0 0
BITMAP
7780
5680
D700
E200
C600
FB80
ENDCHAR
STARTCHAR f_u.end
ENCODING -1
SWIDTH 724 0
DWIDTH 9 0
BBX 12 12 -3 -3
BITMAP
0600
0D00
0C00
0FB0
1920
1960
1B60
1B60
13F0
7000
B000
6000
ENDCHAR
STARTCHAR fi.end
ENCODING -1
SWIDTH 479 0
DWIDTH 6 0
BBX 8 12 -2 -3
BITMAP
0F
1B
18
1F
12
36
36
36
27
E0
E0
C0
ENDCHAR
STARTCHAR fl.end
ENCODING -1
SWIDTH 490 0
DWIDTH 6 0
BBX 9 12 -3 -3
BITMAP
0700
0C80
0D80
0F80
1980
1900
1B00
1B00
1180
7000
B000
6000
ENDCHAR
STARTCHAR i_x.end
ENCODING -1
SWIDTH 616 0
DWIDTH 7 0
BBX 7 9 0 0
BITMAP
60
60
02
7A
CA
CC
CC
DC
E6
ENDCHAR
STARTCHAR o_s.end
ENCODING -1
SWIDTH 718 0
DWIDTH 9 0
BBX 9 6 0 0
BITMAP
7300
5D00
C980
D580
D580
E700
ENDCHAR
STARTCHAR oacute_s.end
ENCODING -1
SWIDTH 719 0
DWIDTH 9 0
BBX 9 9 0 0
BITMAP
1800
1000
0000
7300
5D00
C980
D580
D580
E700
ENDCHAR
STARTCHAR u_x.end
ENCODING -1
SWIDTH 863 0
DWIDTH 10 0
BBX 10 6 0 0
BITMAP
6F40
D940
D940
D980
DB80
FCC0
ENDCHAR
STARTCHAR uni0424.loclBGR
ENCODING -1
SWIDTH 840 0
DWIDTH 10 0
BBX 10 11 0 -1
BITMAP
1E00
2600
2600
3D80
64C0
CCC0
CCC0
CCC0
4980
3F00
1800
ENDCHAR
STARTCHAR uni0492.loclBSH
ENCODING -1
SWIDTH 459 0
DWIDTH 6 0
BBX 7 9 0 0
BITMAP
3E
50
B0
B0
BC
30
20
60
60
ENDCHAR
STARTCHAR uni04AA.loclCHU
ENCODING -1
SWIDTH 497 0
DWIDTH 6 0
BBX 6 12 0 -3
BITMAP
1C
34
64
60
C0
C0
C0
E4
78
20
10
30
ENDCHAR
STARTCHAR uni0418.loclSRB
ENCODING -1
SWIDTH 705 0
DWIDTH 8 0
BBX 9 9 0 0
BITMAP
3980
5900
9300
B700
3F00
3B00
3200
2600
6600
ENDCHAR
STARTCHAR uni0419.loclSRB
ENCODING -1
SWIDTH 705 0
DWIDTH 8 0
BBX 9 11 0 0
BITMAP
0D00
0600
3980
5900
9300
B700
3F00
3B00
3200
2600
6600
ENDCHAR
STARTCHAR uni0430.end
ENCODING -1
SWIDTH 467 0
DWIDTH 6 0
BBX 6 6 0 0
BITMAP
7C
48
C8
D8
D8
FC
ENDCHAR
STARTCHAR uni0432.end
ENCODING -1
SWIDTH 406 0
DWIDTH 5 0
BBX 5 9 0 0
BITMAP
38
28
68
48
D0
F0
C8
D0
F0
ENDCHAR
STARTCHAR uni0434.end
ENCODING -1
SWIDTH 480 0
DWIDTH 6 0
BBX 6 9 0 -3
BITMAP
7C
48
C8
D8
D8
F8
50
70
70
ENDCHAR
STARTCHAR uni0435.end
ENCODING -1
SWIDTH 366 0
DWIDTH 4 0
BBX 4 6 0 0
BITMAP
70
50
D0
E0
C0
F0
ENDCHAR
STARTCHAR uni0451.end
ENCODING -1
SWIDTH 366 0
DWIDTH 4 0
BBX 5 8 0 0
BITMAP
68
00
70
50
D0
E0
C0
F0
ENDCHAR
STARTCHAR uni0436.end
ENCODING -1
SWIDTH 848 0
DWIDTH 10 0
BBX 10 6 0 0
BITMAP
66C0
B540
3F00
2F00
AF40
C9C0
ENDCHAR
STARTCHAR uni0437.end
ENCODING -1
SWIDTH 426 0
DWIDTH 5 0
BBX 5 9 0 -3
BITMAP
38
58
98
98
60
30
70
B0
60
ENDCHAR
STARTCHAR uni0438.end
ENCODING -1
SWIDTH 459 0
DWIDTH 6 0
BBX 6 6 0 0
BITMAP
6C
D8
D8
D8
D8
F8
ENDCHAR
STARTCHAR uni0439.end
ENCODING -1
SWIDTH 459 0
DWIDTH 6 0
BBX 6 9 0 0
BITMAP
24
28
30
4C
D8
D8
D8
D8
F8
ENDCHAR
STARTCHAR uni043A.end
ENCODING -1
SWIDTH 501 0
DWIDTH 6 0
BBX 6 6 0 0
BITMAP
6C
50
F8
D8
DC
98
ENDCHAR
STARTCHAR uni043B.end
ENCODING -1
SWIDTH 511 0
DWIDTH 6 0
BBX 6 6 0 0
BITMAP
1C
2C
2C
28
A8
CC
ENDCHAR
STARTCHAR uni043C.end
ENCODING -1
SWIDTH 780 0
DWIDTH 9 0
BBX 9 6 0 0
BITMAP
1980
2980
2B80
2B80
AD00
C980
ENDCHAR
STARTCHAR uni043D.end
ENCODING -1
SWIDTH 460 0
DWIDTH 6 0
BBX 6 6 0 0
BITMAP
6C
C8
F8
D8
D8
98
ENDCHAR
STARTCHAR uni043E.end
ENCODING -1
SWIDTH 439 0
DWIDTH 5 0
BBX 5 6 0 0
BITMAP
70
48
C8
D0
D0
E0
ENDCHAR
STARTCHAR uni043F.end
ENCODING -1
SWIDTH 454 0
DWIDTH 5 0
BBX 5 6 0 0
BITMAP
78
D8
D8
D8
D8
98
ENDCHAR
STARTCHAR uni0441.end
ENCODING -1
SWIDTH 341 0
DWIDTH 4 0
BBX 4 6 0 0
BITMAP
70
50
C0
C0
D0
E0
ENDCHAR
STARTCHAR uni0442.end
ENCODING -1
SWIDTH 701 0
DWIDTH 8 0
BBX 8 6 0 0
BITMAP
7F
DB
DB
DB
DB
93
ENDCHAR
STARTCHAR uni0443.end
ENCODING -1
SWIDTH 460 0
DWIDTH 6 0
BBX 6 9 0 -3
BITMAP
6C
D8
D8
D8
D8
F0
70
B0
60
ENDCHAR
STARTCHAR uni0445.end
ENCODING -1
SWIDTH 500 0
DWIDTH 6 0
BBX 6 6 0 0
BITMAP
34
54
98
B0
38
DC
ENDCHAR
STARTCHAR uni0447.end
ENCODING -1
SWIDTH 459 0
DWIDTH 6 0
BBX 6 6 0 0
BITMAP
6C
D8
D8
78
18
18
ENDCHAR
STARTCHAR uni0448.end
ENCODING -1
SWIDTH 706 0
DWIDTH 8 0
BBX 8 6 0 0
BITMAP
6D
DB
DB
DB
DB
FF
ENDCHAR
STARTCHAR uni044B.end
ENCODING -1
SWIDTH 608 0
DWIDTH 7 0
BBX 7 6 0 0
BITMAP
42
CE
F6
D6
D4
E6
ENDCHAR
STARTCHAR uni0455.end
ENCODING -1
SWIDTH 316 0
DWIDTH 4 0
BBX 4 6 0 0
BITMAP
30
70
70
B0
B0
E0
ENDCHAR
STARTCHAR uni0456.end
ENCODING -1
SWIDTH 209 0
DWIDTH 3 0
BBX 3 9 0 0
BITMAP
60
60
00
60
C0
C0
C0
E0
C0
ENDCHAR
STARTCHAR uni0458.end
ENCODING -1
SWIDTH 213 0
DWIDTH 3 0
BBX 6 11 -3 -3
BITMAP
0C
0C
08
18
18
18
18
10
70
B0
60
ENDCHAR
STARTCHAR uni044E.end
ENCODING -1
SWIDTH 675 0
DWIDTH 8 0
BBX 7 6 0 0
BITMAP
6E
DA
FA
DA
D2
9C
ENDCHAR
STARTCHAR uni044F.end
ENCODING -1
SWIDTH 480 0
DWIDTH 6 0
BBX 6 6 0 0
BITMAP
3C
48
48
78
B8
DC
ENDCHAR
STARTCHAR uni0437.init
ENCODING -1
SWIDTH 455 0
DWIDTH 5 0
BBX 6 9 0 -3
BITMAP
70
98
18
30
64
38
70
B0
E0
ENDCHAR
STARTCHAR uni0445.init
ENCODING -1
SWIDTH 390 0
DWIDTH 5 0
BBX 6 7 -1 0
BITMAP
08
64
28
30
70
B4
D8
ENDCHAR
STARTCHAR uni0436.loclBGR
ENCODING -1
SWIDTH 882 0
DWIDTH 11 0
BBX 11 9 0 0
BITMAP
0600
0600
0600
64C0
B540
3F00
2F00
AF20
C9C0
ENDCHAR
STARTCHAR uni043A.loclBGR
ENCODING -1
SWIDTH 518 0
DWIDTH 6 0
BBX 7 8 0 0
BITMAP
60
60
4C
50
F8
D8
DA
9C
ENDCHAR
STARTCHAR uni044E.loclBGR
ENCODING -1
SWIDTH 675 0
DWIDTH 8 0
BBX 10 9 0 0
BITMAP
6000
6000
6000
4E00
DAC0
FB00
DA00
D200
9C00
ENDCHAR
STARTCHAR uni0493.loclBSH
ENCODING -1
SWIDTH 398 0
DWIDTH 5 0
BBX 5 6 0 0
BITMAP
F8
C0
F0
80
A0
C0
ENDCHAR
STARTCHAR uni04AB.loclCHU
ENCODING -1
SWIDTH 384 0
DWIDTH 5 0
BBX 5 9 0 -3
BITMAP
70
50
C0
C0
C8
F0
20
10
60
ENDCHAR
STARTCHAR uni0453.loclMKD
ENCODING -1
SWIDTH 267 0
DWIDTH 3 0
BBX 4 11 0 0
BITMAP
10
20
00
F0
00
60
C0
C0
C0
D0
E0
ENDCHAR
STARTCHAR uni0433.loclSRB
ENCODING -1
SWIDTH 267 0
DWIDTH 3 0
BBX 4 8 0 0
BITMAP
F0
00
60
C0
C0
C0
D0
E0
ENDCHAR
STARTCHAR uni043F.loclSRB
ENCODING -1
SWIDTH 505 0
DWIDTH 6 0
BBX 7 8 0 0
BITMAP
78
00
6C
D8
D8
D8
DA
FC
ENDCHAR
STARTCHAR uni0442.loclSRB
ENCODING -1
SWIDTH 752 0
DWIDTH 9 0
BBX 10 8 0 0
BITMAP
7F00
0000
6D00
DB00
DB00
DB40
DB80
FF00
ENDCHAR
STARTCHAR uni04150437
ENCODING -1
SWIDTH 940 0
DWIDTH 11 0
BBX 12 12 0 -3
BITMAP
1C00
2400
2C00
31C0
6240
C440
C4C0
C990
70E0
01C0
0280
0380
ENDCHAR
STARTCHAR uni04150445
ENCODING -1
SWIDTH 797 0
DWIDTH 10 0
BBX 10 9 0 0
BITMAP
1C00
2400
2C80
3280
6280
C300
C300
C740
7980
ENDCHAR
STARTCHAR uni04010437
ENCODING -1
SWIDTH 940 0
DWIDTH 11 0
BBX 12 14 0 -3
BITMAP
1400
0000
1C00
2400
2C00
31C0
6240
C440
C4C0
C990
70E0
01C0
0280
0380
ENDCHAR
STARTCHAR uni04010445
ENCODING -1
SWIDTH 797 0
DWIDTH 10 0
BBX 10 11 0 0
BITMAP
1400
0000
1C00
2400
2C80
3280
6280
C300
C300
C740
7980
ENDCHAR
STARTCHAR uni04210437
ENCODING -1
SWIDTH 973 0
DWIDTH 12 0
BBX 12 12 0 -3
BITMAP
1C00
3400
6400
61C0
C260
C260
C440
C590
78E0
01C0
02C0
0180
ENDCHAR
STARTCHAR uni04210445
ENCODING -1
SWIDTH 814 0
DWIDTH 10 0
BBX 10 9 0 0
BITMAP
1C00
3400
6080
6240
C380
C300
C300
E740
7980
ENDCHAR
STARTCHAR uni04040437
ENCODING -1
SWIDTH 973 0
DWIDTH 12 0
BBX 12 12 0 -3
BITMAP
1C00
3400
6400
61C0
FA60
C260
C440
C590
78E0
01C0
02C0
0180
ENDCHAR
STARTCHAR uni04040445
ENCODING -1
SWIDTH 814 0
DWIDTH 10 0
BBX 10 9 0 0
BITMAP
1C00
3400
6080
6240
FB80
C380
C300
C740
7980
ENDCHAR
STARTCHAR uni04300445
ENCODING -1
SWIDTH 899 0
DWIDTH 11 0
BBX 11 6 0 0
BITMAP
7D60
49A0
C9C0
D980
DBA0
ECC0
ENDCHAR
STARTCHAR uni04300447
ENCODING -1
SWIDTH 993 0
DWIDTH 12 0
BBX 12 6 0 0
BITMAP
7D20
4B60
CB60
DBE0
D850
FC60
ENDCHAR
STARTCHAR uni04310433
ENCODING -1
SWIDTH 816 0
DWIDTH 10 0
BBX 10 9 0 0
BITMAP
3E00
3C00
1000
7380
CD80
C980
D700
D640
E780
ENDCHAR
STARTCHAR uni04310453
ENCODING -1
SWIDTH 816 0
DWIDTH 10 0
BBX 10 9 0 0
BITMAP
3E80
3D80
1000
7380
CD80
C980
D700
D640
E780
ENDCHAR
STARTCHAR uni04310451
ENCODING -1
SWIDTH 814 0
DWIDTH 10 0
BBX 10 9 0 0
BITMAP
3C00
3D40
1000
3180
4A40
CE80
D700
D640
E780
ENDCHAR
STARTCHAR uni04310436
ENCODING -1
SWIDTH 1261 0
DWIDTH 15 0
BBX 16 9 0 0
BITMAP
3E00
3C00
1000
3726
49EA
C9F8
D178
D559
E64E
ENDCHAR
STARTCHAR uni04310439
ENCODING -1
SWIDTH 935 0
DWIDTH 11 0
BBX 12 9 0 0
BITMAP
3D20
3D20
11C0
3360
4A40
CEC0
D6C0
D6D0
E7E0
ENDCHAR
STARTCHAR uni0431045E
ENCODING -1
SWIDTH 916 0
DWIDTH 11 0
BBX 12 12 0 -3
BITMAP
3D20
3D20
11C0
3360
4A40
CEC0
D6C0
D6D0
E7E0
0180
0380
0300
ENDCHAR
STARTCHAR uni0431044D
ENCODING -1
SWIDTH 860 0
DWIDTH 10 0
BBX 10 9 0 0
BITMAP
3E00
3C00
1000
3380
4CC0
CBC0
D8C0
D580
E700
ENDCHAR
STARTCHAR uni04310456
ENCODING -1
SWIDTH 697 0
DWIDTH 8 0
BBX 9 9 0 0
BITMAP
3F00
3B00
1000
3300
4A00
CE00
D600
D680
E700
ENDCHAR
STARTCHAR uni04310457
ENCODING -1
SWIDTH 697 0
DWIDTH 8 0
BBX 9 9 0 0
BITMAP
3C00
3A80
1000
3300
4A00
CE00
D600
D680
E700
ENDCHAR
STARTCHAR uni04310458
ENCODING -1
SWIDTH 669 0
DWIDTH 8 0
BBX 9 12 0 -3
BITMAP
0400
3F00
1B00
3300
4A00
CE00
DE00
D680
E700
0C00
1C00
1800
ENDCHAR
STARTCHAR uni04320433
ENCODING -1
SWIDTH 837 0
DWIDTH 10 0
BBX 10 9 0 0
BITMAP
3800
2800
6800
4B80
D480
F980
CB00
D640
F380
ENDCHAR
STARTCHAR uni04320453
ENCODING -1
SWIDTH 837 0
DWIDTH 10 0
BBX 10 9 0 0
BITMAP
38C0
2880
6900
4B80
D480
F980
CB00
D640
F380
ENDCHAR
STARTCHAR uni04320436
ENCODING -1
SWIDTH 1279 0
DWIDTH 15 0
BBX 16 9 0 0
BITMAP
3800
2800
6800
4F36
D9AD
F9FA
C9E8
D569
E64E
ENDCHAR
STARTCHAR uni04320437
ENCODING -1
SWIDTH 824 0
DWIDTH 10 0
BBX 10 12 0 -3
BITMAP
3800
2800
6800
4B80
D580
F980
C900
D640
F3C0
0700
0B00
0600
ENDCHAR
STARTCHAR uni04320445
ENCODING -1
SWIDTH 851 0
DWIDTH 10 0
BBX 11 9 0 0
BITMAP
3800
2800
6800
4B40
D740
F980
C900
D320
FDC0
ENDCHAR
STARTCHAR uni04330437
ENCODING -1
SWIDTH 840 0
DWIDTH 10 0
BBX 11 9 0 -3
BITMAP
7380
B580
7980
E980
D620
E1C0
0300
0700
0600
ENDCHAR
STARTCHAR uni04330445
ENCODING -1
SWIDTH 740 0
DWIDTH 9 0
BBX 9 7 0 0
BITMAP
0180
7480
B700
7700
E600
CE80
F300
ENDCHAR
STARTCHAR uni04330447
ENCODING -1
SWIDTH 880 0
DWIDTH 11 0
BBX 11 6 0 0
BITMAP
76C0
B6C0
7680
EF80
D1A0
E0C0
ENDCHAR
STARTCHAR uni04530437
ENCODING -1
SWIDTH 840 0
DWIDTH 10 0
BBX 11 12 0 -3
BITMAP
1800
1000
2000
7380
B580
7980
E980
D620
E1C0
0300
0700
0600
ENDCHAR
STARTCHAR uni04530445
ENCODING -1
SWIDTH 740 0
DWIDTH 9 0
BBX 9 9 0 0
BITMAP
1800
1000
2180
7480
B700
7700
E600
CE80
F300
ENDCHAR
STARTCHAR uni04530447
ENCODING -1
SWIDTH 880 0
DWIDTH 11 0
BBX 11 9 0 0
BITMAP
1800
1000
2000
76C0
B6C0
7680
EF80
D1A0
E0C0
ENDCHAR
STARTCHAR uni04340447
ENCODING -1
SWIDTH 1010 0
DWIDTH 12 0
BBX 13 9 0 -3
BITMAP
7DB0
4920
CB60
DBE0
DA68
FC70
3000
7000
7000
ENDCHAR
STARTCHAR uni04340458
ENCODING -1
SWIDTH 746 0
DWIDTH 9 0
BBX 9 11 0 -3
BITMAP
0180
0180
7D80
4900
CB00
DB00
DB80
FB80
3600
7600
7C00
ENDCHAR
STARTCHAR uni04350437
ENCODING -1
SWIDTH 876 0
DWIDTH 11 0
BBX 11 9 0 -3
BITMAP
7380
54C0
D4C0
E980
CB20
F1C0
0380
0580
0700
ENDCHAR
STARTCHAR uni04350445
ENCODING -1
SWIDTH 762 0
DWIDTH 9 0
BBX 10 6 0 0
BITMAP
7780
5680
D700
E200
C740
FB80
ENDCHAR
STARTCHAR uni04350447
ENCODING -1
SWIDTH 889 0
DWIDTH 11 0
BBX 11 6 0 0
BITMAP
76C0
56C0
D6C0
EF80
C9A0
F0C0
ENDCHAR
STARTCHAR uni04510437
ENCODING -1
SWIDTH 876 0
DWIDTH 11 0
BBX 11 11 0 -3
BITMAP
6800
0000
7380
54C0
D4C0
E980
CB20
F1C0
0380
0580
0700
ENDCHAR
STARTCHAR uni04510445
ENCODING -1
SWIDTH 762 0
DWIDTH 9 0
BBX 10 8 0 0
BITMAP
6800
0000
7780
5680
D700
E200
C740
FB80
ENDCHAR
STARTCHAR uni04510447
ENCODING -1
SWIDTH 889 0
DWIDTH 11 0
BBX 11 8 0 0
BITMAP
6800
0000
76C0
56C0
D6C0
EF80
C9A0
F0C0
ENDCHAR
STARTCHAR uni04360447
ENCODING -1
SWIDTH 1392 0
DWIDTH 17 0
BBX 17 6 0 0
BITMAP
66DB00
B55B00
3F1B00
2F3E00
AF2680
C9C300
ENDCHAR
STARTCHAR uni04370437
ENCODING -1
SWIDTH 921 0
DWIDTH 11 0
BBX 12 9 0 -3
BITMAP
39C0
5AC0
9CC0
9CC0
6710
38E0
3180
7380
6380
ENDCHAR
STARTCHAR uni04380447
ENCODING -1
SWIDTH 1010 0
DWIDTH 12 0
BBX 13 6 0 0
BITMAP
6DB0
D920
DB60
DBE0
DC68
F870
ENDCHAR
STARTCHAR uni04390447
ENCODING -1
SWIDTH 1010 0
DWIDTH 12 0
BBX 13 9 0 0
BITMAP
2400
2800
3000
4DB0
D920
DB60
DBE0
DC68
F870
ENDCHAR
STARTCHAR uni043A0447
ENCODING -1
SWIDTH 1016 0
DWIDTH 12 0
BBX 13 6 0 0
BITMAP
6DB0
5120
F960
DBE0
DA68
9C70
ENDCHAR
STARTCHAR uni045C0447
ENCODING -1
SWIDTH 1016 0
DWIDTH 12 0
BBX 13 9 0 0
BITMAP
0800
1000
0000
6DB0
5120
F960
DBE0
DA68
9C70
ENDCHAR
STARTCHAR uni043B0447
ENCODING -1
SWIDTH 1061 0
DWIDTH 13 0
BBX 13 6 0 0
BITMAP
1DB0
2DB0
2DB0
29E0
AA28
CC30
ENDCHAR
STARTCHAR uni043C0447
ENCODING -1
SWIDTH 1276 0
DWIDTH 15 0
BBX 16 6 0 0
BITMAP
11B6
3B24
3B2C
3F7C
BF4D
DB8E
ENDCHAR
STARTCHAR uni043D0447
ENCODING -1
SWIDTH 1011 0
DWIDTH 12 0
BBX 13 6 0 0
BITMAP
6DB0
C920
FB60
DBE0
DA68
9C70
ENDCHAR
STARTCHAR uni043E0433
ENCODING -1
SWIDTH 804 0
DWIDTH 10 0
BBX 10 6 0 0
BITMAP
7380
5C80
C980
D700
D640
E780
ENDCHAR
STARTCHAR uni043E0453
ENCODING -1
SWIDTH 804 0
DWIDTH 10 0
BBX 10 9 0 0
BITMAP
00C0
0080
0000
7380
5C80
C980
D700
D640
E780
ENDCHAR
STARTCHAR uni043E0436
ENCODING -1
SWIDTH 1271 0
DWIDTH 15 0
BBX 16 6 0 0
BITMAP
7336
5DAE
C9F8
D178
D569
E64E
ENDCHAR
STARTCHAR uni043E0437
ENCODING -1
SWIDTH 837 0
DWIDTH 10 0
BBX 11 9 0 -3
BITMAP
7380
5D80
C980
D180
D620
E1C0
0300
0700
0600
ENDCHAR
STARTCHAR uni043E043B
ENCODING -1
SWIDTH 992 0
DWIDTH 12 0
BBX 12 6 0 0
BITMAP
70E0
48E0
C960
D160
D550
FE60
ENDCHAR
STARTCHAR uni043E043C
ENCODING -1
SWIDTH 1207 0
DWIDTH 14 0
BBX 15 6 0 0
BITMAP
70CC
48DC
C9D8
D1E8
D5FA
FECC
ENDCHAR
STARTCHAR uni043E0445
ENCODING -1
SWIDTH 850 0
DWIDTH 10 0
BBX 11 6 0 0
BITMAP
7340
4F40
DB80
D300
D520
E5C0
ENDCHAR
STARTCHAR uni043E0459
ENCODING -1
SWIDTH 1179 0
DWIDTH 14 0
BBX 14 6 0 0
BITMAP
70E0
48E0
C97C
D16C
D548
FE70
ENDCHAR
STARTCHAR uni043E044D
ENCODING -1
SWIDTH 867 0
DWIDTH 10 0
BBX 10 6 0 0
BITMAP
7380
5CC0
C9C0
D0C0
D580
E700
ENDCHAR
STARTCHAR uni043F0447
ENCODING -1
SWIDTH 1010 0
DWIDTH 12 0
BBX 13 6 0 0
BITMAP
79B0
D920
DB60
DBE0
DA68
9C70
ENDCHAR
STARTCHAR uni04400437
ENCODING -1
SWIDTH 890 0
DWIDTH 11 0
BBX 12 10 -1 -3
BITMAP
3000
3DC0
6660
6460
6C40
6D90
78E0
C1C0
C2C0
C180
ENDCHAR
STARTCHAR uni04410437
ENCODING -1
SWIDTH 876 0
DWIDTH 11 0
BBX 11 9 0 -3
BITMAP
7380
54C0
C4C0
C980
CB20
F1C0
0380
0580
0700
ENDCHAR
STARTCHAR uni04410445
ENCODING -1
SWIDTH 755 0
DWIDTH 9 0
BBX 10 6 0 0
BITMAP
7780
D680
C700
C240
CE80
F380
ENDCHAR
STARTCHAR uni04410447
ENCODING -1
SWIDTH 889 0
DWIDTH 11 0
BBX 11 6 0 0
BITMAP
76C0
56C0
C6C0
CF80
C9A0
F0C0
ENDCHAR
STARTCHAR uni0441044A
ENCODING -1
SWIDTH 841 0
DWIDTH 10 0
BBX 10 6 0 0
BITMAP
7700
5700
C3C0
C6C0
CEC0
F780
ENDCHAR
STARTCHAR uni04420447
ENCODING -1
SWIDTH 1257 0
DWIDTH 15 0
BBX 16 6 0 0
BITMAP
7F36
DB2C
DB6C
DB7C
DB4D
938E
ENDCHAR
STARTCHAR uni04430447
ENCODING -1
SWIDTH 989 0
DWIDTH 12 0
BBX 12 9 0 -3
BITMAP
6D60
DB60
DB60
DBE0
FC50
D860
7000
B000
6000
ENDCHAR
STARTCHAR uni04430458
ENCODING -1
SWIDTH 725 0
DWIDTH 9 0
BBX 9 11 0 -3
BITMAP
0180
0100
6D00
DB00
DB00
DB00
DA80
F700
7E00
B600
7C00
ENDCHAR
STARTCHAR uni045E0447
ENCODING -1
SWIDTH 989 0
DWIDTH 12 0
BBX 12 12 0 -3
BITMAP
2400
2800
3000
4D60
DB60
DB60
DBE0
FC50
D860
7000
B000
6000
ENDCHAR
STARTCHAR uni045E0458
ENCODING -1
SWIDTH 725 0
DWIDTH 9 0
BBX 9 11 0 -3
BITMAP
2580
3900
4D00
DB00
DB00
DB00
DA80
FF00
7600
B600
6C00
ENDCHAR
STARTCHAR uni04440437
ENCODING -1
SWIDTH 1148 0
DWIDTH 14 0
BBX 14 11 0 -3
BITMAP
0C00
0C00
7F70
4998
C918
D910
DB64
FE38
1070
30B0
3060
ENDCHAR
STARTCHAR uni04450447
ENCODING -1
SWIDTH 1027 0
DWIDTH 12 0
BBX 13 6 0 0
BITMAP
35B0
5520
9960
B3E0
5A68
DC70
ENDCHAR
STARTCHAR uni0445044A
ENCODING -1
SWIDTH 1006 0
DWIDTH 12 0
BBX 12 6 0 0
BITMAP
35C0
7780
99E0
91B0
3320
DDC0
ENDCHAR
STARTCHAR uni04470447
ENCODING -1
SWIDTH 1010 0
DWIDTH 12 0
BBX 13 6 0 0
BITMAP
6DB0
D920
DB60
7BE0
1C68
1870
ENDCHAR
STARTCHAR uni04480447
ENCODING -1
SWIDTH 1257 0
DWIDTH 15 0
BBX 16 6 0 0
BITMAP
6D36
DB2C
DB6C
DB7D
DB8E
FF0E
ENDCHAR
STARTCHAR uni045F0447
ENCODING -1
SWIDTH 1010 0
DWIDTH 12 0
BBX 13 9 0 -3
BITMAP
6DB0
D920
DB60
DBE0
DC68
F870
2000
2000
2000
ENDCHAR
STARTCHAR uni044B0447
ENCODING -1
SWIDTH 1157 0
DWIDTH 14 0
BBX 14 6 0 0
BITMAP
4248
CED8
F6D8
D6F8
D514
E618
ENDCHAR
STARTCHAR uni04550437
ENCODING -1
SWIDTH 840 0
DWIDTH 10 0
BBX 11 9 0 -3
BITMAP
3380
7580
B980
B980
B620
E1C0
0300
0700
0600
ENDCHAR
STARTCHAR uni04550445
ENCODING -1
SWIDTH 727 0
DWIDTH 9 0
BBX 9 7 0 0
BITMAP
0100
7480
7700
B600
B600
BE80
E300
ENDCHAR
STARTCHAR uni04550447
ENCODING -1
SWIDTH 909 0
DWIDTH 11 0
BBX 11 6 0 0
BITMAP
3240
76C0
B6C0
BFC0
B0A0
E0C0
ENDCHAR
STARTCHAR uni04540437
ENCODING -1
SWIDTH 876 0
DWIDTH 11 0
BBX 11 9 0 -3
BITMAP
7380
54C0
E4C0
C980
CB20
F1C0
0380
0580
0700
ENDCHAR
STARTCHAR uni04540445
ENCODING -1
SWIDTH 755 0
DWIDTH 9 0
BBX 10 6 0 0
BITMAP
7780
D680
E700
C240
CE80
F300
ENDCHAR
STARTCHAR uni04540447
ENCODING -1
SWIDTH 889 0
DWIDTH 11 0
BBX 11 6 0 0
BITMAP
76C0
56C0
E6C0
CF80
D1A0
E0C0
ENDCHAR
STARTCHAR uni044D0437
ENCODING -1
SWIDTH 837 0
DWIDTH 10 0
BBX 11 9 0 -3
BITMAP
7380
9D80
7980
11A0
B640
E1C0
0300
0700
0600
ENDCHAR
STARTCHAR uni04560447
ENCODING -1
SWIDTH 763 0
DWIDTH 9 0
BBX 10 9 0 0
BITMAP
6000
6000
0000
6D80
C900
DB00
DF00
E340
E380
ENDCHAR
STARTCHAR uni04570447
ENCODING -1
SWIDTH 763 0
DWIDTH 9 0
BBX 10 8 0 0
BITMAP
F000
0000
6D80
C900
DB00
DF00
E340
E380
ENDCHAR
STARTCHAR uni04570457
ENCODING -1
SWIDTH 543 0
DWIDTH 7 0
BBX 7 8 0 0
BITMAP
EA
00
6C
C8
D8
D8
DA
FC
ENDCHAR
STARTCHAR uni04580447
ENCODING -1
SWIDTH 743 0
DWIDTH 9 0
BBX 11 11 -2 -3
BITMAP
1800
1800
1240
16C0
36C0
37C0
38A0
30C0
E000
E000
C000
ENDCHAR
STARTCHAR uni04580458
ENCODING -1
SWIDTH 480 0
DWIDTH 6 0
BBX 8 11 -2 -3
BITMAP
1B
1B
12
16
36
36
35
3E
6C
EC
D8
ENDCHAR
STARTCHAR uni045B0447
ENCODING -1
SWIDTH 990 0
DWIDTH 12 0
BBX 12 12 0 -3
BITMAP
2000
6000
F000
4360
FB60
DB60
DBC0
DC50
9860
7000
B000
6000
ENDCHAR
STARTCHAR uni045B0458
ENCODING -1
SWIDTH 722 0
DWIDTH 9 0
BBX 9 11 0 -3
BITMAP
6180
F000
4100
FB00
DB00
DB00
DA80
9700
7E00
B600
6C00
ENDCHAR
STARTCHAR uni044E0433
ENCODING -1
SWIDTH 1050 0
DWIDTH 13 0
BBX 13 6 0 0
BITMAP
6E70
DBB0
FA30
DAE0
D2C8
9CF0
ENDCHAR
STARTCHAR uni044E0453
ENCODING -1
SWIDTH 1050 0
DWIDTH 13 0
BBX 13 9 0 0
BITMAP
0018
0010
0020
6E70
DBB0
FA30
DAE0
D2C8
9CF0
ENDCHAR
STARTCHAR uni044E0436
ENCODING -1
SWIDTH 1507 0
DWIDTH 18 0
BBX 19 6 0 0
BITMAP
6EE4C0
DB3D40
FA3F00
DA2F20
D3AB40
9CC980
ENDCHAR
STARTCHAR uni044E0437
ENCODING -1
SWIDTH 1073 0
DWIDTH 13 0
BBX 13 9 0 -3
BITMAP
6EF0
DB30
FA30
DA20
D2C8
9C78
00E0
0160
00C0
ENDCHAR
STARTCHAR uni044E043B
ENCODING -1
SWIDTH 1228 0
DWIDTH 15 0
BBX 15 6 0 0
BITMAP
6E1C
DA2C
FA2C
DA28
D2AA
9FCC
ENDCHAR
STARTCHAR uni044E043C
ENCODING -1
SWIDTH 1443 0
DWIDTH 17 0
BBX 18 6 0 0
BITMAP
6E1980
DA3B00
FA3B00
DA3F00
D2BF40
9FDB80
ENDCHAR
STARTCHAR uni044E0445
ENCODING -1
SWIDTH 1088 0
DWIDTH 13 0
BBX 14 6 0 0
BITMAP
6E78
DAE8
FB70
DA60
D2A4
9CB8
ENDCHAR
STARTCHAR uni044E0459
ENCODING -1
SWIDTH 1415 0
DWIDTH 17 0
BBX 17 6 0 0
BITMAP
6E1C00
DA2E00
FA2D00
DA2980
D2A900
9FCE00
ENDCHAR
STARTCHAR uni044E044D
ENCODING -1
SWIDTH 1103 0
DWIDTH 13 0
BBX 13 6 0 0
BITMAP
6E70
DB98
FA78
DA10
D2B0
9CE0
ENDCHAR
STARTCHAR uni044F0447
ENCODING -1
SWIDTH 1030 0
DWIDTH 12 0
BBX 13 6 0 0
BITMAP
3DB0
49B0
4920
7BE0
BA68
DC70
ENDCHAR
STARTCHAR uni04300445.liga
ENCODING -1
SWIDTH 884 0
DWIDTH 11 0
BBX 11 6 0 0
BITMAP
7D60
49A0
C9C0
D980
DB80
ECC0
ENDCHAR
STARTCHAR uni04300447.liga
ENCODING -1
SWIDTH 947 0
DWIDTH 11 0
BBX 11 6 0 0
BITMAP
7D20
4B60
CB60
DBE0
D840
FC60
ENDCHAR
STARTCHAR uni04310451.liga
ENCODING -1
SWIDTH 746 0
DWIDTH 9 0
BBX 10 9 0 0
BITMAP
3C00
3D40
1000
3180
4B40
CE80
D700
D680
E700
ENDCHAR
STARTCHAR uni04310436.liga
ENCODING -1
SWIDTH 1258 0
DWIDTH 15 0
BBX 15 9 0 0
BITMAP
3E00
3C00
1000
3726
49EA
C9F8
D178
D558
E64E
ENDCHAR
STARTCHAR uni04310439.liga
ENCODING -1
SWIDTH 901 0
DWIDTH 11 0
BBX 11 9 0 0
BITMAP
3D20
3D20
11C0
3360
4A40
CEC0
D6C0
D6C0
E7E0
ENDCHAR
STARTCHAR uni0431045E.liga
ENCODING -1
SWIDTH 890 0
DWIDTH 11 0
BBX 11 12 0 -3
BITMAP
3D20
3D20
11C0
3360
4A40
CEC0
D6C0
D6C0
E7C0
0280
0580
0300
ENDCHAR
STARTCHAR uni04310456.liga
ENCODING -1
SWIDTH 639 0
DWIDTH 8 0
BBX 8 9 0 0
BITMAP
3F
3B
10
33
4A
CE
D6
D6
E7
ENDCHAR
STARTCHAR uni04310457.liga
ENCODING -1
SWIDTH 638 0
DWIDTH 8 0
BBX 9 9 0 0
BITMAP
3C00
3A80
1000
3300
4A00
CE00
D600
D600
E700
ENDCHAR
STARTCHAR uni04310458.liga
ENCODING -1
SWIDTH 638 0
DWIDTH 8 0
BBX 8 12 0 -3
BITMAP
04
3F
1B
33
4A
CE
DE
D6
E6
1C
2C
18
ENDCHAR
STARTCHAR uni04320436.liga
ENCODING -1
SWIDTH 1275 0
DWIDTH 15 0
BBX 16 9 0 0
BITMAP
3800
2800
6800
4F36
D9AD
F9FA
C9E8
D568
E64E
ENDCHAR
STARTCHAR uni04320437.liga
ENCODING -1
SWIDTH 752 0
DWIDTH 9 0
BBX 9 12 0 -3
BITMAP
3800
2800
6800
4B80
D580
F980
C900
D600
F300
0700
0B00
0600
ENDCHAR
STARTCHAR uni04320445.liga
ENCODING -1
SWIDTH 842 0
DWIDTH 10 0
BBX 10 9 0 0
BITMAP
3800
2800
6800
4B40
D740
F980
C900
D380
FDC0
ENDCHAR
STARTCHAR uni04330437.liga
ENCODING -1
SWIDTH 768 0
DWIDTH 9 0
BBX 9 9 0 -3
BITMAP
7380
B580
7980
E980
D600
E100
0700
0700
0600
ENDCHAR
STARTCHAR uni04330445.liga
ENCODING -1
SWIDTH 725 0
DWIDTH 9 0
BBX 9 7 0 0
BITMAP
0180
7480
B700
7600
E600
CA00
F300
ENDCHAR
STARTCHAR uni04330447.liga
ENCODING -1
SWIDTH 834 0
DWIDTH 10 0
BBX 10 6 0 0
BITMAP
76C0
B6C0
7680
EF80
D180
E0C0
ENDCHAR
STARTCHAR uni04530437.liga
ENCODING -1
SWIDTH 768 0
DWIDTH 9 0
BBX 9 12 0 -3
BITMAP
1800
1000
2000
7380
B580
7980
E980
D600
E100
0700
0700
0600
ENDCHAR
STARTCHAR uni04530445.liga
ENCODING -1
SWIDTH 725 0
DWIDTH 9 0
BBX 9 9 0 0
BITMAP
1800
1000
2180
7480
B700
7600
E600
CA00
F300
ENDCHAR
STARTCHAR uni04530447.liga
ENCODING -1
SWIDTH 834 0
DWIDTH 10 0
BBX 10 9 0 0
BITMAP
1800
1000
2000
76C0
B6C0
7680
EF80
D180
E0C0
ENDCHAR
STARTCHAR uni04340447.liga
ENCODING -1
SWIDTH 965 0
DWIDTH 12 0
BBX 12 9 0 -3
BITMAP
7DB0
4920
CB60
DBE0
DA60
FC70
3000
7000
7000
ENDCHAR
STARTCHAR uni04340458.liga
ENCODING -1
SWIDTH 715 0
DWIDTH 9 0
BBX 9 11 0 -3
BITMAP
0180
0180
7D80
4900
CB00
DB00
DB00
FA00
3600
7600
7C00
ENDCHAR
STARTCHAR uni04350437.liga
ENCODING -1
SWIDTH 804 0
DWIDTH 10 0
BBX 10 9 0 -3
BITMAP
7380
54C0
D4C0
E980
CB00
F180
0380
0580
0700
ENDCHAR
STARTCHAR uni04350445.liga
ENCODING -1
SWIDTH 747 0
DWIDTH 9 0
BBX 9 6 0 0
BITMAP
7780
5680
D700
E200
C600
FB80
ENDCHAR
STARTCHAR uni04350447.liga
ENCODING -1
SWIDTH 844 0
DWIDTH 10 0
BBX 10 6 0 0
BITMAP
76C0
56C0
D6C0
EF80
C980
F0C0
ENDCHAR
STARTCHAR uni04510437.liga
ENCODING -1
SWIDTH 804 0
DWIDTH 10 0
BBX 10 11 0 -3
BITMAP
6800
0000
7380
54C0
D4C0
E980
CB00
F180
0380
0580
0700
ENDCHAR
STARTCHAR uni04510445.liga
ENCODING -1
SWIDTH 747 0
DWIDTH 9 0
BBX 9 8 0 0
BITMAP
6800
0000
7780
5680
D700
E200
C600
FB80
ENDCHAR
STARTCHAR uni04510447.liga
ENCODING -1
SWIDTH 844 0
DWIDTH 10 0
BBX 10 8 0 0
BITMAP
6800
0000
76C0
56C0
D6C0
EF80
C980
F0C0
ENDCHAR
STARTCHAR uni04360447.liga
ENCODING -1
SWIDTH 1341 0
DWIDTH 16 0
BBX 16 6 0 0
BITMAP
66DB
B55B
3F1B
2F3E
AF26
C9C3
ENDCHAR
STARTCHAR uni04370437.liga
ENCODING -1
SWIDTH 849 0
DWIDTH 10 0
BBX 10 9 0 -3
BITMAP
39C0
5AC0
9CC0
9CC0
6700
3880
3180
7380
6300
ENDCHAR
STARTCHAR uni04380447.liga
ENCODING -1
SWIDTH 964 0
DWIDTH 12 0
BBX 12 6 0 0
BITMAP
6DB0
D920
DB60
DBE0
DC70
F860
ENDCHAR
STARTCHAR uni04390447.liga
ENCODING -1
SWIDTH 964 0
DWIDTH 12 0
BBX 12 9 0 0
BITMAP
2400
2800
3000
4DB0
D920
DB60
DBE0
DC70
F860
ENDCHAR
STARTCHAR uni043A0447.liga
ENCODING -1
SWIDTH 978 0
DWIDTH 12 0
BBX 12 6 0 0
BITMAP
6DB0
5120
F960
DBE0
DA60
9C70
ENDCHAR
STARTCHAR uni045C0447.liga
ENCODING -1
SWIDTH 978 0
DWIDTH 12 0
BBX 12 9 0 0
BITMAP
0800
1000
0000
6DB0
5120
F960
DBE0
DA60
9C70
ENDCHAR
STARTCHAR uni043B0447.liga
ENCODING -1
SWIDTH 1015 0
DWIDTH 12 0
BBX 12 6 0 0
BITMAP
1DB0
2DB0
2DB0
29E0
AA20
CC30
ENDCHAR
STARTCHAR uni043C0447.liga
ENCODING -1
SWIDTH 1231 0
DWIDTH 15 0
BBX 15 6 0 0
BITMAP
11B6
3B24
3B2C
3F7C
BF4C
DB8E
ENDCHAR
STARTCHAR uni043D0447.liga
ENCODING -1
SWIDTH 965 0
DWIDTH 12 0
BBX 12 6 0 0
BITMAP
6DB0
C920
FB60
DBE0
DA60
9C70
ENDCHAR
STARTCHAR uni043E0436.liga
ENCODING -1
SWIDTH 1268 0
DWIDTH 15 0
BBX 15 6 0 0
BITMAP
7336
5DAE
C9F8
D178
D568
E64E
ENDCHAR
STARTCHAR uni043E0437.liga
ENCODING -1
SWIDTH 765 0
DWIDTH 9 0
BBX 9 9 0 -3
BITMAP
7380
5D80
C980
D180
D600
E100
0700
0700
0600
ENDCHAR
STARTCHAR uni043E043B.liga
ENCODING -1
SWIDTH 945 0
DWIDTH 11 0
BBX 11 6 0 0
BITMAP
70E0
48E0
C960
D160
D540
FE60
ENDCHAR
STARTCHAR uni043E043C.liga
ENCODING -1
SWIDTH 1161 0
DWIDTH 14 0
BBX 14 6 0 0
BITMAP
70CC
48DC
C9D8
D1E8
D5F8
FECC
ENDCHAR
STARTCHAR uni043E0445.liga
ENCODING -1
SWIDTH 835 0
DWIDTH 10 0
BBX 10 6 0 0
BITMAP
7340
4F40
DB80
D300
D580
E5C0
ENDCHAR
STARTCHAR uni043F0447.liga
ENCODING -1
SWIDTH 965 0
DWIDTH 12 0
BBX 12 6 0 0
BITMAP
79B0
D920
DB60
DBE0
DA60
9C70
ENDCHAR
STARTCHAR uni04400437.liga
ENCODING -1
SWIDTH 818 0
DWIDTH 10 0
BBX 11 10 -1 -3
BITMAP
3000
3DC0
6660
6460
6C40
6D80
78C0
C1C0
C2C0
C180
ENDCHAR
STARTCHAR uni04410437.liga
ENCODING -1
SWIDTH 804 0
DWIDTH 10 0
BBX 10 9 0 -3
BITMAP
7380
54C0
C4C0
C980
CB00
F180
0380
0580
0700
ENDCHAR
STARTCHAR uni04410445.liga
ENCODING -1
SWIDTH 740 0
DWIDTH 9 0
BBX 9 6 0 0
BITMAP
7780
D680
C700
C600
C600
FB00
ENDCHAR
STARTCHAR uni04410447.liga
ENCODING -1
SWIDTH 843 0
DWIDTH 10 0
BBX 10 6 0 0
BITMAP
76C0
56C0
C6C0
CF80
C980
F0C0
ENDCHAR
STARTCHAR uni04420447.liga
ENCODING -1
SWIDTH 1211 0
DWIDTH 15 0
BBX 15 6 0 0
BITMAP
7F36
DB2C
DB6C
DB7C
DB4C
938C
ENDCHAR
STARTCHAR uni04430447.liga
ENCODING -1
SWIDTH 943 0
DWIDTH 11 0
BBX 11 9 0 -3
BITMAP
6D60
DB60
DB60
DBE0
FC40
D860
7000
B000
6000
ENDCHAR
STARTCHAR uni04430458.liga
ENCODING -1
SWIDTH 694 0
DWIDTH 8 0
BBX 9 11 0 -3
BITMAP
0180
0100
6D00
DB00
DB00
DB00
DA00
F600
7E00
B600
7C00
ENDCHAR
STARTCHAR uni045E0447.liga
ENCODING -1
SWIDTH 943 0
DWIDTH 11 0
BBX 11 12 0 -3
BITMAP
2400
2800
3000
4D60
DB60
DB60
DBE0
FC40
D860
7000
B000
6000
ENDCHAR
STARTCHAR uni045E0458.liga
ENCODING -1
SWIDTH 694 0
DWIDTH 8 0
BBX 9 11 0 -3
BITMAP
2580
3900
4D00
DB00
DB00
DB00
DA00
FE00
7600
B600
6C00
ENDCHAR
STARTCHAR uni04440437.liga
ENCODING -1
SWIDTH 1076 0
DWIDTH 13 0
BBX 13 11 0 -3
BITMAP
0C00
0C00
7F70
4998
C918
D910
DB60
FE30
1070
30B0
3060
ENDCHAR
STARTCHAR uni04450447.liga
ENCODING -1
SWIDTH 981 0
DWIDTH 12 0
BBX 12 6 0 0
BITMAP
35B0
5520
9960
B3E0
5A60
DC70
ENDCHAR
STARTCHAR uni04470447.liga
ENCODING -1
SWIDTH 964 0
DWIDTH 12 0
BBX 12 6 0 0
BITMAP
6DB0
D920
DB60
7BE0
1C70
1860
ENDCHAR
STARTCHAR uni04480447.liga
ENCODING -1
SWIDTH 1211 0
DWIDTH 15 0
BBX 15 6 0 0
BITMAP
6D36
DB2C
DB6C
DB7C
DB8C
FF0C
ENDCHAR
STARTCHAR uni045F0447.liga
ENCODING -1
SWIDTH 964 0
DWIDTH 12 0
BBX 12 9 0 -3
BITMAP
6DB0
D920
DB60
DBE0
DC70
F860
2000
2000
2000
ENDCHAR
STARTCHAR uni044B0447.liga
ENCODING -1
SWIDTH 1112 0
DWIDTH 13 0
BBX 13 6 0 0
BITMAP
4248
CED8
F6D8
D6F8
D510
E618
ENDCHAR
STARTCHAR uni04550437.liga
ENCODING -1
SWIDTH 768 0
DWIDTH 9 0
BBX 9 9 0 -3
BITMAP
3380
7580
B980
B980
B600
E100
0700
0700
0700
ENDCHAR
STARTCHAR uni04550445.liga
ENCODING -1
SWIDTH 712 0
DWIDTH 9 0
BBX 9 7 0 0
BITMAP
0100
7480
7700
B600
B600
BE00
E300
ENDCHAR
STARTCHAR uni04550447.liga
ENCODING -1
SWIDTH 864 0
DWIDTH 10 0
BBX 10 6 0 0
BITMAP
3240
76C0
B6C0
BFC0
B080
E0C0
ENDCHAR
STARTCHAR uni04540437.liga
ENCODING -1
SWIDTH 804 0
DWIDTH 10 0
BBX 10 9 0 -3
BITMAP
7380
54C0
E4C0
C980
CB00
F180
0380
0580
0700
ENDCHAR
STARTCHAR uni04540445.liga
ENCODING -1
SWIDTH 740 0
DWIDTH 9 0
BBX 9 6 0 0
BITMAP
7780
D680
E700
C200
CE00
F300
ENDCHAR
STARTCHAR uni04540447.liga
ENCODING -1
SWIDTH 844 0
DWIDTH 10 0
BBX 10 6 0 0
BITMAP
76C0
56C0
E6C0
CF80
D180
E0C0
ENDCHAR
STARTCHAR uni044D0437.liga
ENCODING -1
SWIDTH 765 0
DWIDTH 9 0
BBX 9 9 0 -3
BITMAP
7380
9D80
7980
1180
B600
E100
0700
0700
0600
ENDCHAR
STARTCHAR uni04560447.liga
ENCODING -1
SWIDTH 717 0
DWIDTH 9 0
BBX 9 9 0 0
BITMAP
6000
6000
0000
6D80
C900
DB00
DF00
E380
E300
ENDCHAR
STARTCHAR uni04570447.liga
ENCODING -1
SWIDTH 718 0
DWIDTH 9 0
BBX 9 8 0 0
BITMAP
F000
0000
6D80
C900
DB00
DF00
E300
E380
ENDCHAR
STARTCHAR uni04570457.liga
ENCODING -1
SWIDTH 476 0
DWIDTH 6 0
BBX 7 8 0 0
BITMAP
EA
00
6C
C8
D8
D8
D8
FC
ENDCHAR
STARTCHAR uni04580447.liga
ENCODING -1
SWIDTH 697 0
DWIDTH 8 0
BBX 10 11 -2 -3
BITMAP
1800
1800
1240
16C0
36C0
37C0
3880
30C0
E000
E000
C000
ENDCHAR
STARTCHAR uni04580458.liga
ENCODING -1
SWIDTH 449 0
DWIDTH 5 0
BBX 8 11 -2 -3
BITMAP
1B
1B
12
16
36
36
34
3C
6C
EC
D8
ENDCHAR
STARTCHAR uni045B0447.liga
ENCODING -1
SWIDTH 937 0
DWIDTH 11 0
BBX 11 12 0 -3
BITMAP
2000
6000
F000
4360
FB60
DB60
DBC0
DC40
9860
7000
B000
6000
ENDCHAR
STARTCHAR uni045B0458.liga
ENCODING -1
SWIDTH 691 0
DWIDTH 8 0
BBX 9 11 0 -3
BITMAP
6180
F000
4100
FB00
DB00
DB00
DA00
9600
7E00
B600
6C00
ENDCHAR
STARTCHAR uni044E0436.liga
ENCODING -1
SWIDTH 1503 0
DWIDTH 18 0
BBX 18 6 0 0
BITMAP
6EE4C0
DB3D40
FA3F00
DA2F00
D3AB00
9CC9C0
ENDCHAR
STARTCHAR uni044E0437.liga
ENCODING -1
SWIDTH 1001 0
DWIDTH 12 0
BBX 12 9 0 -3
BITMAP
6EF0
DB30
FA30
DA20
D2C0
9C60
00E0
0160
00C0
ENDCHAR
STARTCHAR uni044E043B.liga
ENCODING -1
SWIDTH 1181 0
DWIDTH 14 0
BBX 14 6 0 0
BITMAP
6E1C
DA2C
FA2C
DA28
D2A8
9FCC
ENDCHAR
STARTCHAR uni044E043C.liga
ENCODING -1
SWIDTH 1396 0
DWIDTH 17 0
BBX 17 6 0 0
BITMAP
6E1980
DA3B00
FA3B00
DA3F00
D2BF00
9FDB80
ENDCHAR
STARTCHAR uni044E0445.liga
ENCODING -1
SWIDTH 1072 0
DWIDTH 13 0
BBX 13 6 0 0
BITMAP
6E78
DAE8
FB70
DA60
D2A0
9CB0
ENDCHAR
STARTCHAR uni044F0447.liga
ENCODING -1
SWIDTH 984 0
DWIDTH 12 0
BBX 12 6 0 0
BITMAP
3DB0
49B0
4920
7BE0
BA60
DC70
ENDCHAR
STARTCHAR brevecombcy
ENCODING -1
SWIDTH 0 0
DWIDTH 0 0
BBX 4 2 -3 6
BITMAP
B0
C0
ENDCHAR
STARTCHAR brevecombcy.case
ENCODING -1
SWIDTH 0 0
DWIDTH 0 0
BBX 4 2 -3 9
BITMAP
D0
60
ENDCHAR
ENDFONT
